STARTFONT 2.1
COMMENT
COMMENT Shinonome 16dot font for JISX 0208, 1983/1990, Mincho Style
COMMENT
COMMENT The original is designed by
COMMENT   Yasuyuki Furukawa <Furukawa.Yasuyuki@fujixerox.co.jp>, 2000.
COMMENT   (Public Domain)
COMMENT
COMMENT Modified and Maintained by /efont/.
COMMENT
COMMENT (c) /efont/ -- Efont Open Laboratory 2001
COMMENT http://openlab.ring.gr.jp/efont/
COMMENT
FONT -Shinonome-Mincho-Medium-I-Normal--16-150-75-75-C-160-JISX0208.1990-0
SIZE 16 75 75
FONTBOUNDINGBOX 21 16 -2 -2
STARTPROPERTIES 20
FONT_ASCENT 14
FONT_DESCENT 2
DEFAULT_CHAR 8481
COPYRIGHT "Public Domain"
FONTNAME_REGISTRY ""
FOUNDRY "Shinonome"
FAMILY_NAME "Mincho"
WEIGHT_NAME "Medium"
SLANT "I"
SETWIDTH_NAME "Normal"
ADD_STYLE_NAME ""
PIXEL_SIZE 16
POINT_SIZE 150
RESOLUTION_X 75
RESOLUTION_Y 75
SPACING "C"
AVERAGE_WIDTH 160
CHARSET_REGISTRY "JISX0208.1983"
CHARSET_ENCODING "0"
_XMBDFED_INFO "Edited with xmbdfed 4.4."
ENDPROPERTIES
CHARS 6879
STARTCHAR 2121
ENCODING 8481
SWIDTH 960 0
DWIDTH 16 0
BBX 21 16 -2 -2
BITMAP
000000
000000
000000
000000
000000
000000
000000
000000
000000
000000
000000
000000
000000
000000
000000
000000
ENDCHAR
STARTCHAR 2122
ENCODING 8482
SWIDTH 960 0
DWIDTH 16 0
BBX 21 16 -2 -2
BITMAP
000000
000000
000000
000000
000000
000000
000000
000000
000000
000000
000000
000000
100000
080000
080000
080000
ENDCHAR
STARTCHAR 2123
ENCODING 8483
SWIDTH 960 0
DWIDTH 16 0
BBX 21 16 -2 -2
BITMAP
000000
000000
000000
000000
000000
000000
000000
000000
000000
000000
000000
0C0000
140000
240000
180000
000000
ENDCHAR
STARTCHAR 2124
ENCODING 8484
SWIDTH 960 0
DWIDTH 16 0
BBX 21 16 -2 -2
BITMAP
000000
000000
000000
000000
000000
000000
000000
000000
000000
000000
000000
000000
300000
300000
200000
400000
ENDCHAR
STARTCHAR 2125
ENCODING 8485
SWIDTH 960 0
DWIDTH 16 0
BBX 21 16 -2 -2
BITMAP
000000
000000
000000
000000
000000
000000
000000
000000
000000
000000
000000
000000
300000
300000
000000
000000
ENDCHAR
STARTCHAR 2126
ENCODING 8486
SWIDTH 960 0
DWIDTH 16 0
BBX 21 16 -2 -2
BITMAP
000000
000000
000000
000000
000000
000000
000000
003000
003000
000000
000000
000000
000000
000000
000000
000000
ENDCHAR
STARTCHAR 2127
ENCODING 8487
SWIDTH 960 0
DWIDTH 16 0
BBX 21 16 -2 -2
BITMAP
000000
000000
000000
000000
000000
001800
003000
000000
000000
000000
000000
006000
00C000
000000
000000
000000
ENDCHAR
STARTCHAR 2128
ENCODING 8488
SWIDTH 960 0
DWIDTH 16 0
BBX 21 16 -2 -2
BITMAP
000000
000000
000000
000000
000000
001800
003000
000000
000000
000000
000000
006000
00C000
004000
008000
000000
ENDCHAR
STARTCHAR 2129
ENCODING 8489
SWIDTH 960 0
DWIDTH 16 0
BBX 21 16 -2 -2
BITMAP
000000
001E00
002100
004100
008100
008200
008400
000800
001000
002000
004000
000000
000000
008000
008000
000000
ENDCHAR
STARTCHAR 212a
ENCODING 8490
SWIDTH 960 0
DWIDTH 16 0
BBX 21 16 -2 -2
BITMAP
000000
000C00
000C00
001800
001800
001000
002000
002000
002000
004000
004000
000000
000000
008000
008000
000000
ENDCHAR
STARTCHAR 212b
ENCODING 8491
SWIDTH 960 0
DWIDTH 16 0
BBX 21 16 -2 -2
BITMAP
008000
024000
024000
020000
000000
000000
000000
000000
000000
000000
000000
000000
000000
000000
000000
000000
ENDCHAR
STARTCHAR 212c
ENCODING 8492
SWIDTH 960 0
DWIDTH 16 0
BBX 21 16 -2 -2
BITMAP
000000
020000
050000
050000
020000
000000
000000
000000
000000
000000
000000
000000
000000
000000
000000
000000
ENDCHAR
STARTCHAR 212d
ENCODING 8493
SWIDTH 960 0
DWIDTH 16 0
BBX 21 16 -2 -2
BITMAP
000400
000400
000800
003000
000000
000000
000000
000000
000000
000000
000000
000000
000000
000000
000000
000000
ENDCHAR
STARTCHAR 212e
ENCODING 8494
SWIDTH 960 0
DWIDTH 16 0
BBX 21 16 -2 -2
BITMAP
001000
001000
000800
000800
000000
000000
000000
000000
000000
000000
000000
000000
000000
000000
000000
000000
ENDCHAR
STARTCHAR 212f
ENCODING 8495
SWIDTH 960 0
DWIDTH 16 0
BBX 21 16 -2 -2
BITMAP
003300
003300
000000
000000
000000
000000
000000
000000
000000
000000
000000
000000
000000
000000
000000
000000
ENDCHAR
STARTCHAR 2130
ENCODING 8496
SWIDTH 960 0
DWIDTH 16 0
BBX 21 16 -2 -2
BITMAP
000800
001400
006200
008200
000000
000000
000000
000000
000000
000000
000000
000000
000000
000000
000000
000000
ENDCHAR
STARTCHAR 2131
ENCODING 8497
SWIDTH 960 0
DWIDTH 16 0
BBX 21 16 -2 -2
BITMAP
07FFF8
000000
000000
000000
000000
000000
000000
000000
000000
000000
000000
000000
000000
000000
000000
000000
ENDCHAR
STARTCHAR 2132
ENCODING 8498
SWIDTH 960 0
DWIDTH 16 0
BBX 21 16 -2 -2
BITMAP
000000
000000
000000
000000
000000
000000
000000
000000
000000
000000
000000
000000
000000
000000
000000
FFFF00
ENDCHAR
STARTCHAR 2133
ENCODING 8499
SWIDTH 960 0
DWIDTH 16 0
BBX 21 16 -2 -2
BITMAP
000000
000000
000000
000000
000000
00C000
002000
001000
000800
000800
000400
000000
000000
000000
000000
000000
ENDCHAR
STARTCHAR 2134
ENCODING 8500
SWIDTH 960 0
DWIDTH 16 0
BBX 21 16 -2 -2
BITMAP
000000
000000
000100
000900
000500
00C400
002000
001000
000800
000800
000400
000000
000000
000000
000000
000000
ENDCHAR
STARTCHAR 2135
ENCODING 8501
SWIDTH 960 0
DWIDTH 16 0
BBX 21 16 -2 -2
BITMAP
000000
000000
000000
000000
00C000
002000
001000
000800
000400
001C00
002000
004000
000000
000000
000000
000000
ENDCHAR
STARTCHAR 2136
ENCODING 8502
SWIDTH 960 0
DWIDTH 16 0
BBX 21 16 -2 -2
BITMAP
000000
000000
000080
000480
00C280
002200
001000
000800
000400
001C00
002000
004000
000000
000000
000000
000000
ENDCHAR
STARTCHAR 2137
ENCODING 8503
SWIDTH 960 0
DWIDTH 16 0
BBX 21 16 -2 -2
BITMAP
000000
000000
000000
000000
001100
002100
002200
004400
008C00
011000
022000
000000
000000
000000
000000
000000
ENDCHAR
STARTCHAR 2138
ENCODING 8504
SWIDTH 960 0
DWIDTH 16 0
BBX 21 16 -2 -2
BITMAP
000400
000400
000A00
003200
004100
0180C0
0E0020
000000
01FF80
002000
002000
002000
004000
004000
1FFF00
000000
ENDCHAR
STARTCHAR 2139
ENCODING 8505
SWIDTH 960 0
DWIDTH 16 0
BBX 21 16 -2 -2
BITMAP
000000
000800
000800
001000
001F80
002100
002100
004200
018400
026400
041800
000400
000400
000400
000000
000000
ENDCHAR
STARTCHAR 213a
ENCODING 8506
SWIDTH 960 0
DWIDTH 16 0
BBX 21 16 -2 -2
BITMAP
000000
000010
000020
000040
000080
003100
004C00
008800
011400
016000
028000
050000
040000
080000
080000
000000
ENDCHAR
STARTCHAR 213b
ENCODING 8507
SWIDTH 960 0
DWIDTH 16 0
BBX 21 16 -2 -2
BITMAP
000000
001E00
00E100
010080
020040
040040
040040
080040
080080
080080
080100
080200
080400
061800
01E000
000000
ENDCHAR
STARTCHAR 213c
ENCODING 8508
SWIDTH 960 0
DWIDTH 16 0
BBX 21 16 -2 -2
BITMAP
000000
000000
000000
000000
000000
000000
000000
081F80
07E000
000000
000000
000000
000000
000000
000000
000000
ENDCHAR
STARTCHAR 213d
ENCODING 8509
SWIDTH 960 0
DWIDTH 16 0
BBX 21 16 -2 -2
BITMAP
000000
000000
000000
000000
000000
000000
000000
1FFFE0
000000
000000
000000
000000
000000
000000
000000
000000
ENDCHAR
STARTCHAR 213e
ENCODING 8510
SWIDTH 960 0
DWIDTH 16 0
BBX 21 16 -2 -2
BITMAP
000000
000000
000000
000000
000000
000000
000000
00FC00
000000
000000
000000
000000
000000
000000
000000
000000
ENDCHAR
STARTCHAR 213f
ENCODING 8511
SWIDTH 960 0
DWIDTH 16 0
BBX 21 16 -2 -2
BITMAP
000008
000010
000060
000080
000100
000600
000800
001000
006000
008000
010000
060000
080000
100000
600000
800000
ENDCHAR
STARTCHAR 2140
ENCODING 8512
SWIDTH 960 0
DWIDTH 16 0
BBX 21 16 -2 -2
BITMAP
040000
020000
010000
010000
008000
004000
004000
002000
001000
001000
000800
000400
000400
000200
000100
000100
ENDCHAR
STARTCHAR 2141
ENCODING 8513
SWIDTH 960 0
DWIDTH 16 0
BBX 21 16 -2 -2
BITMAP
000000
000000
000000
000000
000000
000000
01C000
023040
040980
000600
000000
000000
000000
000000
000000
000000
ENDCHAR
STARTCHAR 2142
ENCODING 8514
SWIDTH 960 0
DWIDTH 16 0
BBX 21 16 -2 -2
BITMAP
002200
002200
002200
004400
004400
004400
008800
008800
008800
011000
011000
011000
022000
022000
022000
044000
ENDCHAR
STARTCHAR 2143
ENCODING 8515
SWIDTH 960 0
DWIDTH 16 0
BBX 21 16 -2 -2
BITMAP
000800
000800
000800
001000
001000
001000
002000
002000
002000
004000
004000
004000
008000
008000
008000
010000
ENDCHAR
STARTCHAR 2144
ENCODING 8516
SWIDTH 960 0
DWIDTH 16 0
BBX 21 16 -2 -2
BITMAP
000000
000000
000000
000000
000000
000000
000000
0C30C0
0C30C0
000000
000000
000000
000000
000000
000000
000000
ENDCHAR
STARTCHAR 2145
ENCODING 8517
SWIDTH 960 0
DWIDTH 16 0
BBX 21 16 -2 -2
BITMAP
000000
000000
000000
000000
000000
000000
000000
030300
030300
000000
000000
000000
000000
000000
000000
000000
ENDCHAR
STARTCHAR 2146
ENCODING 8518
SWIDTH 960 0
DWIDTH 16 0
BBX 21 16 -2 -2
BITMAP
000040
000080
0000C0
000180
000000
000000
000000
000000
000000
000000
000000
000000
000000
000000
000000
000000
ENDCHAR
STARTCHAR 2147
ENCODING 8519
SWIDTH 960 0
DWIDTH 16 0
BBX 21 16 -2 -2
BITMAP
00C000
00C000
008000
010000
000000
000000
000000
000000
000000
000000
000000
000000
000000
000000
000000
000000
ENDCHAR
STARTCHAR 2148
ENCODING 8520
SWIDTH 960 0
DWIDTH 16 0
BBX 21 16 -2 -2
BITMAP
000120
000240
000360
0006C0
000000
000000
000000
000000
000000
000000
000000
000000
000000
000000
000000
000000
ENDCHAR
STARTCHAR 2149
ENCODING 8521
SWIDTH 960 0
DWIDTH 16 0
BBX 21 16 -2 -2
BITMAP
01B000
01B000
013000
024000
000000
000000
000000
000000
000000
000000
000000
000000
000000
000000
000000
000000
ENDCHAR
STARTCHAR 214a
ENCODING 8522
SWIDTH 960 0
DWIDTH 16 0
BBX 21 16 -2 -2
BITMAP
000000
000040
000180
000200
000400
000800
000800
001000
001000
002000
002000
002000
002000
001000
000800
000800
ENDCHAR
STARTCHAR 214b
ENCODING 8523
SWIDTH 960 0
DWIDTH 16 0
BBX 21 16 -2 -2
BITMAP
000000
008000
004000
004000
002000
002000
002000
002000
002000
004000
004000
008000
010000
020000
0C0000
100000
ENDCHAR
STARTCHAR 214c
ENCODING 8524
SWIDTH 960 0
DWIDTH 16 0
BBX 21 16 -2 -2
BITMAP
000040
000180
000600
000800
000800
000800
001000
001000
001000
002000
002000
002000
004000
006000
001000
000800
ENDCHAR
STARTCHAR 214d
ENCODING 8525
SWIDTH 960 0
DWIDTH 16 0
BBX 21 16 -2 -2
BITMAP
008000
006000
001800
001000
001000
001000
002000
002000
002000
004000
004000
004000
008000
018000
0E0000
100000
ENDCHAR
STARTCHAR 214e
ENCODING 8526
SWIDTH 960 0
DWIDTH 16 0
BBX 21 16 -2 -2
BITMAP
0007C0
000400
000400
000800
000800
000800
001000
001000
001000
002000
002000
002000
004000
004000
004000
00F800
ENDCHAR
STARTCHAR 214f
ENCODING 8527
SWIDTH 960 0
DWIDTH 16 0
BBX 21 16 -2 -2
BITMAP
00F800
000800
000800
001000
001000
001000
002000
002000
002000
004000
004000
004000
008000
008000
008000
1F0000
ENDCHAR
STARTCHAR 2150
ENCODING 8528
SWIDTH 960 0
DWIDTH 16 0
BBX 21 16 -2 -2
BITMAP
000040
000080
000100
000200
000200
000200
000400
001000
000800
000800
000800
000800
001000
001000
000800
000800
ENDCHAR
STARTCHAR 2151
ENCODING 8529
SWIDTH 960 0
DWIDTH 16 0
BBX 21 16 -2 -2
BITMAP
008000
004000
004000
004000
004000
004000
004000
006000
008000
010000
010000
010000
020000
020000
040000
180000
ENDCHAR
STARTCHAR 2152
ENCODING 8530
SWIDTH 960 0
DWIDTH 16 0
BBX 21 16 -2 -2
BITMAP
000040
000040
000080
000100
000200
000400
000800
001000
001000
001000
000800
000800
000800
000800
000800
000800
ENDCHAR
STARTCHAR 2153
ENCODING 8531
SWIDTH 960 0
DWIDTH 16 0
BBX 21 16 -2 -2
BITMAP
008000
008000
008000
008000
004000
004000
004000
002000
004000
008000
010000
020000
020000
040000
080000
100000
ENDCHAR
STARTCHAR 2154
ENCODING 8532
SWIDTH 960 0
DWIDTH 16 0
BBX 21 16 -2 -2
BITMAP
000120
000120
000280
000480
000900
001300
002400
004800
004800
004800
002400
002400
002400
002400
002200
002400
ENDCHAR
STARTCHAR 2155
ENCODING 8533
SWIDTH 960 0
DWIDTH 16 0
BBX 21 16 -2 -2
BITMAP
012000
012000
011000
011000
009000
009000
009000
004800
009800
012000
024000
044000
048000
090000
120000
240000
ENDCHAR
STARTCHAR 2156
ENCODING 8534
SWIDTH 960 0
DWIDTH 16 0
BBX 21 16 -2 -2
BITMAP
0007C0
000400
000400
000800
000800
000800
001000
001000
001000
002000
002000
000000
000000
000000
000000
000000
ENDCHAR
STARTCHAR 2157
ENCODING 8535
SWIDTH 960 0
DWIDTH 16 0
BBX 21 16 -2 -2
BITMAP
000000
000000
000000
000000
000000
001000
002000
002000
002000
004000
004000
004000
008000
008000
008000
1F0000
ENDCHAR
STARTCHAR 2158
ENCODING 8536
SWIDTH 960 0
DWIDTH 16 0
BBX 21 16 -2 -2
BITMAP
000FC0
000840
000BC0
001400
001400
001400
002800
002800
002800
005000
007000
000000
000000
000000
000000
000000
ENDCHAR
STARTCHAR 2159
ENCODING 8537
SWIDTH 960 0
DWIDTH 16 0
BBX 21 16 -2 -2
BITMAP
000000
000000
000000
000000
000000
003800
005000
005000
005000
00A000
00A000
00A000
014000
0F4000
084000
1F8000
ENDCHAR
STARTCHAR 215a
ENCODING 8538
SWIDTH 960 0
DWIDTH 16 0
BBX 21 16 -2 -2
BITMAP
0007C0
000780
000700
000C00
000C00
000800
001000
001000
001000
002000
002000
003000
006000
007000
007800
00F800
ENDCHAR
STARTCHAR 215b
ENCODING 8539
SWIDTH 960 0
DWIDTH 16 0
BBX 21 16 -2 -2
BITMAP
00F800
007800
003800
003000
003000
001000
002000
002000
002000
004000
004000
00C000
018000
038000
0F8000
170000
ENDCHAR
STARTCHAR 215c
ENCODING 8540
SWIDTH 960 0
DWIDTH 16 0
BBX 21 16 -2 -2
BITMAP
000000
000000
000400
000800
000800
000800
001000
03FF80
001000
002000
002000
002000
004000
004000
000000
000000
ENDCHAR
STARTCHAR 215d
ENCODING 8541
SWIDTH 960 0
DWIDTH 16 0
BBX 21 16 -2 -2
BITMAP
000000
000000
000000
000000
000000
000000
000000
07FF80
000000
000000
000000
000000
000000
000000
000000
000000
ENDCHAR
STARTCHAR 215e
ENCODING 8542
SWIDTH 960 0
DWIDTH 16 0
BBX 21 16 -2 -2
BITMAP
000000
000000
000400
000800
000800
000800
03FF80
001000
001000
002000
002000
000000
000000
0FFF00
000000
000000
ENDCHAR
STARTCHAR 215f
ENCODING 8543
SWIDTH 960 0
DWIDTH 16 0
BBX 21 16 -2 -2
BITMAP
000000
000000
000000
010080
008100
004600
004800
003000
007000
009000
010800
060400
080400
000000
000000
000000
ENDCHAR
STARTCHAR 2160
ENCODING 8544
SWIDTH 960 0
DWIDTH 16 0
BBX 21 16 -2 -2
BITMAP
000000
000000
000000
001800
001800
000000
000000
07FF80
000000
000000
006000
006000
000000
000000
000000
000000
ENDCHAR
STARTCHAR 2161
ENCODING 8545
SWIDTH 960 0
DWIDTH 16 0
BBX 21 16 -2 -2
BITMAP
000000
000000
000000
000000
000000
03FFC0
000000
000000
000000
0FFF00
000000
000000
000000
000000
000000
000000
ENDCHAR
STARTCHAR 2162
ENCODING 8546
SWIDTH 960 0
DWIDTH 16 0
BBX 21 16 -2 -2
BITMAP
000000
000000
000200
000400
000800
03FFC0
001000
002000
002000
0FFF00
004000
008000
010000
000000
000000
000000
ENDCHAR
STARTCHAR 2163
ENCODING 8547
SWIDTH 960 0
DWIDTH 16 0
BBX 21 16 -2 -2
BITMAP
000000
000000
0001C0
000600
001800
006000
018000
060000
010000
008000
006000
001800
000400
000000
000000
000000
ENDCHAR
STARTCHAR 2164
ENCODING 8548
SWIDTH 960 0
DWIDTH 16 0
BBX 21 16 -2 -2
BITMAP
000000
000000
00C000
002000
001800
000400
000200
000180
000E00
001000
006000
038000
0C0000
000000
000000
000000
ENDCHAR
STARTCHAR 2165
ENCODING 8549
SWIDTH 960 0
DWIDTH 16 0
BBX 21 16 -2 -2
BITMAP
000000
000000
0001E0
000E00
007000
038000
006000
001C00
000380
000000
0FFF00
000000
000000
1FFE00
000000
000000
ENDCHAR
STARTCHAR 2166
ENCODING 8550
SWIDTH 960 0
DWIDTH 16 0
BBX 21 16 -2 -2
BITMAP
000000
000000
01C000
003000
000E00
0003C0
001C00
00E000
070000
000000
0FFF00
000000
000000
1FFE00
000000
000000
ENDCHAR
STARTCHAR 2167
ENCODING 8551
SWIDTH 960 0
DWIDTH 16 0
BBX 21 16 -2 -2
BITMAP
000000
000000
000000
000000
01C180
024A40
044840
083040
087040
089080
099900
060E00
000000
000000
000000
000000
ENDCHAR
STARTCHAR 2168
ENCODING 8552
SWIDTH 960 0
DWIDTH 16 0
BBX 21 16 -2 -2
BITMAP
000000
000000
000000
001800
001800
000000
000000
000000
000000
000000
000000
0C0300
180600
000000
000000
000000
ENDCHAR
STARTCHAR 2169
ENCODING 8553
SWIDTH 960 0
DWIDTH 16 0
BBX 21 16 -2 -2
BITMAP
000000
0007F0
000070
0000A0
000120
000620
000840
03D040
042000
082000
102000
102000
104000
108000
0F0000
000000
ENDCHAR
STARTCHAR 216a
ENCODING 8554
SWIDTH 960 0
DWIDTH 16 0
BBX 21 16 -2 -2
BITMAP
000000
001E00
002100
004100
008100
008100
008200
008400
007800
004000
07FE00
004000
008000
008000
008000
010000
ENDCHAR
STARTCHAR 216b
ENCODING 8555
SWIDTH 960 0
DWIDTH 16 0
BBX 21 16 -2 -2
BITMAP
000000
010000
028000
028000
010000
000000
000000
000000
000000
000000
000000
000000
000000
000000
000000
000000
ENDCHAR
STARTCHAR 216c
ENCODING 8556
SWIDTH 960 0
DWIDTH 16 0
BBX 21 16 -2 -2
BITMAP
000000
004000
00C000
010000
020000
000000
000000
000000
000000
000000
000000
000000
000000
000000
000000
000000
ENDCHAR
STARTCHAR 216d
ENCODING 8557
SWIDTH 960 0
DWIDTH 16 0
BBX 21 16 -2 -2
BITMAP
000000
008800
019800
026000
044000
000000
000000
000000
000000
000000
000000
000000
000000
000000
000000
000000
ENDCHAR
STARTCHAR 216e
ENCODING 8558
SWIDTH 960 0
DWIDTH 16 0
BBX 21 16 -2 -2
BITMAP
000000
010390
028C50
029060
012020
004020
008000
008000
008000
008000
008080
008300
004C00
003000
000000
000000
ENDCHAR
STARTCHAR 216f
ENCODING 8559
SWIDTH 960 0
DWIDTH 16 0
BBX 21 16 -2 -2
BITMAP
000000
00E0E0
004040
004080
004100
03FFE0
004400
002800
001000
0FFF80
002000
002000
004000
004000
00E000
000000
ENDCHAR
STARTCHAR 2170
ENCODING 8560
SWIDTH 960 0
DWIDTH 16 0
BBX 21 16 -2 -2
BITMAP
000000
001400
007E00
00AA00
012900
012900
015000
00F000
005800
00A400
04A200
04A400
054800
03F000
014000
000000
ENDCHAR
STARTCHAR 2171
ENCODING 8561
SWIDTH 960 0
DWIDTH 16 0
BBX 21 16 -2 -2
BITMAP
000000
000000
000000
000000
000000
000600
007800
008C00
011200
021000
022000
024C00
029000
01E000
020000
040000
ENDCHAR
STARTCHAR 2172
ENCODING 8562
SWIDTH 960 0
DWIDTH 16 0
BBX 21 16 -2 -2
BITMAP
000000
000700
000880
001000
001000
001000
002000
002000
07FF00
004000
004000
078000
098100
116200
0E1C00
000000
ENDCHAR
STARTCHAR 2173
ENCODING 8563
SWIDTH 960 0
DWIDTH 16 0
BBX 21 16 -2 -2
BITMAP
000000
018010
034060
044080
044100
044600
058800
031000
006600
008900
011100
061100
082200
102600
201C00
000000
ENDCHAR
STARTCHAR 2174
ENCODING 8564
SWIDTH 960 0
DWIDTH 16 0
BBX 21 16 -2 -2
BITMAP
001080
001080
001080
002100
01FFC0
01FFC0
008400
008400
008400
010800
0FFE00
0FFE00
042000
042000
042000
084000
ENDCHAR
STARTCHAR 2175
ENCODING 8565
SWIDTH 960 0
DWIDTH 16 0
BBX 21 16 -2 -2
BITMAP
000000
007000
008800
010800
010800
00B000
00C200
008200
014400
064400
082800
083000
085000
088900
070600
000000
ENDCHAR
STARTCHAR 2176
ENCODING 8566
SWIDTH 960 0
DWIDTH 16 0
BBX 21 16 -2 -2
BITMAP
000000
000000
000000
001000
001000
019300
01AC00
007000
002000
00E000
035800
064C00
008000
008000
000000
000000
ENDCHAR
STARTCHAR 2177
ENCODING 8567
SWIDTH 960 0
DWIDTH 16 0
BBX 21 16 -2 -2
BITMAP
000000
000000
003E00
00C100
010080
023280
024C80
048880
048900
04BA00
045C00
040300
020C00
01F000
000000
000000
ENDCHAR
STARTCHAR 2178
ENCODING 8568
SWIDTH 960 0
DWIDTH 16 0
BBX 21 16 -2 -2
BITMAP
000C00
001200
002200
006200
003000
003000
005800
008C00
008800
00C800
007000
003000
023000
021000
016000
008000
ENDCHAR
STARTCHAR 2179
ENCODING 8569
SWIDTH 960 0
DWIDTH 16 0
BBX 21 16 -2 -2
BITMAP
000000
000800
000800
001800
002800
004800
0F8F80
040100
020200
020400
020800
04C800
054800
163400
180C00
000000
ENDCHAR
STARTCHAR 217a
ENCODING 8570
SWIDTH 960 0
DWIDTH 16 0
BBX 21 16 -2 -2
BITMAP
000000
000800
000800
003800
003800
007C00
0FFF80
07FF00
03FE00
03F800
03F800
07BC00
0E3800
1C1C00
100400
000000
ENDCHAR
STARTCHAR 217b
ENCODING 8571
SWIDTH 960 0
DWIDTH 16 0
BBX 21 16 -2 -2
BITMAP
000000
001E00
00E100
010080
020040
040040
040040
080040
080080
080080
080100
080200
080400
061800
01E000
000000
ENDCHAR
STARTCHAR 217c
ENCODING 8572
SWIDTH 960 0
DWIDTH 16 0
BBX 21 16 -2 -2
BITMAP
000000
001E00
007F80
01FF80
03FFC0
03FFC0
0FFFC0
0FFFC0
0FFFC0
1FFF80
0FFF00
0FFF00
0FFC00
07F800
01E000
000000
ENDCHAR
STARTCHAR 217d
ENCODING 8573
SWIDTH 960 0
DWIDTH 16 0
BBX 21 16 -2 -2
BITMAP
000000
001E00
00E100
010080
023C40
044240
048240
090240
090280
090480
090900
08F200
080400
061800
01E000
000000
ENDCHAR
STARTCHAR 217e
ENCODING 8574
SWIDTH 960 0
DWIDTH 16 0
BBX 21 16 -2 -2
BITMAP
000C00
001200
006100
008100
010080
060040
080040
100020
100040
100080
080100
040600
040800
021000
016000
008000
ENDCHAR
STARTCHAR 2221
ENCODING 8737
SWIDTH 960 0
DWIDTH 16 0
BBX 21 16 -2 -2
BITMAP
000C00
001E00
003F00
00FF00
01FF80
03FFC0
0FFFC0
1FFFE0
1FFFE0
1FFF80
0FFF00
07FE00
07F800
03F000
01E000
018000
ENDCHAR
STARTCHAR 2222
ENCODING 8738
SWIDTH 960 0
DWIDTH 16 0
BBX 21 16 -2 -2
BITMAP
000000
03FFF0
020010
040020
040020
040020
080040
080040
080040
100080
100080
100080
200100
200100
3FFF00
000000
ENDCHAR
STARTCHAR 2223
ENCODING 8739
SWIDTH 960 0
DWIDTH 16 0
BBX 21 16 -2 -2
BITMAP
000000
03FFF0
03FFF0
07FFE0
07FFE0
07FFE0
0FFFC0
0FFFC0
0FFFC0
1FFF80
1FFF80
1FFF80
3FFF00
3FFF00
3FFF00
000000
ENDCHAR
STARTCHAR 2224
ENCODING 8740
SWIDTH 960 0
DWIDTH 16 0
BBX 21 16 -2 -2
BITMAP
000000
000800
000800
001800
002800
004800
008800
010400
020400
020400
040200
080200
100200
3FFF00
000000
000000
ENDCHAR
STARTCHAR 2225
ENCODING 8741
SWIDTH 960 0
DWIDTH 16 0
BBX 21 16 -2 -2
BITMAP
000000
000800
000800
003800
003800
007C00
00FC00
01FC00
01FE00
07FC00
07FE00
0FFF00
1FFE00
3FFF00
000000
000000
ENDCHAR
STARTCHAR 2226
ENCODING 8742
SWIDTH 960 0
DWIDTH 16 0
BBX 21 16 -2 -2
BITMAP
000000
000000
03FFF0
020040
020080
020100
020100
010200
010400
010800
011000
012000
014000
008000
008000
000000
ENDCHAR
STARTCHAR 2227
ENCODING 8743
SWIDTH 960 0
DWIDTH 16 0
BBX 21 16 -2 -2
BITMAP
000000
000000
03FFF0
03FFC0
03FFC0
01FF80
03FE00
01FE00
01FC00
01F800
01F000
00E000
01C000
008000
008000
000000
ENDCHAR
STARTCHAR 2228
ENCODING 8744
SWIDTH 960 0
DWIDTH 16 0
BBX 21 16 -2 -2
BITMAP
000000
000000
010C60
011880
008100
004600
004800
063180
067180
009000
010800
060400
08C400
10C200
000000
000000
ENDCHAR
STARTCHAR 2229
ENCODING 8745
SWIDTH 960 0
DWIDTH 16 0
BBX 21 16 -2 -2
BITMAP
000000
01FFE0
01FFE0
000000
000000
07FFE0
0FFFC0
003000
003000
006000
006000
006000
00C000
00C000
00C000
000000
ENDCHAR
STARTCHAR 222a
ENCODING 8746
SWIDTH 960 0
DWIDTH 16 0
BBX 21 16 -2 -2
BITMAP
000000
000000
000000
000000
000200
000100
000180
1FFFE0
000380
000400
000800
000000
000000
000000
000000
000000
ENDCHAR
STARTCHAR 222b
ENCODING 8747
SWIDTH 960 0
DWIDTH 16 0
BBX 21 16 -2 -2
BITMAP
000000
000000
000000
000000
004000
018000
060000
1FFFE0
060000
020000
010000
000000
000000
000000
000000
000000
ENDCHAR
STARTCHAR 222c
ENCODING 8748
SWIDTH 960 0
DWIDTH 16 0
BBX 21 16 -2 -2
BITMAP
000800
000800
001C00
003800
005400
009200
002000
002000
002000
004000
004000
004000
008000
008000
008000
010000
ENDCHAR
STARTCHAR 222d
ENCODING 8749
SWIDTH 960 0
DWIDTH 16 0
BBX 21 16 -2 -2
BITMAP
000800
000800
000800
001000
001000
001000
002000
002000
002000
004000
024800
017000
01C000
01C000
008000
010000
ENDCHAR
STARTCHAR 222e
ENCODING 8750
SWIDTH 960 0
DWIDTH 16 0
BBX 21 16 -2 -2
BITMAP
000000
000000
000000
03FFE0
03FFE0
03FFE0
000000
000000
000000
000000
0FFF80
0FFF80
1FFF00
000000
000000
000000
ENDCHAR
STARTCHAR 223a
ENCODING 8762
SWIDTH 960 0
DWIDTH 16 0
BBX 21 16 -2 -2
BITMAP
000000
000000
000000
007F80
008000
010000
020000
03FF00
020000
020000
020000
01FE00
000000
000000
000000
000000
ENDCHAR
STARTCHAR 223b
ENCODING 8763
SWIDTH 960 0
DWIDTH 16 0
BBX 21 16 -2 -2
BITMAP
000000
000000
000000
01FE00
000100
000100
000100
03FF00
000100
000200
000400
07F800
000000
000000
000000
000000
ENDCHAR
STARTCHAR 223c
ENCODING 8764
SWIDTH 960 0
DWIDTH 16 0
BBX 21 16 -2 -2
BITMAP
000000
000000
00FFE0
010000
020000
020000
040000
040000
020000
01FF00
000000
000000
1FFE00
000000
000000
000000
ENDCHAR
STARTCHAR 223d
ENCODING 8765
SWIDTH 960 0
DWIDTH 16 0
BBX 21 16 -2 -2
BITMAP
000000
000000
01FF00
000080
000040
000040
000080
000080
000300
0FFC00
000000
000000
1FFE00
000000
000000
000000
ENDCHAR
STARTCHAR 223e
ENCODING 8766
SWIDTH 960 0
DWIDTH 16 0
BBX 21 16 -2 -2
BITMAP
000000
000000
000000
003FC0
00C000
010000
020000
040000
040000
040000
040000
030000
00FE00
000000
000000
000000
ENDCHAR
STARTCHAR 223f
ENCODING 8767
SWIDTH 960 0
DWIDTH 16 0
BBX 21 16 -2 -2
BITMAP
000000
000000
000000
03FC00
000300
000080
000080
000080
000080
000100
000200
000C00
1FF000
000000
000000
000000
ENDCHAR
STARTCHAR 2240
ENCODING 8768
SWIDTH 960 0
DWIDTH 16 0
BBX 21 16 -2 -2
BITMAP
000000
000000
008040
010080
010080
010080
020100
020100
020200
020200
020400
020800
021000
01E000
000000
000000
ENDCHAR
STARTCHAR 2241
ENCODING 8769
SWIDTH 960 0
DWIDTH 16 0
BBX 21 16 -2 -2
BITMAP
000000
000000
003C00
004200
008100
010100
010100
020100
020100
040200
040200
040200
080400
080400
000000
000000
ENDCHAR
STARTCHAR 224a
ENCODING 8778
SWIDTH 960 0
DWIDTH 16 0
BBX 21 16 -2 -2
BITMAP
000000
000000
000400
000800
001400
002400
002400
004400
008400
010400
020200
040200
040200
080200
000000
000000
ENDCHAR
STARTCHAR 224b
ENCODING 8779
SWIDTH 960 0
DWIDTH 16 0
BBX 21 16 -2 -2
BITMAP
000000
000000
008040
008040
008080
008100
008100
008200
008400
008800
005000
006000
002000
004000
000000
000000
ENDCHAR
STARTCHAR 224c
ENCODING 8780
SWIDTH 960 0
DWIDTH 16 0
BBX 21 16 -2 -2
BITMAP
000000
000000
000000
000000
000000
000000
07FF80
000080
000080
000100
000100
000000
000000
000000
000000
000000
ENDCHAR
STARTCHAR 224d
ENCODING 8781
SWIDTH 960 0
DWIDTH 16 0
BBX 21 16 -2 -2
BITMAP
000000
000000
000000
000100
000080
0FFFC0
000040
000020
0000C0
3FFF00
000200
000400
000000
000000
000000
000000
ENDCHAR
STARTCHAR 224e
ENCODING 8782
SWIDTH 960 0
DWIDTH 16 0
BBX 21 16 -2 -2
BITMAP
000000
000000
000000
008100
010080
07FFC0
080040
100020
0800C0
07FF00
040200
020400
000000
000000
000000
000000
ENDCHAR
STARTCHAR 224f
ENCODING 8783
SWIDTH 960 0
DWIDTH 16 0
BBX 21 16 -2 -2
BITMAP
000000
010010
010020
010020
010040
01FF80
010100
008200
008400
008400
008800
009000
00A000
004000
004000
000000
ENDCHAR
STARTCHAR 2250
ENCODING 8784
SWIDTH 960 0
DWIDTH 16 0
BBX 21 16 -2 -2
BITMAP
000000
000000
00FF80
000100
000100
000100
000200
03FE00
000200
000400
000400
000400
0FF800
000000
000000
000000
ENDCHAR
STARTCHAR 225c
ENCODING 8796
SWIDTH 960 0
DWIDTH 16 0
BBX 21 16 -2 -2
BITMAP
000000
000000
0000C0
000100
000200
000C00
001000
002000
00C000
010000
020000
0C0000
17FE00
000000
000000
000000
ENDCHAR
STARTCHAR 225d
ENCODING 8797
SWIDTH 960 0
DWIDTH 16 0
BBX 21 16 -2 -2
BITMAP
000000
000000
000800
001000
001000
001000
002000
002000
002000
004000
004000
004000
1FFE00
000000
000000
000000
ENDCHAR
STARTCHAR 225e
ENCODING 8798
SWIDTH 960 0
DWIDTH 16 0
BBX 21 16 -2 -2
BITMAP
003F00
01C0E0
020010
000000
000000
000000
000000
000000
000000
000000
000000
000000
000000
000000
000000
000000
ENDCHAR
STARTCHAR 225f
ENCODING 8799
SWIDTH 960 0
DWIDTH 16 0
BBX 21 16 -2 -2
BITMAP
000000
000600
003900
004100
000100
000100
007600
008C00
018C00
021800
061000
063000
02C000
010000
000000
000000
ENDCHAR
STARTCHAR 2260
ENCODING 8800
SWIDTH 960 0
DWIDTH 16 0
BBX 21 16 -2 -2
BITMAP
000000
03FFF0
010040
030040
010080
010100
010100
018200
008400
018800
009000
00E000
00A000
004000
000000
000000
ENDCHAR
STARTCHAR 2261
ENCODING 8801
SWIDTH 960 0
DWIDTH 16 0
BBX 21 16 -2 -2
BITMAP
000000
000000
000000
03FFC0
000000
000000
000000
07FF80
000000
000000
000000
0FFF00
000000
000000
000000
000000
ENDCHAR
STARTCHAR 2262
ENCODING 8802
SWIDTH 960 0
DWIDTH 16 0
BBX 21 16 -2 -2
BITMAP
000000
000000
00C000
018000
000000
03FFC0
000000
000000
000000
0FFF00
000000
000600
000C00
000000
000000
000000
ENDCHAR
STARTCHAR 2263
ENCODING 8803
SWIDTH 960 0
DWIDTH 16 0
BBX 21 16 -2 -2
BITMAP
000000
000440
001880
002200
004400
018800
022000
044000
022000
022000
011000
008800
008800
004400
002200
000000
ENDCHAR
STARTCHAR 2264
ENCODING 8804
SWIDTH 960 0
DWIDTH 16 0
BBX 21 16 -2 -2
BITMAP
000000
008800
004400
004400
002200
001100
001100
000880
003100
004400
008800
031000
044000
088000
110000
000000
ENDCHAR
STARTCHAR 2265
ENCODING 8805
SWIDTH 960 0
DWIDTH 16 0
BBX 21 16 -2 -2
BITMAP
0007F8
000400
000800
000800
001000
002000
002000
004000
004000
088000
088000
0D0000
1A0000
2E0000
080000
080000
ENDCHAR
STARTCHAR 2266
ENCODING 8806
SWIDTH 960 0
DWIDTH 16 0
BBX 21 16 -2 -2
BITMAP
000000
000000
000000
000000
01C380
020C40
041040
081040
082040
084080
088100
070E00
000000
000000
000000
000000
ENDCHAR
STARTCHAR 2267
ENCODING 8807
SWIDTH 960 0
DWIDTH 16 0
BBX 21 16 -2 -2
BITMAP
000000
000000
000000
000000
01C380
022C40
043000
083000
083000
086000
089100
070E00
000000
000000
000000
000000
ENDCHAR
STARTCHAR 2268
ENCODING 8808
SWIDTH 960 0
DWIDTH 16 0
BBX 21 16 -2 -2
BITMAP
000000
000000
000000
0300C0
0300C0
000000
000000
000000
000000
000000
000000
006000
00C000
000000
000000
000000
ENDCHAR
STARTCHAR 2269
ENCODING 8809
SWIDTH 960 0
DWIDTH 16 0
BBX 21 16 -2 -2
BITMAP
000E00
001200
001000
002000
003000
003000
002000
003000
003000
002000
003000
003000
002000
002000
014000
038000
ENDCHAR
STARTCHAR 226a
ENCODING 8810
SWIDTH 960 0
DWIDTH 16 0
BBX 21 16 -2 -2
BITMAP
0071C0
009240
008200
010400
018600
018600
010400
018600
018600
010400
018600
018600
010400
010400
0A2C00
1C7000
ENDCHAR
STARTCHAR 2272
ENCODING 8818
SWIDTH 960 0
DWIDTH 16 0
BBX 21 16 -2 -2
BITMAP
000600
000900
000A00
000C00
000800
000800
001800
002800
004800
008800
00F800
010800
020800
071C00
000000
000000
ENDCHAR
STARTCHAR 2273
ENCODING 8819
SWIDTH 960 0
DWIDTH 16 0
BBX 21 16 -2 -2
BITMAP
000000
000040
00C180
014200
024200
024400
049800
05A000
03C000
016300
01D680
031480
0D2900
116B00
20C600
000000
ENDCHAR
STARTCHAR 2274
ENCODING 8820
SWIDTH 960 0
DWIDTH 16 0
BBX 21 16 -2 -2
BITMAP
000100
002100
002100
0043C0
007FC0
03FE00
078400
008400
008400
010F00
01FF00
0FF800
1E1000
021000
021000
040000
ENDCHAR
STARTCHAR 2275
ENCODING 8821
SWIDTH 960 0
DWIDTH 16 0
BBX 21 16 -2 -2
BITMAP
002000
002000
002000
004000
004000
004000
008000
00BC00
00C600
010C00
010C00
011800
026000
028000
030000
040000
ENDCHAR
STARTCHAR 2276
ENCODING 8822
SWIDTH 960 0
DWIDTH 16 0
BBX 21 16 -2 -2
BITMAP
000400
000400
000600
000E00
000B00
000900
001180
001080
001100
002200
002400
002000
07C000
0FC000
0F8000
0E0000
ENDCHAR
STARTCHAR 2277
ENCODING 8823
SWIDTH 960 0
DWIDTH 16 0
BBX 21 16 -2 -2
BITMAP
000400
000E00
002480
00FF80
004900
000800
007C00
003800
003800
007000
007000
007000
004000
004000
004000
008000
ENDCHAR
STARTCHAR 2278
ENCODING 8824
SWIDTH 960 0
DWIDTH 16 0
BBX 21 16 -2 -2
BITMAP
000800
001C00
004900
01FF00
009200
003800
007000
002000
002000
00E000
00E000
024800
0FF800
049000
01C000
010000
ENDCHAR
STARTCHAR 2279
ENCODING 8825
SWIDTH 960 0
DWIDTH 16 0
BBX 21 16 -2 -2
BITMAP
000000
003F00
007900
01F200
01F200
00F200
00E400
002400
002400
004800
004800
004800
009000
009000
009000
012000
ENDCHAR
STARTCHAR 227e
ENCODING 8830
SWIDTH 960 0
DWIDTH 16 0
BBX 21 16 -2 -2
BITMAP
001E00
006180
018040
020040
040020
080020
080020
100020
100040
100040
100080
100100
100200
080400
061800
01E000
ENDCHAR
STARTCHAR 2330
ENCODING 9008
SWIDTH 960 0
DWIDTH 16 0
BBX 21 16 -2 -2
BITMAP
000000
001E00
002100
004100
008100
010100
020100
020100
020100
040200
040200
040400
040800
021000
01E000
000000
ENDCHAR
STARTCHAR 2331
ENCODING 9009
SWIDTH 960 0
DWIDTH 16 0
BBX 21 16 -2 -2
BITMAP
000000
000400
000400
001800
002800
000800
001000
001000
001000
002000
002000
002000
004000
004000
00E000
000000
ENDCHAR
STARTCHAR 2332
ENCODING 9010
SWIDTH 960 0
DWIDTH 16 0
BBX 21 16 -2 -2
BITMAP
000000
001F00
002080
004080
008080
000100
000200
000400
001800
002000
004000
008000
010000
020000
07FC00
000000
ENDCHAR
STARTCHAR 2333
ENCODING 9011
SWIDTH 960 0
DWIDTH 16 0
BBX 21 16 -2 -2
BITMAP
000000
001E00
00E100
010100
000100
000200
000C00
007C00
000200
000200
000200
000400
080800
063000
01C000
000000
ENDCHAR
STARTCHAR 2334
ENCODING 9012
SWIDTH 960 0
DWIDTH 16 0
BBX 21 16 -2 -2
BITMAP
000000
000100
000100
000600
000A00
003200
004400
008400
010400
020800
07FF00
000800
001000
001000
003800
000000
ENDCHAR
STARTCHAR 2335
ENCODING 9013
SWIDTH 960 0
DWIDTH 16 0
BBX 21 16 -2 -2
BITMAP
000000
007FC0
004000
008000
008000
008000
017C00
018200
010200
000200
000200
000400
000800
063000
01C000
000000
ENDCHAR
STARTCHAR 2336
ENCODING 9014
SWIDTH 960 0
DWIDTH 16 0
BBX 21 16 -2 -2
BITMAP
000000
000700
003800
004000
008000
010000
017800
028400
030200
040200
040200
040400
040800
021000
01E000
000000
ENDCHAR
STARTCHAR 2337
ENCODING 9015
SWIDTH 960 0
DWIDTH 16 0
BBX 21 16 -2 -2
BITMAP
000000
00FFC0
008040
010080
010100
000200
000400
000800
001000
001000
002000
004000
004000
008000
008000
000000
ENDCHAR
STARTCHAR 2338
ENCODING 9016
SWIDTH 960 0
DWIDTH 16 0
BBX 21 16 -2 -2
BITMAP
000000
001E00
006100
008080
010080
010100
008600
007800
018400
020400
040200
040200
0C0C00
061800
01E000
000000
ENDCHAR
STARTCHAR 2339
ENCODING 9017
SWIDTH 960 0
DWIDTH 16 0
BBX 21 16 -2 -2
BITMAP
000000
001E00
006100
008100
010080
010080
010100
010300
008E00
007200
000400
000800
001000
006000
038000
000000
ENDCHAR
STARTCHAR 2341
ENCODING 9025
SWIDTH 960 0
DWIDTH 16 0
BBX 21 16 -2 -2
BITMAP
000000
000400
000400
000C00
001400
002400
004400
008200
017E00
010400
020200
040200
080200
1C0700
000000
000000
ENDCHAR
STARTCHAR 2342
ENCODING 9026
SWIDTH 960 0
DWIDTH 16 0
BBX 21 16 -2 -2
BITMAP
000000
01FF00
004080
008080
008080
008300
01FC00
010200
010100
020100
020100
020600
041800
1FE000
000000
000000
ENDCHAR
STARTCHAR 2343
ENCODING 9027
SWIDTH 960 0
DWIDTH 16 0
BBX 21 16 -2 -2
BITMAP
000000
001E40
006140
008180
010080
020080
040000
040000
040000
040000
040200
040600
061800
01E000
000000
000000
ENDCHAR
STARTCHAR 2344
ENCODING 9028
SWIDTH 960 0
DWIDTH 16 0
BBX 21 16 -2 -2
BITMAP
000000
01FC00
004200
008100
008080
008080
010080
010080
010100
020100
020200
020C00
043000
1FC000
000000
000000
ENDCHAR
STARTCHAR 2345
ENCODING 9029
SWIDTH 960 0
DWIDTH 16 0
BBX 21 16 -2 -2
BITMAP
000000
01FFC0
004040
008040
008000
008000
010800
01F800
010800
020000
020000
020100
040200
1FFC00
000000
000000
ENDCHAR
STARTCHAR 2346
ENCODING 9030
SWIDTH 960 0
DWIDTH 16 0
BBX 21 16 -2 -2
BITMAP
000000
00FFC0
002040
004040
004000
004000
008400
00FC00
008400
010000
010000
010000
020000
0F8000
000000
000000
ENDCHAR
STARTCHAR 2347
ENCODING 9031
SWIDTH 960 0
DWIDTH 16 0
BBX 21 16 -2 -2
BITMAP
000000
001E40
0061C0
008080
010080
020000
040000
040000
0407C0
040200
040200
040E00
063400
01C400
000000
000000
ENDCHAR
STARTCHAR 2348
ENCODING 9032
SWIDTH 960 0
DWIDTH 16 0
BBX 21 16 -2 -2
BITMAP
000000
01C0E0
008040
010080
010080
010080
020100
03FF00
020100
040200
040200
040200
080400
1C0E00
000000
000000
ENDCHAR
STARTCHAR 2349
ENCODING 9033
SWIDTH 960 0
DWIDTH 16 0
BBX 21 16 -2 -2
BITMAP
000000
001C00
000800
001000
001000
001000
002000
002000
002000
004000
004000
004000
008000
01C000
000000
000000
ENDCHAR
STARTCHAR 234a
ENCODING 9034
SWIDTH 960 0
DWIDTH 16 0
BBX 21 16 -2 -2
BITMAP
000000
000380
000100
000200
000200
000200
000400
000400
000400
000800
000800
021000
022000
01C000
000000
000000
ENDCHAR
STARTCHAR 234b
ENCODING 9035
SWIDTH 960 0
DWIDTH 16 0
BBX 21 16 -2 -2
BITMAP
000000
00E0E0
004100
008200
008400
008800
011000
016000
019000
021000
020800
020400
040400
0E0700
000000
000000
ENDCHAR
STARTCHAR 234c
ENCODING 9036
SWIDTH 960 0
DWIDTH 16 0
BBX 21 16 -2 -2
BITMAP
000000
007000
002000
004000
004000
004000
008000
008000
008000
010000
010000
010100
020200
07FE00
000000
000000
ENDCHAR
STARTCHAR 234d
ENCODING 9037
SWIDTH 960 0
DWIDTH 16 0
BBX 21 16 -2 -2
BITMAP
000000
030060
010040
030180
030180
030280
050500
048900
049100
089200
08A200
08C200
104400
388E00
000000
000000
ENDCHAR
STARTCHAR 234e
ENCODING 9038
SWIDTH 960 0
DWIDTH 16 0
BBX 21 16 -2 -2
BITMAP
000000
01C0E0
00C040
014080
014080
012080
022100
022100
021100
041200
041200
040A00
080C00
1C0400
000000
000000
ENDCHAR
STARTCHAR 234f
ENCODING 9039
SWIDTH 960 0
DWIDTH 16 0
BBX 21 16 -2 -2
BITMAP
000000
001E00
006180
008180
010080
020080
040080
040080
040100
040100
040200
040600
061800
01E000
000000
000000
ENDCHAR
STARTCHAR 2350
ENCODING 9040
SWIDTH 960 0
DWIDTH 16 0
BBX 21 16 -2 -2
BITMAP
000000
00FF00
002080
004040
004040
004080
008300
00FC00
008000
010000
010000
010000
020000
070000
000000
000000
ENDCHAR
STARTCHAR 2351
ENCODING 9041
SWIDTH 960 0
DWIDTH 16 0
BBX 21 16 -2 -2
BITMAP
000000
001E00
006180
008180
010080
020080
040080
040080
040080
040100
046200
059400
061000
01E900
000600
000000
ENDCHAR
STARTCHAR 2352
ENCODING 9042
SWIDTH 960 0
DWIDTH 16 0
BBX 21 16 -2 -2
BITMAP
000000
01FE00
004100
008080
008080
008100
010600
01F000
010800
020800
020400
020400
040400
0E0E00
000000
000000
ENDCHAR
STARTCHAR 2353
ENCODING 9043
SWIDTH 960 0
DWIDTH 16 0
BBX 21 16 -2 -2
BITMAP
000000
001E80
002180
004100
008000
008000
008000
007800
000400
000200
040200
060400
0A0800
01F000
000000
000000
ENDCHAR
STARTCHAR 2354
ENCODING 9044
SWIDTH 960 0
DWIDTH 16 0
BBX 21 16 -2 -2
BITMAP
000000
01FFC0
020840
041040
001000
001000
002000
002000
002000
004000
004000
004000
008000
01C000
000000
000000
ENDCHAR
STARTCHAR 2355
ENCODING 9045
SWIDTH 960 0
DWIDTH 16 0
BBX 21 16 -2 -2
BITMAP
000000
01C0E0
008040
010080
010080
010080
020100
020100
020100
040200
040200
020400
021800
01E000
000000
000000
ENDCHAR
STARTCHAR 2356
ENCODING 9046
SWIDTH 960 0
DWIDTH 16 0
BBX 21 16 -2 -2
BITMAP
000000
01C0E0
008080
008080
008100
008200
008200
008400
008800
009000
00A000
00C000
004000
008000
000000
000000
ENDCHAR
STARTCHAR 2357
ENCODING 9047
SWIDTH 960 0
DWIDTH 16 0
BBX 21 16 -2 -2
BITMAP
000000
038C70
010C20
021840
021840
022880
024880
024900
028900
030A00
030A00
030C00
040800
040800
000000
000000
ENDCHAR
STARTCHAR 2358
ENCODING 9048
SWIDTH 960 0
DWIDTH 16 0
BBX 21 16 -2 -2
BITMAP
000000
01C1C0
008180
008200
004400
004800
005000
002000
005000
009000
011000
060800
080800
1C1C00
000000
000000
ENDCHAR
STARTCHAR 2359
ENCODING 9049
SWIDTH 960 0
DWIDTH 16 0
BBX 21 16 -2 -2
BITMAP
000000
01C1C0
008080
008100
008200
008400
008800
005000
006000
004000
004000
004000
008000
01C000
000000
000000
ENDCHAR
STARTCHAR 235a
ENCODING 9050
SWIDTH 960 0
DWIDTH 16 0
BBX 21 16 -2 -2
BITMAP
000000
007FC0
008180
010200
000400
000800
001000
002000
004000
008000
010000
020200
040400
0FFC00
000000
000000
ENDCHAR
STARTCHAR 2361
ENCODING 9057
SWIDTH 960 0
DWIDTH 16 0
BBX 21 16 -2 -2
BITMAP
000000
000000
000000
000000
000000
007800
008400
000400
00E400
011800
020800
023800
024C00
018C00
000000
000000
ENDCHAR
STARTCHAR 2362
ENCODING 9058
SWIDTH 960 0
DWIDTH 16 0
BBX 21 16 -2 -2
BITMAP
000000
006000
002000
004000
004000
004000
00B800
00C400
008400
010400
010400
010800
031000
02E000
000000
000000
ENDCHAR
STARTCHAR 2363
ENCODING 9059
SWIDTH 960 0
DWIDTH 16 0
BBX 21 16 -2 -2
BITMAP
000000
000000
000000
000000
000000
007000
008800
010400
010000
020000
020000
021800
022000
01C000
000000
000000
ENDCHAR
STARTCHAR 2364
ENCODING 9060
SWIDTH 960 0
DWIDTH 16 0
BBX 21 16 -2 -2
BITMAP
000000
000300
000100
000200
000200
000200
007400
008C00
010400
020800
020800
020800
023000
01D800
000000
000000
ENDCHAR
STARTCHAR 2365
ENCODING 9061
SWIDTH 960 0
DWIDTH 16 0
BBX 21 16 -2 -2
BITMAP
000000
000000
000000
000000
000000
007000
008800
010400
010400
03F800
020000
020000
021000
01E000
000000
000000
ENDCHAR
STARTCHAR 2366
ENCODING 9062
SWIDTH 960 0
DWIDTH 16 0
BBX 21 16 -2 -2
BITMAP
000000
000780
000C80
001000
001000
00FF00
002000
002000
002000
004000
004000
004000
008000
01C000
000000
000000
ENDCHAR
STARTCHAR 2367
ENCODING 9063
SWIDTH 960 0
DWIDTH 16 0
BBX 21 16 -2 -2
BITMAP
000000
000000
000000
000000
000000
003B00
004400
008400
008800
00F000
010000
01F800
020400
040400
021C00
01E000
ENDCHAR
STARTCHAR 2368
ENCODING 9064
SWIDTH 960 0
DWIDTH 16 0
BBX 21 16 -2 -2
BITMAP
000000
006000
002000
004000
004000
007800
00C400
008200
008200
010400
010400
010400
020800
071C00
000000
000000
ENDCHAR
STARTCHAR 2369
ENCODING 9065
SWIDTH 960 0
DWIDTH 16 0
BBX 21 16 -2 -2
BITMAP
000000
000C00
000C00
000000
000000
001800
001000
001000
001000
002000
002000
002000
004000
00E000
000000
000000
ENDCHAR
STARTCHAR 236a
ENCODING 9066
SWIDTH 960 0
DWIDTH 16 0
BBX 21 16 -2 -2
BITMAP
000000
000600
000600
000000
000000
000C00
000800
000800
000800
001000
001000
001000
002000
002000
04C000
030000
ENDCHAR
STARTCHAR 236b
ENCODING 9067
SWIDTH 960 0
DWIDTH 16 0
BBX 21 16 -2 -2
BITMAP
000000
00C000
004000
008000
008000
008700
010800
013000
018000
024000
022000
021000
041000
0E3C00
000000
000000
ENDCHAR
STARTCHAR 236c
ENCODING 9068
SWIDTH 960 0
DWIDTH 16 0
BBX 21 16 -2 -2
BITMAP
000000
001800
000800
001000
001000
001000
002000
002000
002000
004000
004000
004000
008000
01C000
000000
000000
ENDCHAR
STARTCHAR 236d
ENCODING 9069
SWIDTH 960 0
DWIDTH 16 0
BBX 21 16 -2 -2
BITMAP
000000
000000
000000
000000
000000
01F200
013900
011100
011100
022200
022200
022200
044400
0EEE00
000000
000000
ENDCHAR
STARTCHAR 236e
ENCODING 9070
SWIDTH 960 0
DWIDTH 16 0
BBX 21 16 -2 -2
BITMAP
000000
000000
000000
000000
000000
00DE00
00A600
00C200
008200
010400
010400
010400
020800
071C00
000000
000000
ENDCHAR
STARTCHAR 236f
ENCODING 9071
SWIDTH 960 0
DWIDTH 16 0
BBX 21 16 -2 -2
BITMAP
000000
000000
000000
000000
000000
007800
008400
010200
010200
020400
020400
020800
021000
01E000
000000
000000
ENDCHAR
STARTCHAR 2370
ENCODING 9072
SWIDTH 960 0
DWIDTH 16 0
BBX 21 16 -2 -2
BITMAP
000000
000000
000000
000000
000000
00F800
00C400
008200
008200
010400
010400
019800
026000
020000
020000
0E0000
ENDCHAR
STARTCHAR 2371
ENCODING 9073
SWIDTH 960 0
DWIDTH 16 0
BBX 21 16 -2 -2
BITMAP
000000
000000
000000
000000
000000
007300
008C00
010400
010400
020800
020800
013800
00D000
001000
001000
007000
ENDCHAR
STARTCHAR 2372
ENCODING 9074
SWIDTH 960 0
DWIDTH 16 0
BBX 21 16 -2 -2
BITMAP
000000
000000
000000
000000
000000
006F00
005200
006000
004000
008000
008000
008000
010000
038000
000000
000000
ENDCHAR
STARTCHAR 2373
ENCODING 9075
SWIDTH 960 0
DWIDTH 16 0
BBX 21 16 -2 -2
BITMAP
000000
000000
000000
000000
000000
003900
004600
008200
006000
001000
000800
010800
030800
02F000
000000
000000
ENDCHAR
STARTCHAR 2374
ENCODING 9076
SWIDTH 960 0
DWIDTH 16 0
BBX 21 16 -2 -2
BITMAP
000000
000000
001000
002000
002000
01FE00
004000
004000
004000
008000
008000
008000
01A000
00E000
000000
000000
ENDCHAR
STARTCHAR 2375
ENCODING 9077
SWIDTH 960 0
DWIDTH 16 0
BBX 21 16 -2 -2
BITMAP
000000
000000
000000
000000
000000
00C300
008200
008200
008200
010400
010400
010400
011800
00EC00
000000
000000
ENDCHAR
STARTCHAR 2376
ENCODING 9078
SWIDTH 960 0
DWIDTH 16 0
BBX 21 16 -2 -2
BITMAP
000000
000000
000000
000000
000000
01C700
010400
010400
010800
011000
00A000
00C000
004000
008000
000000
000000
ENDCHAR
STARTCHAR 2377
ENCODING 9079
SWIDTH 960 0
DWIDTH 16 0
BBX 21 16 -2 -2
BITMAP
000000
000000
000000
000000
000000
0391C0
022100
023100
023200
025200
029400
031800
011000
021000
000000
000000
ENDCHAR
STARTCHAR 2378
ENCODING 9080
SWIDTH 960 0
DWIDTH 16 0
BBX 21 16 -2 -2
BITMAP
000000
000000
000000
000000
000000
00C300
008400
004800
005000
006000
009000
030800
040800
0E1C00
000000
000000
ENDCHAR
STARTCHAR 2379
ENCODING 9081
SWIDTH 960 0
DWIDTH 16 0
BBX 21 16 -2 -2
BITMAP
000000
000000
000000
000000
000000
00E380
008200
008200
008400
008800
005000
006000
002000
004000
058000
020000
ENDCHAR
STARTCHAR 237a
ENCODING 9082
SWIDTH 960 0
DWIDTH 16 0
BBX 21 16 -2 -2
BITMAP
000000
000000
000000
000000
000000
00FF00
010400
000800
001000
002000
004000
018400
020800
07F800
000000
000000
ENDCHAR
STARTCHAR 2421
ENCODING 9249
SWIDTH 960 0
DWIDTH 16 0
BBX 21 16 -2 -2
BITMAP
000000
000000
000000
002000
002C00
00F000
004800
007C00
004A00
019200
02A200
04C400
070800
049000
002000
000000
ENDCHAR
STARTCHAR 2422
ENCODING 9250
SWIDTH 960 0
DWIDTH 16 0
BBX 21 16 -2 -2
BITMAP
001000
000800
008F00
007800
002000
004400
007E00
008900
039080
052080
094080
098100
0A8200
0C0C00
003000
000000
ENDCHAR
STARTCHAR 2423
ENCODING 9251
SWIDTH 960 0
DWIDTH 16 0
BBX 21 16 -2 -2
BITMAP
000000
000000
000000
000000
000000
000000
010000
008000
010200
010200
020100
020300
028200
030000
010000
000000
ENDCHAR
STARTCHAR 2424
ENCODING 9252
SWIDTH 960 0
DWIDTH 16 0
BBX 21 16 -2 -2
BITMAP
000000
000000
000000
010000
008100
010080
010080
020080
020080
044080
048180
030080
010000
020000
000000
000000
ENDCHAR
STARTCHAR 2425
ENCODING 9253
SWIDTH 960 0
DWIDTH 16 0
BBX 21 16 -2 -2
BITMAP
000000
000000
000000
001000
000C00
000000
000000
009800
006400
000400
000400
000800
001000
002000
004000
000000
ENDCHAR
STARTCHAR 2426
ENCODING 9254
SWIDTH 960 0
DWIDTH 16 0
BBX 21 16 -2 -2
BITMAP
000800
000700
000000
000000
008E00
007100
000100
000100
000200
000200
000400
000800
001000
002000
00C000
010000
ENDCHAR
STARTCHAR 2427
ENCODING 9255
SWIDTH 960 0
DWIDTH 16 0
BBX 21 16 -2 -2
BITMAP
000000
000000
000000
000000
002000
001800
000000
000000
017C00
009000
002000
00C000
034000
044000
084000
003800
ENDCHAR
STARTCHAR 2428
ENCODING 9256
SWIDTH 960 0
DWIDTH 16 0
BBX 21 16 -2 -2
BITMAP
001000
000800
000600
000000
008F00
007600
000800
001000
006000
00A000
011000
061000
081000
101000
000E00
000000
ENDCHAR
STARTCHAR 2429
ENCODING 9257
SWIDTH 960 0
DWIDTH 16 0
BBX 21 16 -2 -2
BITMAP
000000
000000
000000
000000
002000
002000
015A00
00E180
004000
00B800
00C400
038400
0D2400
031800
010000
000000
ENDCHAR
STARTCHAR 242a
ENCODING 9258
SWIDTH 960 0
DWIDTH 16 0
BBX 21 16 -2 -2
BITMAP
004000
002000
002080
004840
007020
03C070
008000
009E00
00E100
010100
030100
190200
1A2400
061800
020000
000000
ENDCHAR
STARTCHAR 242b
ENCODING 9259
SWIDTH 960 0
DWIDTH 16 0
BBX 21 16 -2 -2
BITMAP
000000
004000
004000
004100
004080
027080
018880
008840
0108C0
011080
021000
042000
0A2000
114000
008000
000000
ENDCHAR
STARTCHAR 242c
ENCODING 9260
SWIDTH 960 0
DWIDTH 16 0
BBX 21 16 -2 -2
BITMAP
000000
004010
004028
004150
004080
027080
018880
008840
0108C0
011080
021000
042000
0A2000
114000
008000
000000
ENDCHAR
STARTCHAR 242d
ENCODING 9261
SWIDTH 960 0
DWIDTH 16 0
BBX 21 16 -2 -2
BITMAP
000800
000440
000780
007C00
000440
000F80
01F400
000200
000600
00FA00
010600
020000
020000
010000
00F000
000000
ENDCHAR
STARTCHAR 242e
ENCODING 9262
SWIDTH 960 0
DWIDTH 16 0
BBX 21 16 -2 -2
BITMAP
000820
000890
000F50
01F800
000880
001F00
07E800
000400
000C00
01F400
020C00
040000
040000
020000
01E000
000000
ENDCHAR
STARTCHAR 242f
ENCODING 9263
SWIDTH 960 0
DWIDTH 16 0
BBX 21 16 -2 -2
BITMAP
000100
000100
000200
000400
000800
003000
004000
008000
004000
004000
002000
002000
002000
001000
001000
000000
ENDCHAR
STARTCHAR 2430
ENCODING 9264
SWIDTH 960 0
DWIDTH 16 0
BBX 21 16 -2 -2
BITMAP
000100
000100
000220
000520
0008A0
003080
004000
008000
004000
004000
002000
002000
002000
001000
001000
000000
ENDCHAR
STARTCHAR 2431
ENCODING 9265
SWIDTH 960 0
DWIDTH 16 0
BBX 21 16 -2 -2
BITMAP
000100
010100
010080
010100
0101E0
023F00
040200
040200
040200
080400
0A0400
0C0800
080800
001000
006000
008000
ENDCHAR
STARTCHAR 2432
ENCODING 9266
SWIDTH 960 0
DWIDTH 16 0
BBX 21 16 -2 -2
BITMAP
000110
010148
0101A8
010140
0101E0
023F00
040200
040200
040200
080400
0A0400
0C0800
080800
001000
006000
008000
ENDCHAR
STARTCHAR 2433
ENCODING 9267
SWIDTH 960 0
DWIDTH 16 0
BBX 21 16 -2 -2
BITMAP
000000
000000
002000
001F80
000200
000400
000000
000000
000000
040000
040000
040000
040200
03FC00
000000
000000
ENDCHAR
STARTCHAR 2434
ENCODING 9268
SWIDTH 960 0
DWIDTH 16 0
BBX 21 16 -2 -2
BITMAP
000020
000090
002050
001F80
000200
000400
000000
000000
000000
040000
040000
040000
040200
03FC00
000000
000000
ENDCHAR
STARTCHAR 2435
ENCODING 9269
SWIDTH 960 0
DWIDTH 16 0
BBX 21 16 -2 -2
BITMAP
000800
000400
0004E0
008700
007A00
000200
000200
000200
00F900
010600
020000
020000
020000
018000
007800
000000
ENDCHAR
STARTCHAR 2436
ENCODING 9270
SWIDTH 960 0
DWIDTH 16 0
BBX 21 16 -2 -2
BITMAP
000800
000410
0004C8
008750
007A40
000200
000200
000200
00F900
010600
020000
020000
020000
018000
007800
000000
ENDCHAR
STARTCHAR 2437
ENCODING 9271
SWIDTH 960 0
DWIDTH 16 0
BBX 21 16 -2 -2
BITMAP
000000
008000
008000
008000
008000
008000
010000
010000
010000
020000
020000
020600
020800
023000
01C000
000000
ENDCHAR
STARTCHAR 2438
ENCODING 9272
SWIDTH 960 0
DWIDTH 16 0
BBX 21 16 -2 -2
BITMAP
000000
008000
008080
008480
008280
008200
010000
010000
010000
020000
020000
020600
020800
023000
01C000
000000
ENDCHAR
STARTCHAR 2439
ENCODING 9273
SWIDTH 960 0
DWIDTH 16 0
BBX 21 16 -2 -2
BITMAP
000400
000200
0103F0
00FC00
000400
000400
007800
00C800
008400
009800
006800
001000
001000
002000
00C000
010000
ENDCHAR
STARTCHAR 243a
ENCODING 9274
SWIDTH 960 0
DWIDTH 16 0
BBX 21 16 -2 -2
BITMAP
000810
000408
0207E8
01F840
000800
000800
00F000
019000
010800
013000
00D000
002000
002000
004000
018000
020000
ENDCHAR
STARTCHAR 243b
ENCODING 9275
SWIDTH 960 0
DWIDTH 16 0
BBX 21 16 -2 -2
BITMAP
000000
000200
004200
004200
0043E0
047E00
03C400
008400
008400
011800
010800
010000
010000
00FC00
000000
000000
ENDCHAR
STARTCHAR 243c
ENCODING 9276
SWIDTH 960 0
DWIDTH 16 0
BBX 21 16 -2 -2
BITMAP
000010
000248
004228
004240
0043E0
047E00
03C400
008400
008400
011800
010800
010000
010000
00FC00
000000
000000
ENDCHAR
STARTCHAR 243d
ENCODING 9277
SWIDTH 960 0
DWIDTH 16 0
BBX 21 16 -2 -2
BITMAP
000000
002700
001A00
000400
000800
003000
004780
00F800
073000
004000
008000
008000
008000
008000
007000
000000
ENDCHAR
STARTCHAR 243e
ENCODING 9278
SWIDTH 960 0
DWIDTH 16 0
BBX 21 16 -2 -2
BITMAP
000020
002790
001B90
000480
000800
003000
004780
00F800
073000
004000
008000
008000
008000
008000
007000
000000
ENDCHAR
STARTCHAR 243f
ENCODING 9279
SWIDTH 960 0
DWIDTH 16 0
BBX 21 16 -2 -2
BITMAP
004000
002000
002600
005800
006000
03C000
010700
011980
020200
020000
040000
084000
084000
104000
103E00
000000
ENDCHAR
STARTCHAR 2440
ENCODING 9280
SWIDTH 960 0
DWIDTH 16 0
BBX 21 16 -2 -2
BITMAP
004020
002090
002690
005880
006000
03C000
010700
011980
020200
020000
040000
084000
084000
104000
103E00
000000
ENDCHAR
STARTCHAR 2441
ENCODING 9281
SWIDTH 960 0
DWIDTH 16 0
BBX 21 16 -2 -2
BITMAP
002000
001000
001380
023C00
01E000
002000
004000
009E00
00E100
010100
020100
000200
000400
001800
01E000
000000
ENDCHAR
STARTCHAR 2442
ENCODING 9282
SWIDTH 960 0
DWIDTH 16 0
BBX 21 16 -2 -2
BITMAP
002020
001090
001390
023C80
01E000
002000
004000
009E00
00E100
010100
020100
000200
000400
001800
01E000
000000
ENDCHAR
STARTCHAR 2443
ENCODING 9283
SWIDTH 960 0
DWIDTH 16 0
BBX 21 16 -2 -2
BITMAP
000000
000000
000000
000000
000000
000000
000000
000000
007C00
038200
000200
000400
000800
003000
00C000
000000
ENDCHAR
STARTCHAR 2444
ENCODING 9284
SWIDTH 960 0
DWIDTH 16 0
BBX 21 16 -2 -2
BITMAP
000000
000000
000000
000700
003880
05C040
020040
000040
000080
000100
000200
000C00
00F000
000000
000000
000000
ENDCHAR
STARTCHAR 2445
ENCODING 9285
SWIDTH 960 0
DWIDTH 16 0
BBX 21 16 -2 -2
BITMAP
000010
000048
000048
000740
003880
05C040
020040
000040
000080
000100
000200
000C00
00F000
000000
000000
000000
ENDCHAR
STARTCHAR 2446
ENCODING 9286
SWIDTH 960 0
DWIDTH 16 0
BBX 21 16 -2 -2
BITMAP
000000
0000F0
023F80
01C200
000400
000800
001000
002000
002000
004000
004000
002000
002000
001C00
000000
000000
ENDCHAR
STARTCHAR 2447
ENCODING 9287
SWIDTH 960 0
DWIDTH 16 0
BBX 21 16 -2 -2
BITMAP
000000
000070
023F80
01C220
000490
000890
001080
002000
002000
004000
004000
002000
002000
001C00
000000
000000
ENDCHAR
STARTCHAR 2448
ENCODING 9288
SWIDTH 960 0
DWIDTH 16 0
BBX 21 16 -2 -2
BITMAP
000000
002000
002000
002000
002080
0021C0
002600
002800
007000
008000
010000
020000
020000
020000
01FE00
000000
ENDCHAR
STARTCHAR 2449
ENCODING 9289
SWIDTH 960 0
DWIDTH 16 0
BBX 21 16 -2 -2
BITMAP
000000
004020
004090
0040A0
004080
004380
004C00
005000
00E000
010000
020000
040000
040000
040000
03FC00
000000
ENDCHAR
STARTCHAR 244a
ENCODING 9290
SWIDTH 960 0
DWIDTH 16 0
BBX 21 16 -2 -2
BITMAP
002000
001200
001C00
03E100
0040C0
008120
008200
010400
020400
040800
080800
00F800
011C00
021200
01E000
000000
ENDCHAR
STARTCHAR 244b
ENCODING 9291
SWIDTH 960 0
DWIDTH 16 0
BBX 21 16 -2 -2
BITMAP
000000
010000
010000
010780
0118C0
020100
020000
040000
040000
080000
084000
084000
144000
183E00
080000
000000
ENDCHAR
STARTCHAR 244c
ENCODING 9292
SWIDTH 960 0
DWIDTH 16 0
BBX 21 16 -2 -2
BITMAP
000000
000800
000800
010800
013F00
01D080
031080
022040
064040
0A8080
110080
170D00
191600
112500
001800
000000
ENDCHAR
STARTCHAR 244d
ENCODING 9293
SWIDTH 960 0
DWIDTH 16 0
BBX 21 16 -2 -2
BITMAP
008000
004000
004000
00A700
04C880
03F080
014080
018080
010080
060100
060F00
0A1100
341300
0C0C00
040000
000000
ENDCHAR
STARTCHAR 244e
ENCODING 9294
SWIDTH 960 0
DWIDTH 16 0
BBX 21 16 -2 -2
BITMAP
000000
000000
001E00
006900
008880
011080
021080
042040
044080
048080
050100
060600
000800
003000
000000
000000
ENDCHAR
STARTCHAR 244f
ENCODING 9295
SWIDTH 960 0
DWIDTH 16 0
BBX 21 16 -2 -2
BITMAP
000100
010080
010080
010100
0121E0
021F00
020200
040200
040200
080400
080400
0E7C00
188E00
090900
08F000
000000
ENDCHAR
STARTCHAR 2450
ENCODING 9296
SWIDTH 960 0
DWIDTH 16 0
BBX 21 16 -2 -2
BITMAP
000110
0100C8
0100A8
010140
0121E0
021F00
020200
040200
040200
080400
080400
0E7C00
188E00
090900
08F000
000000
ENDCHAR
STARTCHAR 2451
ENCODING 9297
SWIDTH 960 0
DWIDTH 16 0
BBX 21 16 -2 -2
BITMAP
000100
0100A0
0100D0
010190
0121E0
021F00
020200
040200
040200
080400
080400
0E7C00
188E00
090900
08F000
000000
ENDCHAR
STARTCHAR 2452
ENCODING 9298
SWIDTH 960 0
DWIDTH 16 0
BBX 21 16 -2 -2
BITMAP
000000
000100
001100
00E300
074100
010100
010300
020280
040240
040400
080400
080800
081000
046000
038000
000000
ENDCHAR
STARTCHAR 2453
ENCODING 9299
SWIDTH 960 0
DWIDTH 16 0
BBX 21 16 -2 -2
BITMAP
000010
000148
001148
00E340
074100
010100
010300
020280
040240
040400
080400
080800
081000
046000
038000
000000
ENDCHAR
STARTCHAR 2454
ENCODING 9300
SWIDTH 960 0
DWIDTH 16 0
BBX 21 16 -2 -2
BITMAP
000000
000120
001150
00E350
074120
010100
010300
020280
040240
040400
080400
080800
081000
046000
038000
000000
ENDCHAR
STARTCHAR 2455
ENCODING 9301
SWIDTH 960 0
DWIDTH 16 0
BBX 21 16 -2 -2
BITMAP
000000
001000
000E00
000400
000800
001000
001000
001000
001200
011100
120880
1C09C0
121000
012000
00C000
000000
ENDCHAR
STARTCHAR 2456
ENCODING 9302
SWIDTH 960 0
DWIDTH 16 0
BBX 21 16 -2 -2
BITMAP
000020
001090
000E90
000480
000800
001000
001000
001000
001200
011100
120880
1C09C0
121000
012000
00C000
000000
ENDCHAR
STARTCHAR 2457
ENCODING 9303
SWIDTH 960 0
DWIDTH 16 0
BBX 21 16 -2 -2
BITMAP
000000
001040
000EA0
0004A0
000840
001000
001000
001000
001200
011100
120880
1C09C0
121000
012000
00C000
000000
ENDCHAR
STARTCHAR 2458
ENCODING 9304
SWIDTH 960 0
DWIDTH 16 0
BBX 21 16 -2 -2
BITMAP
000000
000000
000000
000000
003000
004800
008800
010400
0A0200
0C0100
0000C0
000000
000000
000000
000000
000000
ENDCHAR
STARTCHAR 2459
ENCODING 9305
SWIDTH 960 0
DWIDTH 16 0
BBX 21 16 -2 -2
BITMAP
000000
000040
000140
000140
003100
004800
008800
010400
0A0200
0C0100
0000C0
000000
000000
000000
000000
000000
ENDCHAR
STARTCHAR 245a
ENCODING 9306
SWIDTH 960 0
DWIDTH 16 0
BBX 21 16 -2 -2
BITMAP
000000
000000
0000C0
000140
003240
004980
008800
010400
0A0200
0C0100
0000C0
000000
000000
000000
000000
000000
ENDCHAR
STARTCHAR 245b
ENCODING 9307
SWIDTH 960 0
DWIDTH 16 0
BBX 21 16 -2 -2
BITMAP
000000
010860
010780
010100
010100
0201E0
027E00
040200
040200
080400
080400
0E7C00
188E00
090900
08F000
000000
ENDCHAR
STARTCHAR 245c
ENCODING 9308
SWIDTH 960 0
DWIDTH 16 0
BBX 21 16 -2 -2
BITMAP
000010
010868
0107A8
010100
010100
0201E0
027E00
040200
040200
080400
080400
0E7C00
188E00
090900
08F000
000000
ENDCHAR
STARTCHAR 245d
ENCODING 9309
SWIDTH 960 0
DWIDTH 16 0
BBX 21 16 -2 -2
BITMAP
000030
010848
0107D0
010160
010100
0201E0
027E00
040200
040200
080400
080400
0E7C00
188E00
090900
08F000
000000
ENDCHAR
STARTCHAR 245e
ENCODING 9310
SWIDTH 960 0
DWIDTH 16 0
BBX 21 16 -2 -2
BITMAP
000400
000200
0083C0
007C00
000400
000400
020E00
01F800
000800
001000
01F000
021C00
042200
0C2000
03C000
000000
ENDCHAR
STARTCHAR 245f
ENCODING 9311
SWIDTH 960 0
DWIDTH 16 0
BBX 21 16 -2 -2
BITMAP
000000
000000
004400
003800
001000
001100
002100
00F900
078700
088300
110480
120C00
141000
082000
004000
000000
ENDCHAR
STARTCHAR 2460
ENCODING 9312
SWIDTH 960 0
DWIDTH 16 0
BBX 21 16 -2 -2
BITMAP
004000
002000
013C00
00C180
004040
004060
038000
048000
050200
090200
0A0200
060200
040400
040800
03F000
000000
ENDCHAR
STARTCHAR 2461
ENCODING 9313
SWIDTH 960 0
DWIDTH 16 0
BBX 21 16 -2 -2
BITMAP
000000
000400
000400
010400
011E00
01E900
031080
031080
054080
094080
108080
138100
148200
080400
001800
000000
ENDCHAR
STARTCHAR 2462
ENCODING 9314
SWIDTH 960 0
DWIDTH 16 0
BBX 21 16 -2 -2
BITMAP
001000
000800
004800
003000
001C00
01A000
064000
034200
01F200
010200
010200
010400
010800
011000
00E000
000000
ENDCHAR
STARTCHAR 2463
ENCODING 9315
SWIDTH 960 0
DWIDTH 16 0
BBX 21 16 -2 -2
BITMAP
000000
000000
000000
000000
000800
004600
008000
009C00
006200
0B8200
048400
009800
008000
008000
008000
000000
ENDCHAR
STARTCHAR 2464
ENCODING 9316
SWIDTH 960 0
DWIDTH 16 0
BBX 21 16 -2 -2
BITMAP
000000
000400
000300
00C300
008000
008780
00B840
09C040
064080
004100
004E00
004000
004000
004000
004000
008000
ENDCHAR
STARTCHAR 2465
ENCODING 9317
SWIDTH 960 0
DWIDTH 16 0
BBX 21 16 -2 -2
BITMAP
000000
000000
000000
000000
001000
000800
043C00
025200
039200
062200
062400
04A800
08F000
004000
018000
020000
ENDCHAR
STARTCHAR 2466
ENCODING 9318
SWIDTH 960 0
DWIDTH 16 0
BBX 21 16 -2 -2
BITMAP
000000
000C00
000200
040F00
021480
026440
048840
050840
060880
0C9100
085200
083C00
002000
004000
008000
000000
ENDCHAR
STARTCHAR 2467
ENCODING 9319
SWIDTH 960 0
DWIDTH 16 0
BBX 21 16 -2 -2
BITMAP
000000
000000
000000
000000
002000
002000
002400
003800
002000
004000
004000
03C000
04E000
089800
070000
000000
ENDCHAR
STARTCHAR 2468
ENCODING 9320
SWIDTH 960 0
DWIDTH 16 0
BBX 21 16 -2 -2
BITMAP
000800
000400
000400
0008C0
000F00
000800
001000
001000
001000
002000
07E000
083800
104400
108200
0F0000
000000
ENDCHAR
STARTCHAR 2469
ENCODING 9321
SWIDTH 960 0
DWIDTH 16 0
BBX 21 16 -2 -2
BITMAP
000800
000400
000F00
001000
004000
008000
010000
011E00
01E100
030100
020100
020200
000C00
003000
01C000
000000
ENDCHAR
STARTCHAR 246a
ENCODING 9322
SWIDTH 960 0
DWIDTH 16 0
BBX 21 16 -2 -2
BITMAP
008000
004E00
005100
00A100
00C100
00C100
010200
010200
010400
020400
000800
001000
002000
004000
018000
020000
ENDCHAR
STARTCHAR 246b
ENCODING 9323
SWIDTH 960 0
DWIDTH 16 0
BBX 21 16 -2 -2
BITMAP
000000
002700
001A00
000400
000800
001000
007C00
00C200
030100
040100
000100
00C200
014400
023800
01E000
000000
ENDCHAR
STARTCHAR 246c
ENCODING 9324
SWIDTH 960 0
DWIDTH 16 0
BBX 21 16 -2 -2
BITMAP
004000
002000
002000
004600
004900
05D100
02C200
008200
008200
030400
030400
0504C0
1A0500
260200
020000
000000
ENDCHAR
STARTCHAR 246d
ENCODING 9325
SWIDTH 960 0
DWIDTH 16 0
BBX 21 16 -2 -2
BITMAP
000000
002700
001A00
000400
000800
001000
007E00
00C100
030100
040100
000100
000200
000C00
003000
01C000
000000
ENDCHAR
STARTCHAR 246e
ENCODING 9326
SWIDTH 960 0
DWIDTH 16 0
BBX 21 16 -2 -2
BITMAP
000000
000000
000000
000000
008000
008000
008000
00DC00
03E200
018200
010200
070400
0A0800
023000
020000
040000
ENDCHAR
STARTCHAR 246f
ENCODING 9327
SWIDTH 960 0
DWIDTH 16 0
BBX 21 16 -2 -2
BITMAP
008000
004000
004000
00A000
04C000
039E00
016100
018080
010080
060080
060100
0A0200
340C00
0C3000
040000
000000
ENDCHAR
STARTCHAR 2470
ENCODING 9328
SWIDTH 960 0
DWIDTH 16 0
BBX 21 16 -2 -2
BITMAP
000000
004200
003E00
000800
000800
001E00
00E100
012080
064080
084080
108080
131900
142600
084500
003800
000000
ENDCHAR
STARTCHAR 2471
ENCODING 9329
SWIDTH 960 0
DWIDTH 16 0
BBX 21 16 -2 -2
BITMAP
000000
004F00
002C00
001000
003C00
00C200
010200
024200
00AC00
00B000
00E000
030000
053800
18C400
200E00
000000
ENDCHAR
STARTCHAR 2472
ENCODING 9330
SWIDTH 960 0
DWIDTH 16 0
BBX 21 16 -2 -2
BITMAP
001000
000800
008F00
007000
002080
0020E0
00F300
010C00
061800
085000
009000
011000
010000
010000
00FC00
000000
ENDCHAR
STARTCHAR 2473
ENCODING 9331
SWIDTH 960 0
DWIDTH 16 0
BBX 21 16 -2 -2
BITMAP
000800
000400
000800
000800
001000
002000
002000
00B000
00D000
011000
021000
0410C0
081100
101200
100C00
000000
ENDCHAR
STARTCHAR 2521
ENCODING 9505
SWIDTH 960 0
DWIDTH 16 0
BBX 21 16 -2 -2
BITMAP
000000
000000
000000
000000
000000
000000
021E00
01E400
000800
007000
004000
004000
008000
010000
020000
000000
ENDCHAR
STARTCHAR 2522
ENCODING 9506
SWIDTH 960 0
DWIDTH 16 0
BBX 21 16 -2 -2
BITMAP
000000
000000
0107E0
00F840
000080
002300
002400
003800
002000
004000
004000
008000
010000
020000
040000
000000
ENDCHAR
STARTCHAR 2523
ENCODING 9507
SWIDTH 960 0
DWIDTH 16 0
BBX 21 16 -2 -2
BITMAP
000000
000000
000000
000000
000100
000200
000400
000800
003000
00D000
031000
001000
002000
002000
002000
000000
ENDCHAR
STARTCHAR 2524
ENCODING 9508
SWIDTH 960 0
DWIDTH 16 0
BBX 21 16 -2 -2
BITMAP
000000
000080
000100
000200
000400
001000
003800
004800
018800
0E1000
001000
001000
002000
002000
002000
000000
ENDCHAR
STARTCHAR 2525
ENCODING 9509
SWIDTH 960 0
DWIDTH 16 0
BBX 21 16 -2 -2
BITMAP
000000
000000
000000
000000
000800
000800
001000
011F00
01F200
010200
010400
010800
001000
002000
004000
000000
ENDCHAR
STARTCHAR 2526
ENCODING 9510
SWIDTH 960 0
DWIDTH 16 0
BBX 21 16 -2 -2
BITMAP
000000
000800
000800
000800
010FC0
01F080
010080
010100
010200
020200
000400
001800
002000
004000
008000
000000
ENDCHAR
STARTCHAR 2527
ENCODING 9511
SWIDTH 960 0
DWIDTH 16 0
BBX 21 16 -2 -2
BITMAP
000000
000000
000000
000000
000000
000000
000000
000000
003C00
03C000
004000
004000
008000
01F000
0E0800
000000
ENDCHAR
STARTCHAR 2528
ENCODING 9512
SWIDTH 960 0
DWIDTH 16 0
BBX 21 16 -2 -2
BITMAP
000000
000000
000000
000380
01FC00
001000
001000
001000
001000
002000
002000
01FE00
3E0100
000000
000000
000000
ENDCHAR
STARTCHAR 2529
ENCODING 9513
SWIDTH 960 0
DWIDTH 16 0
BBX 21 16 -2 -2
BITMAP
000000
000000
000000
000000
000000
000400
000800
010F00
00F800
003000
005000
019000
022000
042000
006000
004000
ENDCHAR
STARTCHAR 252a
ENCODING 9514
SWIDTH 960 0
DWIDTH 16 0
BBX 21 16 -2 -2
BITMAP
000000
000100
000100
0103E0
00FE00
000200
000C00
000C00
001400
006800
008800
030800
0C1000
003000
001000
000000
ENDCHAR
STARTCHAR 252b
ENCODING 9515
SWIDTH 960 0
DWIDTH 16 0
BBX 21 16 -2 -2
BITMAP
000000
000800
000800
000800
010FC0
00F840
001080
002080
004080
004100
008200
030400
042400
081800
101000
000000
ENDCHAR
STARTCHAR 252c
ENCODING 9516
SWIDTH 960 0
DWIDTH 16 0
BBX 21 16 -2 -2
BITMAP
000010
000848
000828
000840
010FC0
00F840
001080
002080
004080
004100
008200
030400
042400
081800
101000
000000
ENDCHAR
STARTCHAR 252d
ENCODING 9517
SWIDTH 960 0
DWIDTH 16 0
BBX 21 16 -2 -2
BITMAP
000000
001000
001000
001180
001E00
01F000
001000
0011C0
003E00
00D000
0F1000
001000
001000
001000
001000
000000
ENDCHAR
STARTCHAR 252e
ENCODING 9518
SWIDTH 960 0
DWIDTH 16 0
BBX 21 16 -2 -2
BITMAP
000000
001020
001090
0011A0
001E80
01F000
001000
0011C0
003E00
00D000
0F1000
001000
001000
001000
001000
000000
ENDCHAR
STARTCHAR 252f
ENCODING 9519
SWIDTH 960 0
DWIDTH 16 0
BBX 21 16 -2 -2
BITMAP
000000
001000
0011C0
001E80
001080
002100
004100
008200
030400
040800
001000
006000
008000
010000
020000
000000
ENDCHAR
STARTCHAR 2530
ENCODING 9520
SWIDTH 960 0
DWIDTH 16 0
BBX 21 16 -2 -2
BITMAP
000010
002048
0023A8
003D40
002100
004200
008200
010400
060800
081000
002000
00C000
010000
020000
040000
000000
ENDCHAR
STARTCHAR 2531
ENCODING 9521
SWIDTH 960 0
DWIDTH 16 0
BBX 21 16 -2 -2
BITMAP
000000
004000
004000
0041E0
007E00
008400
008400
010400
060800
080800
001000
006000
008000
010000
020000
000000
ENDCHAR
STARTCHAR 2532
ENCODING 9522
SWIDTH 960 0
DWIDTH 16 0
BBX 21 16 -2 -2
BITMAP
000010
004048
004028
0041C0
007E00
008400
008400
010400
060800
080800
001000
006000
008000
010000
020000
000000
ENDCHAR
STARTCHAR 2533
ENCODING 9523
SWIDTH 960 0
DWIDTH 16 0
BBX 21 16 -2 -2
BITMAP
000000
000000
000000
020F80
01F080
000080
000100
000100
000200
000400
000400
01FC00
0E0800
000000
000000
000000
ENDCHAR
STARTCHAR 2534
ENCODING 9524
SWIDTH 960 0
DWIDTH 16 0
BBX 21 16 -2 -2
BITMAP
000010
000048
000028
020FC0
01F080
000080
000100
000100
000200
000400
000400
01FC00
0E0800
000000
000000
000000
ENDCHAR
STARTCHAR 2535
ENCODING 9525
SWIDTH 960 0
DWIDTH 16 0
BBX 21 16 -2 -2
BITMAP
000100
002080
002080
002100
0227E0
01F900
004200
004200
004400
008400
000800
001000
002000
004000
008000
000000
ENDCHAR
STARTCHAR 2536
ENCODING 9526
SWIDTH 960 0
DWIDTH 16 0
BBX 21 16 -2 -2
BITMAP
000110
0020C8
0020A8
002140
0227E0
01F900
004200
004200
004400
008400
000800
001000
002000
004000
008000
000000
ENDCHAR
STARTCHAR 2537
ENCODING 9527
SWIDTH 960 0
DWIDTH 16 0
BBX 21 16 -2 -2
BITMAP
000000
000000
004000
002000
000000
000000
030040
008080
000300
000400
000800
003000
004000
098000
060000
000000
ENDCHAR
STARTCHAR 2538
ENCODING 9528
SWIDTH 960 0
DWIDTH 16 0
BBX 21 16 -2 -2
BITMAP
000010
000048
004048
002040
000000
000000
030040
008080
000300
000400
000800
003000
004000
098000
060000
000000
ENDCHAR
STARTCHAR 2539
ENCODING 9529
SWIDTH 960 0
DWIDTH 16 0
BBX 21 16 -2 -2
BITMAP
000000
000000
000000
010E00
00F200
000400
000400
000800
001000
003000
004800
018400
020400
0C0200
300200
000000
ENDCHAR
STARTCHAR 253a
ENCODING 9530
SWIDTH 960 0
DWIDTH 16 0
BBX 21 16 -2 -2
BITMAP
000000
000020
0001A0
010EA0
00F280
000400
000400
000800
001000
003000
004800
018400
020400
0C0200
300200
000000
ENDCHAR
STARTCHAR 253b
ENCODING 9531
SWIDTH 960 0
DWIDTH 16 0
BBX 21 16 -2 -2
BITMAP
000000
002000
002000
002000
0021E0
003E40
046080
03C100
004600
008800
008000
008000
008000
007E00
000000
000000
ENDCHAR
STARTCHAR 253c
ENCODING 9532
SWIDTH 960 0
DWIDTH 16 0
BBX 21 16 -2 -2
BITMAP
000010
004048
004028
004040
0043C0
007C80
08C100
078200
008C00
011000
010000
010000
010000
00FC00
000000
000000
ENDCHAR
STARTCHAR 253d
ENCODING 9533
SWIDTH 960 0
DWIDTH 16 0
BBX 21 16 -2 -2
BITMAP
000000
000040
008040
008040
004040
004080
008100
000200
000400
000800
001000
006000
008000
010000
020000
000000
ENDCHAR
STARTCHAR 253e
ENCODING 9534
SWIDTH 960 0
DWIDTH 16 0
BBX 21 16 -2 -2
BITMAP
000010
000148
0101C8
010140
008100
008200
010400
000400
000800
001000
002000
00C000
010000
020000
040000
000000
ENDCHAR
STARTCHAR 253f
ENCODING 9535
SWIDTH 960 0
DWIDTH 16 0
BBX 21 16 -2 -2
BITMAP
000000
002000
0023C0
003C80
002080
004100
008200
013400
061C00
081000
002000
00C000
010000
060000
180000
000000
ENDCHAR
STARTCHAR 2540
ENCODING 9536
SWIDTH 960 0
DWIDTH 16 0
BBX 21 16 -2 -2
BITMAP
000010
002048
002028
003F40
002100
004200
018200
026400
0C2800
102000
004000
018000
020000
0C0000
300000
000000
ENDCHAR
STARTCHAR 2541
ENCODING 9537
SWIDTH 960 0
DWIDTH 16 0
BBX 21 16 -2 -2
BITMAP
000000
000080
000300
00FC00
000800
000800
000FC0
047800
038800
001000
001000
002000
004000
008000
010000
000000
ENDCHAR
STARTCHAR 2542
ENCODING 9538
SWIDTH 960 0
DWIDTH 16 0
BBX 21 16 -2 -2
BITMAP
000010
000088
000748
00F840
000800
000800
000FC0
047800
038800
001000
001000
002000
004000
008000
010000
000000
ENDCHAR
STARTCHAR 2543
ENCODING 9539
SWIDTH 960 0
DWIDTH 16 0
BBX 21 16 -2 -2
BITMAP
000000
000000
000000
000000
000000
000000
004400
022200
022400
020400
000800
003000
004000
008000
010000
000000
ENDCHAR
STARTCHAR 2544
ENCODING 9540
SWIDTH 960 0
DWIDTH 16 0
BBX 21 16 -2 -2
BITMAP
000000
000000
001040
021040
010840
010880
011080
010100
000200
000400
000800
001000
006000
008000
030000
000000
ENDCHAR
STARTCHAR 2545
ENCODING 9541
SWIDTH 960 0
DWIDTH 16 0
BBX 21 16 -2 -2
BITMAP
000010
000048
002048
042140
021080
021100
022100
020200
000400
000800
001000
002000
00C000
010000
060000
000000
ENDCHAR
STARTCHAR 2546
ENCODING 9542
SWIDTH 960 0
DWIDTH 16 0
BBX 21 16 -2 -2
BITMAP
000000
000000
004780
003800
000000
000000
0007C0
043800
03D000
001000
002000
004000
008000
010000
020000
000000
ENDCHAR
STARTCHAR 2547
ENCODING 9543
SWIDTH 960 0
DWIDTH 16 0
BBX 21 16 -2 -2
BITMAP
000020
000090
004790
003880
000000
000000
0007C0
043800
03D000
001000
002000
004000
008000
010000
020000
000000
ENDCHAR
STARTCHAR 2548
ENCODING 9544
SWIDTH 960 0
DWIDTH 16 0
BBX 21 16 -2 -2
BITMAP
000000
002000
002000
002000
002000
002000
007000
004C00
004200
008200
008000
008000
010000
010000
010000
020000
ENDCHAR
STARTCHAR 2549
ENCODING 9545
SWIDTH 960 0
DWIDTH 16 0
BBX 21 16 -2 -2
BITMAP
000000
002020
002090
0020A0
002080
002000
007000
004C00
004200
008200
008000
008000
010000
010000
010000
020000
ENDCHAR
STARTCHAR 254a
ENCODING 9546
SWIDTH 960 0
DWIDTH 16 0
BBX 21 16 -2 -2
BITMAP
000000
000400
000400
000400
000400
0207E0
01F800
000800
001000
001000
002000
004000
008000
010000
020000
000000
ENDCHAR
STARTCHAR 254b
ENCODING 9547
SWIDTH 960 0
DWIDTH 16 0
BBX 21 16 -2 -2
BITMAP
000000
000000
000000
000000
008700
007800
000000
000000
000000
000000
000000
007E00
1F8100
000000
000000
000000
ENDCHAR
STARTCHAR 254c
ENCODING 9548
SWIDTH 960 0
DWIDTH 16 0
BBX 21 16 -2 -2
BITMAP
000000
000000
0047C0
003880
000080
000100
00C200
003400
001800
001800
002400
00C200
010200
060000
180000
000000
ENDCHAR
STARTCHAR 254d
ENCODING 9549
SWIDTH 960 0
DWIDTH 16 0
BBX 21 16 -2 -2
BITMAP
000800
000400
000400
010F80
00F100
000200
000400
000800
007600
01A100
0E2080
002000
004000
004000
004000
000000
ENDCHAR
STARTCHAR 254e
ENCODING 9550
SWIDTH 960 0
DWIDTH 16 0
BBX 21 16 -2 -2
BITMAP
000000
000080
000080
000080
000080
000100
000200
000400
000800
001000
002000
00C000
010000
020000
040000
000000
ENDCHAR
STARTCHAR 254f
ENCODING 9551
SWIDTH 960 0
DWIDTH 16 0
BBX 21 16 -2 -2
BITMAP
000000
000000
000000
000000
000400
004200
004200
004100
008100
010100
020100
0C0100
100100
200100
000000
000000
ENDCHAR
STARTCHAR 2550
ENCODING 9552
SWIDTH 960 0
DWIDTH 16 0
BBX 21 16 -2 -2
BITMAP
000000
000020
0000A0
0000A0
004480
004200
004200
008100
010100
010100
020100
0C0100
100100
200100
000000
000000
ENDCHAR
STARTCHAR 2551
ENCODING 9553
SWIDTH 960 0
DWIDTH 16 0
BBX 21 16 -2 -2
BITMAP
000000
000040
0000A0
0000A0
004440
004200
004200
008100
010100
010100
020100
0C0100
100100
200100
000000
000000
ENDCHAR
STARTCHAR 2552
ENCODING 9554
SWIDTH 960 0
DWIDTH 16 0
BBX 21 16 -2 -2
BITMAP
000000
010000
010000
010000
010000
010700
023800
03C000
020000
040000
040000
040000
040000
03FC00
000000
000000
ENDCHAR
STARTCHAR 2553
ENCODING 9555
SWIDTH 960 0
DWIDTH 16 0
BBX 21 16 -2 -2
BITMAP
000000
010020
010090
0100A0
010080
010E00
023000
03C000
020000
040000
040000
040000
040000
03FC00
000000
000000
ENDCHAR
STARTCHAR 2554
ENCODING 9556
SWIDTH 960 0
DWIDTH 16 0
BBX 21 16 -2 -2
BITMAP
000000
020080
020140
020140
020080
021C00
046000
078000
040000
080000
080000
080000
080000
07F800
000000
000000
ENDCHAR
STARTCHAR 2555
ENCODING 9557
SWIDTH 960 0
DWIDTH 16 0
BBX 21 16 -2 -2
BITMAP
000000
000000
0107E0
00F840
000040
000080
000100
000200
000400
000800
001000
002000
00C000
010000
060000
000000
ENDCHAR
STARTCHAR 2556
ENCODING 9558
SWIDTH 960 0
DWIDTH 16 0
BBX 21 16 -2 -2
BITMAP
000010
000048
020FC8
01F140
000100
000200
000400
000800
001000
002000
004000
008000
030000
040000
180000
000000
ENDCHAR
STARTCHAR 2557
ENCODING 9559
SWIDTH 960 0
DWIDTH 16 0
BBX 21 16 -2 -2
BITMAP
000030
000048
0107D0
00F8E0
000080
000100
000200
000400
000800
001000
002000
004000
018000
020000
0C0000
000000
ENDCHAR
STARTCHAR 2558
ENCODING 9560
SWIDTH 960 0
DWIDTH 16 0
BBX 21 16 -2 -2
BITMAP
000000
000000
000000
000000
001000
006800
008800
010400
0A0200
0C0200
000100
0000C0
000000
000000
000000
000000
ENDCHAR
STARTCHAR 2559
ENCODING 9561
SWIDTH 960 0
DWIDTH 16 0
BBX 21 16 -2 -2
BITMAP
000000
000000
000020
000120
0010A0
006880
008800
010400
0A0200
0C0200
000100
0000C0
000000
000000
000000
000000
ENDCHAR
STARTCHAR 255a
ENCODING 9562
SWIDTH 960 0
DWIDTH 16 0
BBX 21 16 -2 -2
BITMAP
000000
000000
000060
0000A0
001120
0068C0
008800
010400
0A0200
0C0200
000100
0000C0
000000
000000
000000
000000
ENDCHAR
STARTCHAR 255b
ENCODING 9563
SWIDTH 960 0
DWIDTH 16 0
BBX 21 16 -2 -2
BITMAP
000000
000800
000800
000800
020FC0
01F800
001000
001200
011100
012100
022080
042080
084000
10C000
004000
000000
ENDCHAR
STARTCHAR 255c
ENCODING 9564
SWIDTH 960 0
DWIDTH 16 0
BBX 21 16 -2 -2
BITMAP
000010
000848
000828
000840
020FC0
01F800
001000
001200
011100
012100
022080
042080
084000
10C000
004000
000000
ENDCHAR
STARTCHAR 255d
ENCODING 9565
SWIDTH 960 0
DWIDTH 16 0
BBX 21 16 -2 -2
BITMAP
000830
000448
000450
020FE0
01F800
000800
001200
009100
011080
012080
022080
0C2000
10C000
004000
000000
000000
ENDCHAR
STARTCHAR 255e
ENCODING 9566
SWIDTH 960 0
DWIDTH 16 0
BBX 21 16 -2 -2
BITMAP
000000
000000
000000
0207C0
01F840
000080
000100
000200
018C00
005000
002000
001000
001000
001000
000000
000000
ENDCHAR
STARTCHAR 255f
ENCODING 9567
SWIDTH 960 0
DWIDTH 16 0
BBX 21 16 -2 -2
BITMAP
000000
003000
000C00
000200
000100
000000
00C000
003000
000800
000800
040000
030000
008000
006000
001000
001000
ENDCHAR
STARTCHAR 2560
ENCODING 9568
SWIDTH 960 0
DWIDTH 16 0
BBX 21 16 -2 -2
BITMAP
000000
000800
000800
000800
000800
001000
001400
002200
004200
004200
008F00
0BF100
050100
000100
000100
000000
ENDCHAR
STARTCHAR 2561
ENCODING 9569
SWIDTH 960 0
DWIDTH 16 0
BBX 21 16 -2 -2
BITMAP
000000
000080
000080
000080
000080
006100
001200
000C00
000600
000A00
001100
006000
008000
030000
0C0000
000000
ENDCHAR
STARTCHAR 2562
ENCODING 9570
SWIDTH 960 0
DWIDTH 16 0
BBX 21 16 -2 -2
BITMAP
000000
000000
008F80
007000
002000
002000
004000
087F80
07C000
008000
008000
008000
008000
007C00
000000
000000
ENDCHAR
STARTCHAR 2563
ENCODING 9571
SWIDTH 960 0
DWIDTH 16 0
BBX 21 16 -2 -2
BITMAP
000000
000000
000000
000000
000000
008000
008000
008F00
007200
098400
068800
008000
008000
004000
004000
008000
ENDCHAR
STARTCHAR 2564
ENCODING 9572
SWIDTH 960 0
DWIDTH 16 0
BBX 21 16 -2 -2
BITMAP
000000
004000
004000
0040E0
002F40
02F080
014100
002200
002400
002000
002000
002000
002000
002000
002000
000000
ENDCHAR
STARTCHAR 2565
ENCODING 9573
SWIDTH 960 0
DWIDTH 16 0
BBX 21 16 -2 -2
BITMAP
000000
000000
000000
000000
000000
000000
000000
000000
007800
039000
001000
006000
00B800
1F0400
000000
000000
ENDCHAR
STARTCHAR 2566
ENCODING 9574
SWIDTH 960 0
DWIDTH 16 0
BBX 21 16 -2 -2
BITMAP
000000
000000
000000
000000
008700
007900
000200
000200
000400
000800
000800
01FE00
1E0100
000000
000000
000000
ENDCHAR
STARTCHAR 2567
ENCODING 9575
SWIDTH 960 0
DWIDTH 16 0
BBX 21 16 -2 -2
BITMAP
000000
000000
000000
000000
000000
000000
001E00
01E200
000400
000400
003800
01C800
001000
007000
078800
000000
ENDCHAR
STARTCHAR 2568
ENCODING 9576
SWIDTH 960 0
DWIDTH 16 0
BBX 21 16 -2 -2
BITMAP
000000
000000
001FC0
01E080
000080
000100
000100
001E00
01E200
000400
000400
000400
007800
0F8400
000000
000000
ENDCHAR
STARTCHAR 2569
ENCODING 9577
SWIDTH 960 0
DWIDTH 16 0
BBX 21 16 -2 -2
BITMAP
000000
008780
007800
000000
000000
0007C0
047880
038080
000100
000200
000400
001800
002000
00C000
030000
000000
ENDCHAR
STARTCHAR 256a
ENCODING 9578
SWIDTH 960 0
DWIDTH 16 0
BBX 21 16 -2 -2
BITMAP
000100
004080
004080
004100
004100
004100
008200
008200
008400
010400
000800
001000
002000
004000
008000
000000
ENDCHAR
STARTCHAR 256b
ENCODING 9579
SWIDTH 960 0
DWIDTH 16 0
BBX 21 16 -2 -2
BITMAP
000000
000400
000400
008400
004400
004420
008820
008840
008880
011100
011200
021C00
043000
082000
100000
000000
ENDCHAR
STARTCHAR 256c
ENCODING 9580
SWIDTH 960 0
DWIDTH 16 0
BBX 21 16 -2 -2
BITMAP
000000
004000
004000
004000
004000
004000
008000
008000
008180
010200
010400
011800
026000
038000
020000
000000
ENDCHAR
STARTCHAR 256d
ENCODING 9581
SWIDTH 960 0
DWIDTH 16 0
BBX 21 16 -2 -2
BITMAP
000000
000000
010000
010FC0
01F040
010040
010080
010080
010100
020200
020200
027E00
078200
040000
000000
000000
ENDCHAR
STARTCHAR 256e
ENCODING 9582
SWIDTH 960 0
DWIDTH 16 0
BBX 21 16 -2 -2
BITMAP
000000
000000
000000
000000
000000
000000
010F00
00F100
008200
010200
010400
001800
002000
004000
008000
000000
ENDCHAR
STARTCHAR 256f
ENCODING 9583
SWIDTH 960 0
DWIDTH 16 0
BBX 21 16 -2 -2
BITMAP
000000
000000
000000
0207C0
01F840
010080
010080
010100
010200
020200
000400
001800
002000
004000
008000
000000
ENDCHAR
STARTCHAR 2570
ENCODING 9584
SWIDTH 960 0
DWIDTH 16 0
BBX 21 16 -2 -2
BITMAP
000000
000400
000400
000400
020FC0
01F400
010800
010800
010800
013F00
1FD080
001000
002000
002000
002000
000000
ENDCHAR
STARTCHAR 2571
ENCODING 9585
SWIDTH 960 0
DWIDTH 16 0
BBX 21 16 -2 -2
BITMAP
000000
000000
000000
010F80
00F100
000600
002800
002000
002000
004000
004000
00FC00
3F0200
000000
000000
000000
ENDCHAR
STARTCHAR 2572
ENCODING 9586
SWIDTH 960 0
DWIDTH 16 0
BBX 21 16 -2 -2
BITMAP
000000
000000
0043E0
003C40
000040
000080
000E80
00F100
000200
000400
000800
003000
00C000
070000
000000
000000
ENDCHAR
STARTCHAR 2573
ENCODING 9587
SWIDTH 960 0
DWIDTH 16 0
BBX 21 16 -2 -2
BITMAP
000000
000000
000000
018000
004020
002040
000040
000080
000300
000400
000800
003000
004000
098000
060000
000000
ENDCHAR
STARTCHAR 2574
ENCODING 9588
SWIDTH 960 0
DWIDTH 16 0
BBX 21 16 -2 -2
BITMAP
000010
000848
000828
000840
010FC0
01F080
010080
010100
010200
020200
000400
001800
002000
004000
008000
000000
ENDCHAR
STARTCHAR 2575
ENCODING 9589
SWIDTH 960 0
DWIDTH 16 0
BBX 21 16 -2 -2
BITMAP
000000
000000
000000
000000
001000
001000
002000
023E00
01E200
004400
008400
010800
021000
045000
082000
000000
ENDCHAR
STARTCHAR 2576
ENCODING 9590
SWIDTH 960 0
DWIDTH 16 0
BBX 21 16 -2 -2
BITMAP
000000
000000
000000
000000
004000
004000
004700
007800
008800
010800
021000
002000
004000
008000
010000
000000
ENDCHAR
STARTCHAR 2621
ENCODING 9761
SWIDTH 960 0
DWIDTH 16 0
BBX 21 16 -2 -2
BITMAP
000000
000400
000400
000C00
001400
002400
004400
008200
017E00
010400
020200
040200
080200
1C0700
000000
000000
ENDCHAR
STARTCHAR 2622
ENCODING 9762
SWIDTH 960 0
DWIDTH 16 0
BBX 21 16 -2 -2
BITMAP
000000
01FF00
004080
008080
008080
008300
01FC00
010200
010100
020100
020100
020600
041800
1FE000
000000
000000
ENDCHAR
STARTCHAR 2623
ENCODING 9763
SWIDTH 960 0
DWIDTH 16 0
BBX 21 16 -2 -2
BITMAP
000000
00FFC0
002040
004040
004000
004000
008000
008000
008000
010000
010000
010000
020000
070000
000000
000000
ENDCHAR
STARTCHAR 2624
ENCODING 9764
SWIDTH 960 0
DWIDTH 16 0
BBX 21 16 -2 -2
BITMAP
000000
000800
000800
001800
002800
004800
008800
010400
020400
020400
040400
080400
100400
3FFE00
000000
000000
ENDCHAR
STARTCHAR 2625
ENCODING 9765
SWIDTH 960 0
DWIDTH 16 0
BBX 21 16 -2 -2
BITMAP
000000
01FFC0
004040
008040
008000
008000
010800
01F800
010800
020000
020000
020100
040200
1FFC00
000000
000000
ENDCHAR
STARTCHAR 2626
ENCODING 9766
SWIDTH 960 0
DWIDTH 16 0
BBX 21 16 -2 -2
BITMAP
000000
007FC0
008180
010200
000400
000800
001000
002000
004000
008000
010000
020200
040400
0FFC00
000000
000000
ENDCHAR
STARTCHAR 2627
ENCODING 9767
SWIDTH 960 0
DWIDTH 16 0
BBX 21 16 -2 -2
BITMAP
000000
01C0E0
008040
010080
010080
010080
020100
03FF00
020100
040200
040200
040200
080400
1C0E00
000000
000000
ENDCHAR
STARTCHAR 2628
ENCODING 9768
SWIDTH 960 0
DWIDTH 16 0
BBX 21 16 -2 -2
BITMAP
000000
001E00
006180
008180
010080
020080
048480
04FC80
048500
040100
040200
040600
061800
01E000
000000
000000
ENDCHAR
STARTCHAR 2629
ENCODING 9769
SWIDTH 960 0
DWIDTH 16 0
BBX 21 16 -2 -2
BITMAP
000000
001C00
000800
001000
001000
001000
002000
002000
002000
004000
004000
004000
008000
01C000
000000
000000
ENDCHAR
STARTCHAR 262a
ENCODING 9770
SWIDTH 960 0
DWIDTH 16 0
BBX 21 16 -2 -2
BITMAP
000000
00E0E0
004100
008200
008400
008800
011000
016000
019000
021000
020800
020400
040400
0E0700
000000
000000
ENDCHAR
STARTCHAR 262b
ENCODING 9771
SWIDTH 960 0
DWIDTH 16 0
BBX 21 16 -2 -2
BITMAP
000000
000400
000400
000C00
001400
002400
004400
008200
010200
010200
020200
040200
080200
1C0700
000000
000000
ENDCHAR
STARTCHAR 262c
ENCODING 9772
SWIDTH 960 0
DWIDTH 16 0
BBX 21 16 -2 -2
BITMAP
000000
030060
010040
030180
030180
030280
050500
048900
049100
089200
08A200
08C200
104400
388E00
000000
000000
ENDCHAR
STARTCHAR 262d
ENCODING 9773
SWIDTH 960 0
DWIDTH 16 0
BBX 21 16 -2 -2
BITMAP
000000
01C0E0
00C040
014080
014080
012080
022100
022100
021100
041200
041200
040A00
080C00
1C0400
000000
000000
ENDCHAR
STARTCHAR 262e
ENCODING 9774
SWIDTH 960 0
DWIDTH 16 0
BBX 21 16 -2 -2
BITMAP
000000
01FFE0
010020
000000
000000
000000
020100
03FF00
020100
000000
000000
000000
100200
1FFE00
000000
000000
ENDCHAR
STARTCHAR 262f
ENCODING 9775
SWIDTH 960 0
DWIDTH 16 0
BBX 21 16 -2 -2
BITMAP
000000
001E00
006180
008180
010080
020080
040080
040080
040100
040100
040200
040600
061800
01E000
000000
000000
ENDCHAR
STARTCHAR 2630
ENCODING 9776
SWIDTH 960 0
DWIDTH 16 0
BBX 21 16 -2 -2
BITMAP
000000
00FFC0
004080
008100
008100
008100
010200
010200
010200
020400
020400
020400
040800
0E1C00
000000
000000
ENDCHAR
STARTCHAR 2631
ENCODING 9777
SWIDTH 960 0
DWIDTH 16 0
BBX 21 16 -2 -2
BITMAP
000000
00FF00
002080
004040
004040
004080
008300
00FC00
008000
010000
010000
010000
020000
070000
000000
000000
ENDCHAR
STARTCHAR 2632
ENCODING 9778
SWIDTH 960 0
DWIDTH 16 0
BBX 21 16 -2 -2
BITMAP
000000
00FF80
004080
004080
002000
001000
001000
001800
002000
004000
008000
030200
040400
0FFC00
000000
000000
ENDCHAR
STARTCHAR 2633
ENCODING 9779
SWIDTH 960 0
DWIDTH 16 0
BBX 21 16 -2 -2
BITMAP
000000
01FFC0
020840
041040
001000
001000
002000
002000
002000
004000
004000
004000
008000
01C000
000000
000000
ENDCHAR
STARTCHAR 2634
ENCODING 9780
SWIDTH 960 0
DWIDTH 16 0
BBX 21 16 -2 -2
BITMAP
000000
0071C0
018A20
020820
000800
000800
001000
001000
001000
002000
002000
002000
004000
00E000
000000
000000
ENDCHAR
STARTCHAR 2635
ENCODING 9781
SWIDTH 960 0
DWIDTH 16 0
BBX 21 16 -2 -2
BITMAP
000000
000E00
000400
003E00
00C980
010880
011080
021080
021100
022100
032600
00F800
004000
00E000
000000
000000
ENDCHAR
STARTCHAR 2636
ENCODING 9782
SWIDTH 960 0
DWIDTH 16 0
BBX 21 16 -2 -2
BITMAP
000000
01C1C0
008180
008200
004400
004800
005000
002000
005000
009000
011000
060800
080800
1C1C00
000000
000000
ENDCHAR
STARTCHAR 2637
ENCODING 9783
SWIDTH 960 0
DWIDTH 16 0
BBX 21 16 -2 -2
BITMAP
000000
001C00
060860
0910A0
011100
011100
022200
022200
022600
024800
01F000
004000
008000
01C000
000000
000000
ENDCHAR
STARTCHAR 2638
ENCODING 9784
SWIDTH 960 0
DWIDTH 16 0
BBX 21 16 -2 -2
BITMAP
000000
000E00
003180
004180
008080
010080
020080
020080
020100
030600
018C00
049100
08A200
0FBE00
000000
000000
ENDCHAR
STARTCHAR 2641
ENCODING 9793
SWIDTH 960 0
DWIDTH 16 0
BBX 21 16 -2 -2
BITMAP
000000
000000
000000
000000
000000
000100
007100
008A00
010C00
021800
041000
047000
049400
031800
000000
000000
ENDCHAR
STARTCHAR 2642
ENCODING 9794
SWIDTH 960 0
DWIDTH 16 0
BBX 21 16 -2 -2
BITMAP
000000
000300
000480
000880
001080
002100
004200
009C00
010400
010400
020400
020800
051000
04E000
080000
100000
ENDCHAR
STARTCHAR 2643
ENCODING 9795
SWIDTH 960 0
DWIDTH 16 0
BBX 21 16 -2 -2
BITMAP
000000
000000
000000
000000
000000
000000
01C300
022400
043800
006000
006000
008000
008000
010000
020000
040000
ENDCHAR
STARTCHAR 2644
ENCODING 9796
SWIDTH 960 0
DWIDTH 16 0
BBX 21 16 -2 -2
BITMAP
000000
000C00
001200
001100
001080
001800
006800
008800
010800
020800
041000
042000
044000
038000
000000
000000
ENDCHAR
STARTCHAR 2645
ENCODING 9797
SWIDTH 960 0
DWIDTH 16 0
BBX 21 16 -2 -2
BITMAP
000000
000000
000000
000000
000000
000000
003C00
004200
004000
007000
008000
010000
011000
00E000
000000
000000
ENDCHAR
STARTCHAR 2646
ENCODING 9798
SWIDTH 960 0
DWIDTH 16 0
BBX 21 16 -2 -2
BITMAP
001000
002080
002300
001C00
000800
003000
004000
008000
010000
010000
010000
008000
004000
002000
004000
018000
ENDCHAR
STARTCHAR 2647
ENCODING 9799
SWIDTH 960 0
DWIDTH 16 0
BBX 21 16 -2 -2
BITMAP
000000
000000
000000
000000
000000
000000
019C00
026200
008200
008400
010400
020800
021000
041000
002000
004000
ENDCHAR
STARTCHAR 2648
ENCODING 9800
SWIDTH 960 0
DWIDTH 16 0
BBX 21 16 -2 -2
BITMAP
000000
000300
000C80
001080
002080
002080
007F00
008200
010400
020400
020800
023000
024000
018000
000000
000000
ENDCHAR
STARTCHAR 2649
ENCODING 9801
SWIDTH 960 0
DWIDTH 16 0
BBX 21 16 -2 -2
BITMAP
000000
000000
000000
000000
000000
000000
004000
004000
008000
010000
020000
021800
026000
018000
000000
000000
ENDCHAR
STARTCHAR 264a
ENCODING 9802
SWIDTH 960 0
DWIDTH 16 0
BBX 21 16 -2 -2
BITMAP
000000
000000
000000
000000
000000
000000
008600
008900
017000
018000
024000
044000
044800
083000
000000
000000
ENDCHAR
STARTCHAR 264b
ENCODING 9803
SWIDTH 960 0
DWIDTH 16 0
BBX 21 16 -2 -2
BITMAP
000000
000400
000400
000400
000400
000400
000800
001800
002800
004800
008800
030800
040800
080400
000000
000000
ENDCHAR
STARTCHAR 264c
ENCODING 9804
SWIDTH 960 0
DWIDTH 16 0
BBX 21 16 -2 -2
BITMAP
000000
000000
000000
000000
000000
000000
008400
008400
010800
010800
021000
041000
065400
098800
100000
200000
ENDCHAR
STARTCHAR 264d
ENCODING 9805
SWIDTH 960 0
DWIDTH 16 0
BBX 21 16 -2 -2
BITMAP
000000
000000
000000
000000
000000
000000
030200
008200
008400
010800
011000
026000
058000
0E0000
000000
000000
ENDCHAR
STARTCHAR 264e
ENCODING 9806
SWIDTH 960 0
DWIDTH 16 0
BBX 21 16 -2 -2
BITMAP
000080
000700
000800
000800
003E00
004000
004000
004000
01F800
020000
040000
038000
004000
002000
004000
0F8000
ENDCHAR
STARTCHAR 264f
ENCODING 9807
SWIDTH 960 0
DWIDTH 16 0
BBX 21 16 -2 -2
BITMAP
000000
000000
000000
000000
000000
000000
003800
004400
008400
010400
020400
020800
023000
01C000
000000
000000
ENDCHAR
STARTCHAR 2650
ENCODING 9808
SWIDTH 960 0
DWIDTH 16 0
BBX 21 16 -2 -2
BITMAP
000000
000000
000000
000000
000000
000180
01FE00
024800
008800
009000
012000
022000
042800
081000
000000
000000
ENDCHAR
STARTCHAR 2651
ENCODING 9809
SWIDTH 960 0
DWIDTH 16 0
BBX 21 16 -2 -2
BITMAP
000000
000000
000000
000000
000000
000000
003800
004400
008400
010400
010400
020800
051000
04E000
080000
100000
ENDCHAR
STARTCHAR 2652
ENCODING 9810
SWIDTH 960 0
DWIDTH 16 0
BBX 21 16 -2 -2
BITMAP
000000
000000
000000
000000
000000
000180
001E00
002400
004400
008400
010400
010800
013000
00C000
000000
000000
ENDCHAR
STARTCHAR 2653
ENCODING 9811
SWIDTH 960 0
DWIDTH 16 0
BBX 21 16 -2 -2
BITMAP
000000
000000
000000
000000
000000
000180
01FE00
022000
004000
004000
008000
011800
012000
00C000
000000
000000
ENDCHAR
STARTCHAR 2654
ENCODING 9812
SWIDTH 960 0
DWIDTH 16 0
BBX 21 16 -2 -2
BITMAP
000000
000000
000000
000000
000000
000000
002200
002100
004200
004200
008400
009800
00A000
004000
000000
000000
ENDCHAR
STARTCHAR 2655
ENCODING 9813
SWIDTH 960 0
DWIDTH 16 0
BBX 21 16 -2 -2
BITMAP
000000
000100
000200
000200
000400
000400
003C00
00D200
012200
022400
024400
027800
01C000
010000
010000
020000
ENDCHAR
STARTCHAR 2656
ENCODING 9814
SWIDTH 960 0
DWIDTH 16 0
BBX 21 16 -2 -2
BITMAP
000000
000000
000000
000000
000000
000000
00C200
012400
003800
006000
004000
01C000
028000
048000
184800
202000
ENDCHAR
STARTCHAR 2657
ENCODING 9815
SWIDTH 960 0
DWIDTH 16 0
BBX 21 16 -2 -2
BITMAP
000000
000100
000200
000200
000400
000800
010900
029100
012200
012400
024800
027000
01C000
010000
010000
020000
ENDCHAR
STARTCHAR 2658
ENCODING 9816
SWIDTH 960 0
DWIDTH 16 0
BBX 21 16 -2 -2
BITMAP
000000
000000
000000
000000
000000
000000
008200
011200
022200
042200
084200
08C400
094800
063000
000000
000000
ENDCHAR
STARTCHAR 2721
ENCODING 10017
SWIDTH 960 0
DWIDTH 16 0
BBX 21 16 -2 -2
BITMAP
000000
000400
000400
000C00
001400
002400
004400
008200
017E00
010400
020200
040200
080200
1C0700
000000
000000
ENDCHAR
STARTCHAR 2722
ENCODING 10018
SWIDTH 960 0
DWIDTH 16 0
BBX 21 16 -2 -2
BITMAP
000000
01FF80
004080
008080
008000
008000
01FC00
010200
010100
020100
020100
020600
041800
1FE000
000000
000000
ENDCHAR
STARTCHAR 2723
ENCODING 10019
SWIDTH 960 0
DWIDTH 16 0
BBX 21 16 -2 -2
BITMAP
000000
01FF00
004080
008080
008080
008300
01FC00
010200
010100
020100
020100
020600
041800
1FE000
000000
000000
ENDCHAR
STARTCHAR 2724
ENCODING 10020
SWIDTH 960 0
DWIDTH 16 0
BBX 21 16 -2 -2
BITMAP
000000
00FFC0
002040
004040
004000
004000
008000
008000
008000
010000
010000
010000
020000
070000
000000
000000
ENDCHAR
STARTCHAR 2725
ENCODING 10021
SWIDTH 960 0
DWIDTH 16 0
BBX 21 16 -2 -2
BITMAP
000000
007FE0
001080
002100
002100
002100
004200
004200
008200
008400
010400
020400
040800
1FFE00
100200
200400
ENDCHAR
STARTCHAR 2726
ENCODING 10022
SWIDTH 960 0
DWIDTH 16 0
BBX 21 16 -2 -2
BITMAP
000000
01FFC0
004040
008040
008000
008000
010800
01F800
010800
020000
020000
020100
040200
1FFC00
000000
000000
ENDCHAR
STARTCHAR 2727
ENCODING 10023
SWIDTH 960 0
DWIDTH 16 0
BBX 21 16 -2 -2
BITMAP
002080
002080
000000
03FF00
008100
008080
010000
010800
01F800
021000
020000
020200
040400
1FF800
000000
000000
ENDCHAR
STARTCHAR 2728
ENCODING 10024
SWIDTH 960 0
DWIDTH 16 0
BBX 21 16 -2 -2
BITMAP
000000
010E30
028448
008880
008880
008900
009100
00FE00
011100
022100
042100
082100
104100
38E380
000000
000000
ENDCHAR
STARTCHAR 2729
ENCODING 10025
SWIDTH 960 0
DWIDTH 16 0
BBX 21 16 -2 -2
BITMAP
000000
001E00
00E180
010180
000080
000100
000200
007C00
000200
000200
000200
040400
021800
01E000
000000
000000
ENDCHAR
STARTCHAR 272a
ENCODING 10026
SWIDTH 960 0
DWIDTH 16 0
BBX 21 16 -2 -2
BITMAP
000000
01C0E0
0080C0
010180
010280
010480
020900
021100
022100
044200
048200
070200
0C0400
080E00
000000
000000
ENDCHAR
STARTCHAR 272b
ENCODING 10027
SWIDTH 960 0
DWIDTH 16 0
BBX 21 16 -2 -2
BITMAP
003300
002100
01DE60
010180
010180
010280
020D00
021100
022100
044200
048200
070200
0C0400
080E00
000000
000000
ENDCHAR
STARTCHAR 272c
ENCODING 10028
SWIDTH 960 0
DWIDTH 16 0
BBX 21 16 -2 -2
BITMAP
000000
00E1C0
004220
008400
008800
009000
011000
01E000
011000
021000
020800
020400
040400
0E0E00
000000
000000
ENDCHAR
STARTCHAR 272d
ENCODING 10029
SWIDTH 960 0
DWIDTH 16 0
BBX 21 16 -2 -2
BITMAP
000000
007FC0
001080
002100
002100
002100
004200
004200
008200
008400
010400
060400
280800
301C00
000000
000000
ENDCHAR
STARTCHAR 272e
ENCODING 10030
SWIDTH 960 0
DWIDTH 16 0
BBX 21 16 -2 -2
BITMAP
000000
018060
008040
018180
018180
018280
028500
024500
044900
045100
085100
086100
104200
3C4700
000000
000000
ENDCHAR
STARTCHAR 272f
ENCODING 10031
SWIDTH 960 0
DWIDTH 16 0
BBX 21 16 -2 -2
BITMAP
000000
01C0E0
008040
010080
010080
010080
020100
03FF00
020100
040200
040200
040200
080400
1C0E00
000000
000000
ENDCHAR
STARTCHAR 2730
ENCODING 10032
SWIDTH 960 0
DWIDTH 16 0
BBX 21 16 -2 -2
BITMAP
000000
001E00
006180
008180
010080
020080
040080
040080
040100
040100
040200
040600
061800
01E000
000000
000000
ENDCHAR
STARTCHAR 2731
ENCODING 10033
SWIDTH 960 0
DWIDTH 16 0
BBX 21 16 -2 -2
BITMAP
000000
00FFE0
004040
008080
008080
008080
010100
010100
010100
020200
020200
020200
040400
0E0E00
000000
000000
ENDCHAR
STARTCHAR 2732
ENCODING 10034
SWIDTH 960 0
DWIDTH 16 0
BBX 21 16 -2 -2
BITMAP
000000
00FF00
002080
004040
004040
004080
008300
00FC00
008000
010000
010000
010000
020000
070000
000000
000000
ENDCHAR
STARTCHAR 2733
ENCODING 10035
SWIDTH 960 0
DWIDTH 16 0
BBX 21 16 -2 -2
BITMAP
000000
001E00
006140
008180
010080
020000
040000
040000
040000
040000
040200
040600
061800
01E000
000000
000000
ENDCHAR
STARTCHAR 2734
ENCODING 10036
SWIDTH 960 0
DWIDTH 16 0
BBX 21 16 -2 -2
BITMAP
000000
01FFC0
020840
041040
001000
001000
002000
002000
002000
004000
004000
004000
008000
01C000
000000
000000
ENDCHAR
STARTCHAR 2735
ENCODING 10037
SWIDTH 960 0
DWIDTH 16 0
BBX 21 16 -2 -2
BITMAP
000000
00E0E0
004040
004080
004100
004200
004400
002800
003000
001000
002000
00C000
090000
060000
000000
000000
ENDCHAR
STARTCHAR 2736
ENCODING 10038
SWIDTH 960 0
DWIDTH 16 0
BBX 21 16 -2 -2
BITMAP
000000
000E00
000400
003E00
00C980
010880
011080
021080
021100
022100
032600
00F800
004000
00E000
000000
000000
ENDCHAR
STARTCHAR 2737
ENCODING 10039
SWIDTH 960 0
DWIDTH 16 0
BBX 21 16 -2 -2
BITMAP
000000
01C1C0
008180
008200
004400
004800
005000
002000
005000
009000
011000
060800
080800
1C1C00
000000
000000
ENDCHAR
STARTCHAR 2738
ENCODING 10040
SWIDTH 960 0
DWIDTH 16 0
BBX 21 16 -2 -2
BITMAP
000000
01C1C0
008080
010100
010100
010100
020200
020200
020200
040400
040400
040400
080800
1FFE00
000200
000400
ENDCHAR
STARTCHAR 2739
ENCODING 10041
SWIDTH 960 0
DWIDTH 16 0
BBX 21 16 -2 -2
BITMAP
000000
00E1C0
004080
008100
008100
008100
008200
008600
007A00
000400
000400
000400
000800
001C00
000000
000000
ENDCHAR
STARTCHAR 273a
ENCODING 10042
SWIDTH 960 0
DWIDTH 16 0
BBX 21 16 -2 -2
BITMAP
000000
01CE70
008420
010840
010840
010840
021080
021080
021080
042100
042100
042100
084200
1FFF00
000000
000000
ENDCHAR
STARTCHAR 273b
ENCODING 10043
SWIDTH 960 0
DWIDTH 16 0
BBX 21 16 -2 -2
BITMAP
000000
01CE70
008420
010840
010840
010840
021080
021080
021080
042100
042100
042100
084200
1FFF80
000080
000100
ENDCHAR
STARTCHAR 273c
ENCODING 10044
SWIDTH 960 0
DWIDTH 16 0
BBX 21 16 -2 -2
BITMAP
000000
01F800
021000
042000
002000
002000
007E00
004180
004080
008080
008080
008180
010600
03F800
000000
000000
ENDCHAR
STARTCHAR 273d
ENCODING 10045
SWIDTH 960 0
DWIDTH 16 0
BBX 21 16 -2 -2
BITMAP
000000
01C0E0
008040
010080
010080
010080
03C100
023100
021100
041200
041200
043200
08C400
1F0E00
000000
000000
ENDCHAR
STARTCHAR 273e
ENCODING 10046
SWIDTH 960 0
DWIDTH 16 0
BBX 21 16 -2 -2
BITMAP
000000
00E000
004000
008000
008000
008000
01F800
010600
010200
020200
020200
020600
041800
0FE000
000000
000000
ENDCHAR
STARTCHAR 273f
ENCODING 10047
SWIDTH 960 0
DWIDTH 16 0
BBX 21 16 -2 -2
BITMAP
000000
001E00
006180
008180
010080
000180
00E280
011C80
000100
000100
040200
040600
061800
01E000
000000
000000
ENDCHAR
STARTCHAR 2740
ENCODING 10048
SWIDTH 960 0
DWIDTH 16 0
BBX 21 16 -2 -2
BITMAP
000000
01C380
008440
010840
011040
012040
024040
03C040
024080
044080
044100
044200
084400
1C3800
000000
000000
ENDCHAR
STARTCHAR 2741
ENCODING 10049
SWIDTH 960 0
DWIDTH 16 0
BBX 21 16 -2 -2
BITMAP
000000
001FC0
006080
008100
010100
010100
008200
007E00
006200
008400
010400
020400
0C0800
301C00
000000
000000
ENDCHAR
STARTCHAR 2751
ENCODING 10065
SWIDTH 960 0
DWIDTH 16 0
BBX 21 16 -2 -2
BITMAP
000000
000000
000000
000000
000000
007800
008400
000400
00E400
011800
020800
023800
024C00
018C00
000000
000000
ENDCHAR
STARTCHAR 2752
ENCODING 10066
SWIDTH 960 0
DWIDTH 16 0
BBX 21 16 -2 -2
BITMAP
000000
000080
001F00
002000
004000
00C000
017800
018400
010400
020400
020400
020800
021000
01E000
000000
000000
ENDCHAR
STARTCHAR 2753
ENCODING 10067
SWIDTH 960 0
DWIDTH 16 0
BBX 21 16 -2 -2
BITMAP
000000
000000
000000
000000
000000
00FC00
008200
008200
008800
01FC00
010400
010400
020800
07F000
000000
000000
ENDCHAR
STARTCHAR 2754
ENCODING 10068
SWIDTH 960 0
DWIDTH 16 0
BBX 21 16 -2 -2
BITMAP
000000
000000
000000
000000
000000
00FF00
008200
008200
008000
010000
010000
010000
020000
070000
000000
000000
ENDCHAR
STARTCHAR 2755
ENCODING 10069
SWIDTH 960 0
DWIDTH 16 0
BBX 21 16 -2 -2
BITMAP
000000
000000
000000
000000
000000
007F00
004400
004400
004400
008800
008800
010800
021000
0FFC00
080400
100800
ENDCHAR
STARTCHAR 2756
ENCODING 10070
SWIDTH 960 0
DWIDTH 16 0
BBX 21 16 -2 -2
BITMAP
000000
000000
000000
000000
000000
007000
008800
010400
010400
03F800
020000
020000
021000
01E000
000000
000000
ENDCHAR
STARTCHAR 2757
ENCODING 10071
SWIDTH 960 0
DWIDTH 16 0
BBX 21 16 -2 -2
BITMAP
000000
000000
002200
004400
000000
007000
008800
010400
010400
03F800
020000
020000
021000
01E000
000000
000000
ENDCHAR
STARTCHAR 2758
ENCODING 10072
SWIDTH 960 0
DWIDTH 16 0
BBX 21 16 -2 -2
BITMAP
000000
000000
000000
000000
000000
019CC0
011100
009200
00BC00
00A800
012400
022400
044400
08E200
000000
000000
ENDCHAR
STARTCHAR 2759
ENCODING 10073
SWIDTH 960 0
DWIDTH 16 0
BBX 21 16 -2 -2
BITMAP
000000
000000
000000
000000
000000
003C00
00C200
000200
000800
007C00
000400
000400
030800
01F000
000000
000000
ENDCHAR
STARTCHAR 275a
ENCODING 10074
SWIDTH 960 0
DWIDTH 16 0
BBX 21 16 -2 -2
BITMAP
000000
000000
000000
000000
000000
00E1C0
008100
008300
008D00
011200
016200
018200
020400
070E00
000000
000000
ENDCHAR
STARTCHAR 275b
ENCODING 10075
SWIDTH 960 0
DWIDTH 16 0
BBX 21 16 -2 -2
BITMAP
000000
000000
001980
002100
001E00
00E1C0
008100
008300
008D00
011200
016200
018200
020400
070E00
000000
000000
ENDCHAR
STARTCHAR 275c
ENCODING 10076
SWIDTH 960 0
DWIDTH 16 0
BBX 21 16 -2 -2
BITMAP
000000
000000
000000
000000
000000
00E700
008A00
009000
00A000
01C000
012000
011000
021000
071C00
000000
000000
ENDCHAR
STARTCHAR 275d
ENCODING 10077
SWIDTH 960 0
DWIDTH 16 0
BBX 21 16 -2 -2
BITMAP
000000
000000
000000
000000
000000
003F80
002200
002200
002200
004400
004400
048400
050800
021C00
000000
000000
ENDCHAR
STARTCHAR 275e
ENCODING 10078
SWIDTH 960 0
DWIDTH 16 0
BBX 21 16 -2 -2
BITMAP
000000
000000
000000
000000
000000
01C1C0
018300
014500
014900
024A00
025200
026200
044400
0E0E00
000000
000000
ENDCHAR
STARTCHAR 275f
ENCODING 10079
SWIDTH 960 0
DWIDTH 16 0
BBX 21 16 -2 -2
BITMAP
000000
000000
000000
000000
000000
00E380
008200
008200
008200
01FC00
010400
010400
020800
071C00
000000
000000
ENDCHAR
STARTCHAR 2760
ENCODING 10080
SWIDTH 960 0
DWIDTH 16 0
BBX 21 16 -2 -2
BITMAP
000000
000000
000000
000000
000000
007800
008400
010200
010200
020400
020400
020800
021000
01E000
000000
000000
ENDCHAR
STARTCHAR 2761
ENCODING 10081
SWIDTH 960 0
DWIDTH 16 0
BBX 21 16 -2 -2
BITMAP
000000
000000
000000
000000
000000
01FF00
010400
010400
010400
020800
020800
020800
041000
0E3800
000000
000000
ENDCHAR
STARTCHAR 2762
ENCODING 10082
SWIDTH 960 0
DWIDTH 16 0
BBX 21 16 -2 -2
BITMAP
000000
000000
000000
000000
000000
00F800
00C400
008200
008200
010400
010400
019800
026000
020000
020000
0E0000
ENDCHAR
STARTCHAR 2763
ENCODING 10083
SWIDTH 960 0
DWIDTH 16 0
BBX 21 16 -2 -2
BITMAP
000000
000000
000000
000000
000000
007000
008800
010400
010000
020000
020000
021800
022000
01C000
000000
000000
ENDCHAR
STARTCHAR 2764
ENCODING 10084
SWIDTH 960 0
DWIDTH 16 0
BBX 21 16 -2 -2
BITMAP
000000
000000
000000
000000
000000
01FF00
022200
022200
002000
004000
004000
004000
008000
01C000
000000
000000
ENDCHAR
STARTCHAR 2765
ENCODING 10085
SWIDTH 960 0
DWIDTH 16 0
BBX 21 16 -2 -2
BITMAP
000000
000000
000000
000000
000000
00E380
008200
008200
008400
008800
005000
006000
004000
008000
050000
060000
ENDCHAR
STARTCHAR 2766
ENCODING 10086
SWIDTH 960 0
DWIDTH 16 0
BBX 21 16 -2 -2
BITMAP
000000
000C00
000400
000800
000800
000800
00D600
013900
021100
042100
042100
042200
04E400
035800
004000
01C000
ENDCHAR
STARTCHAR 2767
ENCODING 10087
SWIDTH 960 0
DWIDTH 16 0
BBX 21 16 -2 -2
BITMAP
000000
000000
000000
000000
000000
00E380
008200
004400
003800
002000
005000
018800
020800
071C00
000000
000000
ENDCHAR
STARTCHAR 2768
ENCODING 10088
SWIDTH 960 0
DWIDTH 16 0
BBX 21 16 -2 -2
BITMAP
000000
000000
000000
000000
000000
01C700
010400
010400
010400
020800
020800
020800
041000
0FFC00
000400
000800
ENDCHAR
STARTCHAR 2769
ENCODING 10089
SWIDTH 960 0
DWIDTH 16 0
BBX 21 16 -2 -2
BITMAP
000000
000000
000000
000000
000000
00E380
008200
008200
008200
008400
007C00
000400
000800
001C00
000000
000000
ENDCHAR
STARTCHAR 276a
ENCODING 10090
SWIDTH 960 0
DWIDTH 16 0
BBX 21 16 -2 -2
BITMAP
000000
000000
000000
000000
000000
039CE0
021080
021080
021080
042100
042100
042100
084200
1FFF00
000000
000000
ENDCHAR
STARTCHAR 276b
ENCODING 10091
SWIDTH 960 0
DWIDTH 16 0
BBX 21 16 -2 -2
BITMAP
000000
000000
000000
000000
000000
039CE0
021080
021080
021080
042100
042100
042100
084200
1FFF80
000080
000100
ENDCHAR
STARTCHAR 276c
ENCODING 10092
SWIDTH 960 0
DWIDTH 16 0
BBX 21 16 -2 -2
BITMAP
000000
000000
000000
000000
000000
01F800
022000
022000
002000
007C00
004300
004100
008600
01F800
000000
000000
ENDCHAR
STARTCHAR 276d
ENCODING 10093
SWIDTH 960 0
DWIDTH 16 0
BBX 21 16 -2 -2
BITMAP
000000
000000
000000
000000
000000
01C1C0
010100
010100
010100
03C200
023200
021200
046400
0F8E00
000000
000000
ENDCHAR
STARTCHAR 276e
ENCODING 10094
SWIDTH 960 0
DWIDTH 16 0
BBX 21 16 -2 -2
BITMAP
000000
000000
000000
000000
000000
007000
004000
004000
004000
00F800
008600
008200
010C00
03F000
000000
000000
ENDCHAR
STARTCHAR 276f
ENCODING 10095
SWIDTH 960 0
DWIDTH 16 0
BBX 21 16 -2 -2
BITMAP
000000
000000
000000
000000
000000
007800
008400
010200
00E600
011400
000400
020800
021000
01E000
000000
000000
ENDCHAR
STARTCHAR 2770
ENCODING 10096
SWIDTH 960 0
DWIDTH 16 0
BBX 21 16 -2 -2
BITMAP
000000
000000
000000
000000
000000
01CE00
011100
012080
012080
03C100
024100
024200
044400
0E3800
000000
000000
ENDCHAR
STARTCHAR 2771
ENCODING 10097
SWIDTH 960 0
DWIDTH 16 0
BBX 21 16 -2 -2
BITMAP
000000
000000
000000
000000
000000
007F00
008400
010400
010400
00F800
008800
010800
021000
0C3800
000000
000000
ENDCHAR
STARTCHAR 2821
ENCODING 10273
SWIDTH 960 0
DWIDTH 16 0
BBX 21 16 -2 -2
BITMAP
000000
000000
000000
000000
000000
000000
000000
1FFFE0
000000
000000
000000
000000
000000
000000
000000
000000
ENDCHAR
STARTCHAR 2822
ENCODING 10274
SWIDTH 960 0
DWIDTH 16 0
BBX 21 16 -2 -2
BITMAP
000800
000800
000800
001000
001000
001000
002000
002000
002000
004000
004000
004000
008000
008000
008000
010000
ENDCHAR
STARTCHAR 2823
ENCODING 10275
SWIDTH 960 0
DWIDTH 16 0
BBX 21 16 -2 -2
BITMAP
000000
000000
000000
000000
000000
000000
000000
003FE0
002000
004000
004000
004000
008000
008000
008000
010000
ENDCHAR
STARTCHAR 2824
ENCODING 10276
SWIDTH 960 0
DWIDTH 16 0
BBX 21 16 -2 -2
BITMAP
000000
000000
000000
000000
000000
000000
000000
1FE000
002000
004000
004000
004000
008000
008000
008000
010000
ENDCHAR
STARTCHAR 2825
ENCODING 10277
SWIDTH 960 0
DWIDTH 16 0
BBX 21 16 -2 -2
BITMAP
000800
000800
000800
001000
001000
001000
002000
1FE000
000000
000000
000000
000000
000000
000000
000000
000000
ENDCHAR
STARTCHAR 2826
ENCODING 10278
SWIDTH 960 0
DWIDTH 16 0
BBX 21 16 -2 -2
BITMAP
000800
000800
000800
001000
001000
001000
002000
003FE0
000000
000000
000000
000000
000000
000000
000000
000000
ENDCHAR
STARTCHAR 2827
ENCODING 10279
SWIDTH 960 0
DWIDTH 16 0
BBX 21 16 -2 -2
BITMAP
000800
000800
000800
001000
001000
001000
002000
003FE0
002000
004000
004000
004000
008000
008000
008000
010000
ENDCHAR
STARTCHAR 2828
ENCODING 10280
SWIDTH 960 0
DWIDTH 16 0
BBX 21 16 -2 -2
BITMAP
000000
000000
000000
000000
000000
000000
000000
1FFFE0
002000
004000
004000
004000
008000
008000
008000
010000
ENDCHAR
STARTCHAR 2829
ENCODING 10281
SWIDTH 960 0
DWIDTH 16 0
BBX 21 16 -2 -2
BITMAP
000800
000800
000800
001000
001000
001000
002000
1FE000
002000
004000
004000
004000
008000
008000
008000
010000
ENDCHAR
STARTCHAR 282a
ENCODING 10282
SWIDTH 960 0
DWIDTH 16 0
BBX 21 16 -2 -2
BITMAP
000800
000800
000800
001000
001000
001000
002000
1FFFE0
000000
000000
000000
000000
000000
000000
000000
000000
ENDCHAR
STARTCHAR 282b
ENCODING 10283
SWIDTH 960 0
DWIDTH 16 0
BBX 21 16 -2 -2
BITMAP
000800
000800
000800
001000
001000
001000
002000
1FFFE0
002000
004000
004000
004000
008000
008000
008000
010000
ENDCHAR
STARTCHAR 282c
ENCODING 10284
SWIDTH 960 0
DWIDTH 16 0
BBX 21 16 -2 -2
BITMAP
000000
000000
000000
000000
000000
000000
000000
1FFFE0
1FFFE0
000000
000000
000000
000000
000000
000000
000000
ENDCHAR
STARTCHAR 282d
ENCODING 10285
SWIDTH 960 0
DWIDTH 16 0
BBX 21 16 -2 -2
BITMAP
000C00
000C00
000C00
001800
001800
001800
003000
003000
003000
006000
006000
006000
00C000
00C000
00C000
018000
ENDCHAR
STARTCHAR 282e
ENCODING 10286
SWIDTH 960 0
DWIDTH 16 0
BBX 21 16 -2 -2
BITMAP
000000
000000
000000
000000
000000
000000
000000
003FE0
003FE0
006000
006000
006000
00C000
00C000
00C000
018000
ENDCHAR
STARTCHAR 282f
ENCODING 10287
SWIDTH 960 0
DWIDTH 16 0
BBX 21 16 -2 -2
BITMAP
000000
000000
000000
000000
000000
000000
000000
1FF000
1FF000
006000
006000
006000
00C000
00C000
00C000
018000
ENDCHAR
STARTCHAR 2830
ENCODING 10288
SWIDTH 960 0
DWIDTH 16 0
BBX 21 16 -2 -2
BITMAP
000C00
000C00
000C00
001800
001800
001800
003000
1FF000
1FF000
000000
000000
000000
000000
000000
000000
000000
ENDCHAR
STARTCHAR 2831
ENCODING 10289
SWIDTH 960 0
DWIDTH 16 0
BBX 21 16 -2 -2
BITMAP
000C00
000C00
000C00
001800
001800
001800
003000
003FE0
003FE0
000000
000000
000000
000000
000000
000000
000000
ENDCHAR
STARTCHAR 2832
ENCODING 10290
SWIDTH 960 0
DWIDTH 16 0
BBX 21 16 -2 -2
BITMAP
000C00
000C00
000C00
001800
001800
001800
003000
003FE0
003FE0
006000
006000
006000
00C000
00C000
00C000
018000
ENDCHAR
STARTCHAR 2833
ENCODING 10291
SWIDTH 960 0
DWIDTH 16 0
BBX 21 16 -2 -2
BITMAP
000000
000000
000000
000000
000000
000000
000000
1FFFE0
1FFFE0
006000
006000
006000
00C000
00C000
00C000
018000
ENDCHAR
STARTCHAR 2834
ENCODING 10292
SWIDTH 960 0
DWIDTH 16 0
BBX 21 16 -2 -2
BITMAP
000C00
000C00
000C00
001800
001800
001800
003000
1FF000
1FF000
006000
006000
006000
00C000
00C000
00C000
018000
ENDCHAR
STARTCHAR 2835
ENCODING 10293
SWIDTH 960 0
DWIDTH 16 0
BBX 21 16 -2 -2
BITMAP
000C00
000C00
000C00
001800
001800
001800
003000
1FFFE0
1FFFE0
000000
000000
000000
000000
000000
000000
000000
ENDCHAR
STARTCHAR 2836
ENCODING 10294
SWIDTH 960 0
DWIDTH 16 0
BBX 21 16 -2 -2
BITMAP
000C00
000C00
000C00
001800
001800
001800
003000
1FFFE0
1FFFE0
006000
006000
006000
00C000
00C000
00C000
018000
ENDCHAR
STARTCHAR 2837
ENCODING 10295
SWIDTH 960 0
DWIDTH 16 0
BBX 21 16 -2 -2
BITMAP
000C00
000C00
000C00
001800
001800
001800
003000
003FE0
003000
006000
006000
006000
00C000
00C000
00C000
018000
ENDCHAR
STARTCHAR 2838
ENCODING 10296
SWIDTH 960 0
DWIDTH 16 0
BBX 21 16 -2 -2
BITMAP
000000
000000
000000
000000
000000
000000
000000
1FFFE0
1FFFE0
004000
004000
004000
008000
008000
008000
010000
ENDCHAR
STARTCHAR 2839
ENCODING 10297
SWIDTH 960 0
DWIDTH 16 0
BBX 21 16 -2 -2
BITMAP
000C00
000C00
000C00
001800
001800
001800
003000
1FF000
003000
006000
006000
006000
00C000
00C000
00C000
018000
ENDCHAR
STARTCHAR 283a
ENCODING 10298
SWIDTH 960 0
DWIDTH 16 0
BBX 21 16 -2 -2
BITMAP
000800
000800
000800
001000
001000
001000
002000
1FFFE0
1FFFE0
000000
000000
000000
000000
000000
000000
000000
ENDCHAR
STARTCHAR 283b
ENCODING 10299
SWIDTH 960 0
DWIDTH 16 0
BBX 21 16 -2 -2
BITMAP
000800
000800
000800
001000
001000
001000
002000
1FFFE0
1FFFE0
004000
004000
004000
008000
008000
008000
010000
ENDCHAR
STARTCHAR 283c
ENCODING 10300
SWIDTH 960 0
DWIDTH 16 0
BBX 21 16 -2 -2
BITMAP
000800
000800
000800
001000
001000
001000
002000
003FE0
003FE0
004000
004000
004000
008000
008000
008000
010000
ENDCHAR
STARTCHAR 283d
ENCODING 10301
SWIDTH 960 0
DWIDTH 16 0
BBX 21 16 -2 -2
BITMAP
000000
000000
000000
000000
000000
000000
000000
1FFFE0
003000
006000
006000
006000
00C000
00C000
00C000
018000
ENDCHAR
STARTCHAR 283e
ENCODING 10302
SWIDTH 960 0
DWIDTH 16 0
BBX 21 16 -2 -2
BITMAP
000800
000800
000800
001000
001000
001000
002000
1FE000
1FE000
004000
004000
004000
008000
008000
008000
010000
ENDCHAR
STARTCHAR 283f
ENCODING 10303
SWIDTH 960 0
DWIDTH 16 0
BBX 21 16 -2 -2
BITMAP
000C00
000C00
000C00
001800
001800
001800
003000
1FFFE0
000000
000000
000000
000000
000000
000000
000000
000000
ENDCHAR
STARTCHAR 2840
ENCODING 10304
SWIDTH 960 0
DWIDTH 16 0
BBX 21 16 -2 -2
BITMAP
000C00
000C00
000C00
001800
001800
001800
003000
1FFFE0
003000
006000
006000
006000
00C000
00C000
00C000
018000
ENDCHAR
STARTCHAR 3021
ENCODING 12321
SWIDTH 960 0
DWIDTH 16 0
BBX 21 16 -2 -2
BITMAP
000000
01FFF8
001100
002200
002200
01FFC0
024480
024480
024480
048900
07FF00
008800
011000
011000
3FFF80
000000
ENDCHAR
STARTCHAR 3022
ENCODING 12322
SWIDTH 960 0
DWIDTH 16 0
BBX 21 16 -2 -2
BITMAP
000000
003FF8
03C240
048480
048480
04BFE0
094940
094940
094940
12FF80
121200
1E1200
242400
002400
03FF80
000000
ENDCHAR
STARTCHAR 3023
ENCODING 12323
SWIDTH 960 0
DWIDTH 16 0
BBX 21 16 -2 -2
BITMAP
004080
004080
004080
008FE0
07F100
012100
024200
027FE0
048200
0E8400
113F80
030400
050800
080800
30FF80
000000
ENDCHAR
STARTCHAR 3024
ENCODING 12324
SWIDTH 960 0
DWIDTH 16 0
BBX 21 16 -2 -2
BITMAP
000000
01FFF8
012020
024040
029E40
031240
052480
04A480
04A480
094900
097900
0A4900
1C0200
100200
100600
200400
ENDCHAR
STARTCHAR 3025
ENCODING 12325
SWIDTH 960 0
DWIDTH 16 0
BBX 21 16 -2 -2
BITMAP
000400
000400
03FFF8
000000
00FF80
008080
010100
010100
01FF40
006080
03A100
1C9600
010800
01C800
0F0600
300100
ENDCHAR
STARTCHAR 3026
ENCODING 12326
SWIDTH 960 0
DWIDTH 16 0
BBX 21 16 -2 -2
BITMAP
0001E0
00FE40
008880
008900
07FFE0
048820
0A8900
028280
0CBE40
108080
01F800
071000
18A000
00C000
073800
780600
ENDCHAR
STARTCHAR 3027
ENCODING 12327
SWIDTH 960 0
DWIDTH 16 0
BBX 21 16 -2 -2
BITMAP
008200
008280
008440
07C840
013FA0
010820
021000
023FC0
03C400
068800
1CFFC0
041800
082800
084400
098200
360200
ENDCHAR
STARTCHAR 3028
ENCODING 12328
SWIDTH 960 0
DWIDTH 16 0
BBX 21 16 -2 -2
BITMAP
004080
004080
004180
008280
07E440
013820
026020
024F80
048000
088000
1F3F80
112080
054100
084100
307F00
008200
ENDCHAR
STARTCHAR 3029
ENCODING 12329
SWIDTH 960 0
DWIDTH 16 0
BBX 21 16 -2 -2
BITMAP
000400
0107E0
011840
016900
000600
001D80
00E060
0F0400
017F80
020800
027F00
020800
07FF00
0A1000
319000
407F00
ENDCHAR
STARTCHAR 302a
ENCODING 12330
SWIDTH 960 0
DWIDTH 16 0
BBX 21 16 -2 -2
BITMAP
001100
001100
03FFF8
002200
00F480
022720
024480
018300
06FF80
182040
002000
0FFF80
00A000
011000
060C00
380200
ENDCHAR
STARTCHAR 302b
ENCODING 12331
SWIDTH 960 0
DWIDTH 16 0
BBX 21 16 -2 -2
BITMAP
002100
002100
03FFF0
004200
000000
07FFE0
004800
004800
07FF80
089100
089100
090F00
160200
180200
1FFE00
200400
ENDCHAR
STARTCHAR 302c
ENCODING 12332
SWIDTH 960 0
DWIDTH 16 0
BBX 21 16 -2 -2
BITMAP
001200
0063C0
01C480
009FC0
00AA40
008FC0
0FF480
019F80
034400
067F80
0A4880
127F80
249100
04FF00
041080
080F00
ENDCHAR
STARTCHAR 302d
ENCODING 12333
SWIDTH 960 0
DWIDTH 16 0
BBX 21 16 -2 -2
BITMAP
000000
01FFF0
001200
002400
01FF80
012480
024900
03FF00
004800
1FFF80
002000
04A200
092200
110900
210900
00F000
ENDCHAR
STARTCHAR 302e
ENCODING 12334
SWIDTH 960 0
DWIDTH 16 0
BBX 21 16 -2 -2
BITMAP
008000
009FF0
009010
012020
07FFE0
012000
027FC0
024500
03D880
06EE80
1C8880
057F00
0A1000
0C1000
0BFF80
300000
ENDCHAR
STARTCHAR 302f
ENCODING 12335
SWIDTH 960 0
DWIDTH 16 0
BBX 21 16 -2 -2
BITMAP
008000
009FF0
009010
04A020
043FE0
042000
047FC0
004500
025980
02EE80
048880
097F00
0A1000
141000
2BFF80
400000
ENDCHAR
STARTCHAR 3030
ENCODING 12336
SWIDTH 960 0
DWIDTH 16 0
BBX 21 16 -2 -2
BITMAP
004000
0043E0
004220
008440
07F440
009440
012F80
012880
012880
025100
025100
045F00
04A200
088080
304080
403F00
ENDCHAR
STARTCHAR 3031
ENCODING 12337
SWIDTH 960 0
DWIDTH 16 0
BBX 21 16 -2 -2
BITMAP
001080
03FFF8
001080
001000
00FF80
002080
0FFFE0
000000
00FF00
010200
01FE00
001000
07FE00
042000
3FFF80
004000
ENDCHAR
STARTCHAR 3032
ENCODING 12338
SWIDTH 960 0
DWIDTH 16 0
BBX 21 16 -2 -2
BITMAP
001080
001080
03FFF8
002100
000000
03FFE0
000000
01FF80
010080
020100
03FF00
040100
040000
080000
300000
400000
ENDCHAR
STARTCHAR 3033
ENCODING 12339
SWIDTH 960 0
DWIDTH 16 0
BBX 21 16 -2 -2
BITMAP
004080
0070C0
00A360
034DA0
07F100
029FF0
052500
07E980
053660
0A4900
0FC200
01CC80
193000
150400
241800
40E000
ENDCHAR
STARTCHAR 3034
ENCODING 12340
SWIDTH 960 0
DWIDTH 16 0
BBX 21 16 -2 -2
BITMAP
004100
004100
005FF0
07E080
008880
008900
038A00
037FE0
034800
060800
0A0800
127F80
041000
041000
041000
082000
ENDCHAR
STARTCHAR 3035
ENCODING 12341
SWIDTH 960 0
DWIDTH 16 0
BBX 21 16 -2 -2
BITMAP
000000
00FFF0
008000
010400
010400
010400
020800
02FFC0
020800
041000
041000
081000
082000
27FF80
000000
000000
ENDCHAR
STARTCHAR 3036
ENCODING 12342
SWIDTH 960 0
DWIDTH 16 0
BBX 21 16 -2 -2
BITMAP
004080
004080
03F980
008280
03E440
023CA0
046520
07C500
045100
089200
0F9200
0203C0
3F9C00
04E400
040400
080800
ENDCHAR
STARTCHAR 3037
ENCODING 12343
SWIDTH 960 0
DWIDTH 16 0
BBX 21 16 -2 -2
BITMAP
008000
009FC0
008480
010880
07E900
010900
021780
021880
022880
074900
1C4A00
048C00
088C00
091200
1E6100
190100
ENDCHAR
STARTCHAR 3038
ENCODING 12344
SWIDTH 960 0
DWIDTH 16 0
BBX 21 16 -2 -2
BITMAP
000400
000400
01FFF0
028040
028000
050000
01EF80
022880
064880
0A9100
119100
011600
022000
042100
182100
601E00
ENDCHAR
STARTCHAR 3039
ENCODING 12345
SWIDTH 960 0
DWIDTH 16 0
BBX 21 16 -2 -2
BITMAP
004000
0047E0
004420
008840
07F840
012FC0
025080
025080
049080
08A100
1F3F00
012100
054200
084200
33FF80
000000
ENDCHAR
STARTCHAR 303a
ENCODING 12346
SWIDTH 960 0
DWIDTH 16 0
BBX 21 16 -2 -2
BITMAP
004040
004040
004040
03F080
029FF0
029200
052400
052400
07E400
020800
020800
028800
049000
079000
3C8F00
008000
ENDCHAR
STARTCHAR 303b
ENCODING 12347
SWIDTH 960 0
DWIDTH 16 0
BBX 21 16 -2 -2
BITMAP
004100
004100
00A200
012280
029440
07E9C0
047E40
07C040
044000
089F00
0F9100
091100
112200
132200
1CBE00
604400
ENDCHAR
STARTCHAR 303c
ENCODING 12348
SWIDTH 960 0
DWIDTH 16 0
BBX 21 16 -2 -2
BITMAP
004200
004200
009400
06A7E0
016820
019820
016F40
024940
0FCF40
025280
0A1280
0A9E80
14A500
148100
240600
081800
ENDCHAR
STARTCHAR 303d
ENCODING 12349
SWIDTH 960 0
DWIDTH 16 0
BBX 21 16 -2 -2
BITMAP
004100
004100
009FE0
06A200
017FF0
018600
014A40
0251C0
0FF000
029F00
0B2200
0BD400
151000
152800
25C600
0A0100
ENDCHAR
STARTCHAR 303e
ENCODING 12350
SWIDTH 960 0
DWIDTH 16 0
BBX 21 16 -2 -2
BITMAP
004080
007080
00A080
034100
07F1F0
029100
052200
07E200
052200
0A5F80
0FD080
019080
0AA100
152100
253F00
404200
ENDCHAR
STARTCHAR 303f
ENCODING 12351
SWIDTH 960 0
DWIDTH 16 0
BBX 21 16 -2 -2
BITMAP
000240
000220
000220
07FFF0
000400
000440
03E880
022880
022900
044A00
07CA00
046480
019900
062500
39C300
060200
ENDCHAR
STARTCHAR 3040
ENCODING 12352
SWIDTH 960 0
DWIDTH 16 0
BBX 21 16 -2 -2
BITMAP
000000
03FFF8
001100
01FFC0
012240
012240
03FF80
011100
009200
00A400
1FFFC0
00F000
015000
064C00
384300
008000
ENDCHAR
STARTCHAR 3041
ENCODING 12353
SWIDTH 960 0
DWIDTH 16 0
BBX 21 16 -2 -2
BITMAP
004080
004080
004180
07E280
002480
004880
009080
015F40
07E020
0B0000
12BF00
026100
044200
044200
047E00
088400
ENDCHAR
STARTCHAR 3042
ENCODING 12354
SWIDTH 960 0
DWIDTH 16 0
BBX 21 16 -2 -2
BITMAP
000800
000800
01FFF0
022040
042000
002000
004000
0FFFC0
008800
011000
021000
032000
00C000
013000
060800
380800
ENDCHAR
STARTCHAR 3043
ENCODING 12355
SWIDTH 960 0
DWIDTH 16 0
BBX 21 16 -2 -2
BITMAP
000400
000400
00FFF0
010400
01FFE0
011A00
022200
027F80
03CA60
049200
04FE00
089200
092400
11FD00
212100
001E00
ENDCHAR
STARTCHAR 3044
ENCODING 12356
SWIDTH 960 0
DWIDTH 16 0
BBX 21 16 -2 -2
BITMAP
008200
008200
009FF0
012040
07C400
010400
020800
027FE0
039200
1C2200
044400
04F800
081000
082800
18C400
170400
ENDCHAR
STARTCHAR 3045
ENCODING 12357
SWIDTH 960 0
DWIDTH 16 0
BBX 21 16 -2 -2
BITMAP
000100
000100
03FFF0
044880
044480
044700
08FDE0
0F8000
089F80
112100
112100
113F00
3E4200
224200
007E00
008400
ENDCHAR
STARTCHAR 3046
ENCODING 12358
SWIDTH 960 0
DWIDTH 16 0
BBX 21 16 -2 -2
BITMAP
000400
000400
01FFF0
021040
05FF80
002200
01A400
003800
01C600
062100
1FFFC0
00F000
015000
064C00
384300
008000
ENDCHAR
STARTCHAR 3047
ENCODING 12359
SWIDTH 960 0
DWIDTH 16 0
BBX 21 16 -2 -2
BITMAP
000000
03F3F0
021210
07E7E0
042420
042420
0FCFC0
082040
09FE40
109080
17FE80
110880
23F100
221100
23F100
400600
ENDCHAR
STARTCHAR 3048
ENCODING 12360
SWIDTH 960 0
DWIDTH 16 0
BBX 21 16 -2 -2
BITMAP
009080
009080
03FFF8
012420
012A00
01E200
010400
07FFE0
052480
0A4900
0FD100
023A00
3FCC00
041200
046200
098200
ENDCHAR
STARTCHAR 3049
ENCODING 12361
SWIDTH 960 0
DWIDTH 16 0
BBX 21 16 -2 -2
BITMAP
000400
000400
000400
07FFF0
001C00
006A00
009200
031180
0C1060
03FE00
020200
020200
040400
040400
07FC00
080800
ENDCHAR
STARTCHAR 304a
ENCODING 12362
SWIDTH 960 0
DWIDTH 16 0
BBX 21 16 -2 -2
BITMAP
000000
008040
008040
010080
012080
011080
021100
021100
020100
040200
040600
04C900
0B1100
0C2100
30C100
030100
ENDCHAR
STARTCHAR 304b
ENCODING 12363
SWIDTH 960 0
DWIDTH 16 0
BBX 21 16 -2 -2
BITMAP
002000
002FE0
004120
004240
008240
01FFF0
030480
050480
090480
027F00
020900
021000
041000
042000
04C000
090000
ENDCHAR
STARTCHAR 304c
ENCODING 12364
SWIDTH 960 0
DWIDTH 16 0
BBX 21 16 -2 -2
BITMAP
002100
002100
004100
004200
00BFE0
018040
030080
052080
092100
022200
022200
022400
044800
041000
07FF80
080000
ENDCHAR
STARTCHAR 304d
ENCODING 12365
SWIDTH 960 0
DWIDTH 16 0
BBX 21 16 -2 -2
BITMAP
002100
002100
002100
007FF0
008C00
011420
021440
062480
0AE500
054600
064400
044400
088400
08B200
09C100
160100
ENDCHAR
STARTCHAR 304e
ENCODING 12366
SWIDTH 960 0
DWIDTH 16 0
BBX 21 16 -2 -2
BITMAP
002100
002FE0
004220
008440
00FFF0
010000
023F80
062080
0A3F80
040400
047F80
044400
088800
0BFF80
080800
101000
ENDCHAR
STARTCHAR 304f
ENCODING 12367
SWIDTH 960 0
DWIDTH 16 0
BBX 21 16 -2 -2
BITMAP
000000
01FFF0
010010
022220
022220
02FFA0
044440
044440
044440
0FFF80
088880
090880
121100
141100
1FFF00
200200
ENDCHAR
STARTCHAR 3050
ENCODING 12368
SWIDTH 960 0
DWIDTH 16 0
BBX 21 16 -2 -2
BITMAP
000400
000400
03FFF8
000800
03FFC0
000840
03FF80
021000
021000
07FF80
045080
009180
011600
020800
0C0600
700100
ENDCHAR
STARTCHAR 3051
ENCODING 12369
SWIDTH 960 0
DWIDTH 16 0
BBX 21 16 -2 -2
BITMAP
0000C0
00FF00
000400
07FFF0
001C00
006A00
019100
0E10E0
002000
1FFFC0
008400
008800
03D000
042000
00D800
3F0400
ENDCHAR
STARTCHAR 3052
ENCODING 12370
SWIDTH 960 0
DWIDTH 16 0
BBX 21 16 -2 -2
BITMAP
000140
000120
000120
01FFF0
010200
01FA00
024440
024440
03FC80
052500
052600
0BC200
08CB00
115100
266100
408200
ENDCHAR
STARTCHAR 3053
ENCODING 12371
SWIDTH 960 0
DWIDTH 16 0
BBX 21 16 -2 -2
BITMAP
000020
01FC20
010420
020840
03F840
0207F0
05E080
040080
040480
0FE500
088500
0AC100
154200
154200
290200
060C00
ENDCHAR
STARTCHAR 3054
ENCODING 12372
SWIDTH 960 0
DWIDTH 16 0
BBX 21 16 -2 -2
BITMAP
004200
004240
0044C0
008900
00CFE0
02C900
057200
051FC0
091200
022400
023F80
022400
044800
044800
047F80
088000
ENDCHAR
STARTCHAR 3055
ENCODING 12373
SWIDTH 960 0
DWIDTH 16 0
BBX 21 16 -2 -2
BITMAP
000400
01FFF0
002180
002200
07FFF0
000000
00FF00
008100
00FF00
010200
01FE00
052000
092100
112480
210480
00F800
ENDCHAR
STARTCHAR 3056
ENCODING 12374
SWIDTH 960 0
DWIDTH 16 0
BBX 21 16 -2 -2
BITMAP
000020
01FC20
010420
03F440
0203F0
02F040
040480
07F280
044280
0AA100
15A100
014300
0A4000
0A4900
120900
61F100
ENDCHAR
STARTCHAR 3057
ENCODING 12375
SWIDTH 960 0
DWIDTH 16 0
BBX 21 16 -2 -2
BITMAP
000000
007F80
004080
008100
00FF00
008100
010200
01FE00
004000
01FF00
062500
18C900
031200
0C2200
00C400
003800
ENDCHAR
STARTCHAR 3058
ENCODING 12376
SWIDTH 960 0
DWIDTH 16 0
BBX 21 16 -2 -2
BITMAP
004100
004100
005FF0
07E200
008500
008880
039080
037FE0
034080
067900
0A4900
124900
04F200
049200
040200
080C00
ENDCHAR
STARTCHAR 3059
ENCODING 12377
SWIDTH 960 0
DWIDTH 16 0
BBX 21 16 -2 -2
BITMAP
008400
004400
004400
03FF80
001080
001300
003D80
004080
008080
01FFC0
020040
092440
1D2480
249480
049100
080600
ENDCHAR
STARTCHAR 305a
ENCODING 12378
SWIDTH 960 0
DWIDTH 16 0
BBX 21 16 -2 -2
BITMAP
000000
00FFC0
008440
010880
01FF80
010880
021100
03FF00
000000
1FFFC0
024100
022600
042800
059000
0E0C00
300300
ENDCHAR
STARTCHAR 305b
ENCODING 12379
SWIDTH 960 0
DWIDTH 16 0
BBX 21 16 -2 -2
BITMAP
000000
00FFE0
008420
010840
01FFC0
010840
021080
03FF80
004400
07FF00
008800
008800
3FFF80
011800
060400
380200
ENDCHAR
STARTCHAR 305c
ENCODING 12380
SWIDTH 960 0
DWIDTH 16 0
BBX 21 16 -2 -2
BITMAP
000900
0031F0
01C220
008C40
009680
07E300
010400
011900
0383E0
068440
0A4880
123580
240200
040400
041800
09E000
ENDCHAR
STARTCHAR 305d
ENCODING 12381
SWIDTH 960 0
DWIDTH 16 0
BBX 21 16 -2 -2
BITMAP
004100
004120
009260
06A480
0147F0
019C80
016900
024FC0
0FC900
025200
0B1F80
0A9200
14A400
14A400
243F80
084000
ENDCHAR
STARTCHAR 305e
ENCODING 12382
SWIDTH 960 0
DWIDTH 16 0
BBX 21 16 -2 -2
BITMAP
004080
0047E0
009120
06A240
017FF0
018000
014FC0
024840
0FCFC0
024200
0B1F80
0B1200
152400
14FF80
240400
080800
ENDCHAR
STARTCHAR 305f
ENCODING 12383
SWIDTH 960 0
DWIDTH 16 0
BBX 21 16 -2 -2
BITMAP
000000
01FFE0
010820
021040
03FFC0
021040
07FF80
000000
03FF00
040200
07FE00
040200
0FFC00
080400
080400
101800
ENDCHAR
STARTCHAR 3060
ENCODING 12384
SWIDTH 960 0
DWIDTH 16 0
BBX 21 16 -2 -2
BITMAP
001080
03FFF8
001080
000380
01FC00
000800
0FFFE0
005400
019200
0E2180
1FFFC0
018800
021000
0FE000
039800
3C0400
ENDCHAR
STARTCHAR 3061
ENCODING 12385
SWIDTH 960 0
DWIDTH 16 0
BBX 21 16 -2 -2
BITMAP
000400
000400
000400
000800
07FFF0
001800
003080
004880
008B00
070C00
190800
010400
020400
02E200
0F0100
300100
ENDCHAR
STARTCHAR 3062
ENCODING 12386
SWIDTH 960 0
DWIDTH 16 0
BBX 21 16 -2 -2
BITMAP
000000
01F7F0
000490
07FFE0
000920
03E920
001FC0
000000
07CFC0
001080
0F9F80
089080
113F00
112100
1F2100
224600
ENDCHAR
STARTCHAR 3063
ENCODING 12387
SWIDTH 960 0
DWIDTH 16 0
BBX 21 16 -2 -2
BITMAP
000100
011FE0
010220
010440
007FF0
000000
003F80
0F2080
013F80
020400
027F80
024400
07FF80
0A0800
318800
407F00
ENDCHAR
STARTCHAR 3064
ENCODING 12388
SWIDTH 960 0
DWIDTH 16 0
BBX 21 16 -2 -2
BITMAP
000100
010FC0
010940
011F80
000200
007FE0
000000
0F3F00
012100
027E00
024200
027E00
068400
0AFC00
318200
407F00
ENDCHAR
STARTCHAR 3065
ENCODING 12389
SWIDTH 960 0
DWIDTH 16 0
BBX 21 16 -2 -2
BITMAP
000000
01FFF0
010800
021000
023FC0
02C400
050800
07FFC0
041400
082400
084200
098200
120200
140000
1FFF00
200000
ENDCHAR
STARTCHAR 3066
ENCODING 12390
SWIDTH 960 0
DWIDTH 16 0
BBX 21 16 -2 -2
BITMAP
002100
002100
002100
004200
03FFC0
004200
008400
008400
008400
1FFF80
010800
020800
021000
041000
081000
102000
ENDCHAR
STARTCHAR 3067
ENCODING 12391
SWIDTH 960 0
DWIDTH 16 0
BBX 21 16 -2 -2
BITMAP
000400
000400
000400
07FFF0
001000
002300
034400
008800
007100
004400
018800
063800
004800
018400
0E0400
700400
ENDCHAR
STARTCHAR 3068
ENCODING 12392
SWIDTH 960 0
DWIDTH 16 0
BBX 21 16 -2 -2
BITMAP
008080
0080A0
008090
013FF0
010100
07FD20
024A40
024A40
024A80
04F300
049300
078A00
0C6680
318A80
063180
004100
ENDCHAR
STARTCHAR 3069
ENCODING 12393
SWIDTH 960 0
DWIDTH 16 0
BBX 21 16 -2 -2
BITMAP
000400
000400
03FFF8
002200
004180
01FE40
0E0040
01FF00
010100
020200
03FE00
020200
07FC00
040400
040C00
080800
ENDCHAR
STARTCHAR 306a
ENCODING 12394
SWIDTH 960 0
DWIDTH 16 0
BBX 21 16 -2 -2
BITMAP
002000
0020F0
03FF90
004120
008140
00F980
031280
031240
05F240
1A2440
022440
03E680
044B00
044800
04C800
089000
ENDCHAR
STARTCHAR 306b
ENCODING 12395
SWIDTH 960 0
DWIDTH 16 0
BBX 21 16 -2 -2
BITMAP
000520
03F520
009F80
010A40
010AA0
0237D0
04DC80
078440
04FFE0
192500
092500
093600
1E5480
128A80
131180
0C4100
ENDCHAR
STARTCHAR 306c
ENCODING 12396
SWIDTH 960 0
DWIDTH 16 0
BBX 21 16 -2 -2
BITMAP
000000
000000
000000
000000
000000
000000
000040
0FFFE0
000000
000000
000000
000000
000000
000000
000000
000000
ENDCHAR
STARTCHAR 306d
ENCODING 12397
SWIDTH 960 0
DWIDTH 16 0
BBX 21 16 -2 -2
BITMAP
000800
000800
03FFF0
001000
001000
01FF80
000000
07FFC0
080080
120800
023000
03C000
040000
040400
020400
01F800
ENDCHAR
STARTCHAR 306e
ENCODING 12398
SWIDTH 960 0
DWIDTH 16 0
BBX 21 16 -2 -2
BITMAP
009020
004840
004840
00FFF0
040900
041080
042080
004080
018040
06FF40
04A900
08A900
095200
115200
27FF80
400000
ENDCHAR
STARTCHAR 306f
ENCODING 12399
SWIDTH 960 0
DWIDTH 16 0
BBX 21 16 -2 -2
BITMAP
000200
0103C0
010480
011900
007FC0
001240
002480
0F2480
013F80
021400
021400
022440
06C480
090380
30C000
403F00
ENDCHAR
STARTCHAR 3070
ENCODING 12400
SWIDTH 960 0
DWIDTH 16 0
BBX 21 16 -2 -2
BITMAP
001020
0060C0
01C700
008020
008A20
07FE40
010A80
010100
0397C0
06A880
0AA880
122F80
245100
045100
045F00
08A200
ENDCHAR
STARTCHAR 3071
ENCODING 12401
SWIDTH 960 0
DWIDTH 16 0
BBX 21 16 -2 -2
BITMAP
001080
001080
03FFF8
002100
002900
010800
011FC0
011440
002480
004800
028C00
041C00
082400
104200
218100
0E0100
ENDCHAR
STARTCHAR 3072
ENCODING 12402
SWIDTH 960 0
DWIDTH 16 0
BBX 21 16 -2 -2
BITMAP
001080
001080
03FFF8
002100
002100
000000
03FF80
001000
001000
1FFFC0
002000
002000
004000
004000
01C000
008000
ENDCHAR
STARTCHAR 3073
ENCODING 12403
SWIDTH 960 0
DWIDTH 16 0
BBX 21 16 -2 -2
BITMAP
004000
007FF0
00B110
034220
07EEE0
02A880
055100
07DDC0
054640
0AAA80
0FAA80
019980
1AD500
159900
253100
40CC00
ENDCHAR
STARTCHAR 3074
ENCODING 12404
SWIDTH 960 0
DWIDTH 16 0
BBX 21 16 -2 -2
BITMAP
000800
000800
001200
001200
002180
00DF40
0F6840
004800
008800
009000
011000
021000
022000
042100
181100
200E00
ENDCHAR
STARTCHAR 3075
ENCODING 12405
SWIDTH 960 0
DWIDTH 16 0
BBX 21 16 -2 -2
BITMAP
000800
003000
01C3F0
020420
020420
020420
07E840
040840
040840
081080
0FD080
081700
102000
002000
002000
004000
ENDCHAR
STARTCHAR 3076
ENCODING 12406
SWIDTH 960 0
DWIDTH 16 0
BBX 21 16 -2 -2
BITMAP
000000
001FF0
03D110
04A220
04A220
04A220
097FC0
094440
094440
128C80
129480
1EE280
258300
010100
01FF00
020200
ENDCHAR
STARTCHAR 3077
ENCODING 12407
SWIDTH 960 0
DWIDTH 16 0
BBX 21 16 -2 -2
BITMAP
000000
007FC0
004040
008080
00FF80
000000
03FF80
020080
03FF80
040100
07FF00
040100
0FFE00
011800
060400
380200
ENDCHAR
STARTCHAR 3078
ENCODING 12408
SWIDTH 960 0
DWIDTH 16 0
BBX 21 16 -2 -2
BITMAP
000000
01FFF0
010010
020820
020820
020820
07FFC0
042840
044840
084880
088880
0B0480
140500
100100
1FFF00
200200
ENDCHAR
STARTCHAR 3079
ENCODING 12409
SWIDTH 960 0
DWIDTH 16 0
BBX 21 16 -2 -2
BITMAP
004000
0047F0
004410
008920
07E920
012FE0
025240
025240
049640
08AA80
1F2A80
013180
054100
084100
307F00
008200
ENDCHAR
STARTCHAR 307a
ENCODING 12410
SWIDTH 960 0
DWIDTH 16 0
BBX 21 16 -2 -2
BITMAP
000020
03FC20
000420
000840
000840
03F840
040080
040080
040080
0FE100
082100
002100
004200
004200
018200
0E0400
ENDCHAR
STARTCHAR 307b
ENCODING 12411
SWIDTH 960 0
DWIDTH 16 0
BBX 21 16 -2 -2
BITMAP
004100
004100
00E100
01A200
0297F0
07E620
044A40
07D280
046200
088400
0F8A00
0A1200
121200
132200
1D4100
618100
ENDCHAR
STARTCHAR 307c
ENCODING 12412
SWIDTH 960 0
DWIDTH 16 0
BBX 21 16 -2 -2
BITMAP
008020
0040C0
005F10
042420
021240
021280
000180
003E00
010400
010800
04FFC0
080800
081000
101000
21FF00
400000
ENDCHAR
STARTCHAR 307d
ENCODING 12413
SWIDTH 960 0
DWIDTH 16 0
BBX 21 16 -2 -2
BITMAP
008420
008420
00BB20
011440
010840
013340
03DD80
020080
027C80
048900
04F900
088900
09F200
111280
211280
426300
ENDCHAR
STARTCHAR 307e
ENCODING 12414
SWIDTH 960 0
DWIDTH 16 0
BBX 21 16 -2 -2
BITMAP
001080
03FFF8
002080
002100
03C300
028D80
051680
066060
051F00
090400
097F00
0B0000
1CFF00
102400
10DA00
216200
ENDCHAR
STARTCHAR 3121
ENCODING 12577
SWIDTH 960 0
DWIDTH 16 0
BBX 21 16 -2 -2
BITMAP
000080
01E080
012FF8
025010
029010
030FE0
050000
048000
04FFE0
091200
091200
0E2200
142400
104480
118480
220300
ENDCHAR
STARTCHAR 3122
ENCODING 12578
SWIDTH 960 0
DWIDTH 16 0
BBX 21 16 -2 -2
BITMAP
000100
01E100
012280
024C80
029740
032030
051F00
048200
048C00
097700
090000
0BFFC0
1C2800
104400
13FC00
200400
ENDCHAR
STARTCHAR 3123
ENCODING 12579
SWIDTH 960 0
DWIDTH 16 0
BBX 21 16 -2 -2
BITMAP
000030
01E0D0
013F20
025140
028980
031FE0
050040
049FC0
048040
097F80
090400
0A5480
1CA480
10A080
111280
200C00
ENDCHAR
STARTCHAR 3124
ENCODING 12580
SWIDTH 960 0
DWIDTH 16 0
BBX 21 16 -2 -2
BITMAP
004000
0047E0
03FC20
022840
012FC0
01C000
0F7F80
001080
07DF80
08A100
08BF00
0FA100
117E00
112400
1FC200
230200
ENDCHAR
STARTCHAR 3125
ENCODING 12581
SWIDTH 960 0
DWIDTH 16 0
BBX 21 16 -2 -2
BITMAP
000040
000040
03E040
044080
047FF0
044080
08A100
089100
089100
111200
110200
1F0200
220400
200400
000C00
000800
ENDCHAR
STARTCHAR 3126
ENCODING 12582
SWIDTH 960 0
DWIDTH 16 0
BBX 21 16 -2 -2
BITMAP
000800
000800
000800
07FFE0
002000
002000
004000
008000
00FF00
030200
050200
190200
220400
020400
03FC00
040800
ENDCHAR
STARTCHAR 3127
ENCODING 12583
SWIDTH 960 0
DWIDTH 16 0
BBX 21 16 -2 -2
BITMAP
000800
000800
01FFF0
020040
020000
04FF00
002000
002000
002000
1FFF80
004000
004000
008000
008000
038000
010000
ENDCHAR
STARTCHAR 3128
ENCODING 12584
SWIDTH 960 0
DWIDTH 16 0
BBX 21 16 -2 -2
BITMAP
000400
000800
00FF80
010100
010100
010100
03FE00
020000
03FFE0
040000
07FF80
000880
148900
124900
224200
401C00
ENDCHAR
STARTCHAR 3129
ENCODING 12585
SWIDTH 960 0
DWIDTH 16 0
BBX 21 16 -2 -2
BITMAP
000000
01FBF0
000810
001020
011220
011120
012240
002040
00E0C0
014280
064C80
187080
008100
008100
008100
030600
ENDCHAR
STARTCHAR 312a
ENCODING 12586
SWIDTH 960 0
DWIDTH 16 0
BBX 21 16 -2 -2
BITMAP
000000
011FE0
010100
010200
000200
000200
00FFC0
0F0400
010400
020800
020800
020800
067000
091000
30C000
403F00
ENDCHAR
STARTCHAR 312b
ENCODING 12587
SWIDTH 960 0
DWIDTH 16 0
BBX 21 16 -2 -2
BITMAP
000000
03FFF8
000400
000800
03FFE0
020820
051440
049240
049240
082080
0A2880
0A2480
124900
104100
104700
200200
ENDCHAR
STARTCHAR 312c
ENCODING 12588
SWIDTH 960 0
DWIDTH 16 0
BBX 21 16 -2 -2
BITMAP
001000
006000
0183E0
022440
022440
022440
044880
044880
044880
089100
0F9100
189200
012C00
022000
0C2000
104000
ENDCHAR
STARTCHAR 312d
ENCODING 12589
SWIDTH 960 0
DWIDTH 16 0
BBX 21 16 -2 -2
BITMAP
011080
009100
00A3E0
07F440
0097C0
03F440
050F80
050800
07EFE0
025000
065F80
0ED480
175500
245500
048200
080C00
ENDCHAR
STARTCHAR 312e
ENCODING 12590
SWIDTH 960 0
DWIDTH 16 0
BBX 21 16 -2 -2
BITMAP
000800
000800
01FFF0
022440
04C7E0
020000
011F80
07D080
011F80
022100
1FFF00
022100
067E00
091480
306480
430300
ENDCHAR
STARTCHAR 312f
ENCODING 12591
SWIDTH 960 0
DWIDTH 16 0
BBX 21 16 -2 -2
BITMAP
000000
00FF80
001080
002100
002100
002100
004200
0FFFC0
008200
010400
010400
010400
020800
020800
3FFF80
000000
ENDCHAR
STARTCHAR 3130
ENCODING 12592
SWIDTH 960 0
DWIDTH 16 0
BBX 21 16 -2 -2
BITMAP
000120
03F920
004240
0087F0
008880
013880
03D100
065FC0
0E5100
14A200
04BF80
04A200
0F4400
094400
087F80
008000
ENDCHAR
STARTCHAR 3131
ENCODING 12593
SWIDTH 960 0
DWIDTH 16 0
BBX 21 16 -2 -2
BITMAP
000400
001800
00E3E0
010040
010040
010040
020080
020080
03CF80
040100
040100
040100
080200
080200
0FFE00
100400
ENDCHAR
STARTCHAR 3132
ENCODING 12594
SWIDTH 960 0
DWIDTH 16 0
BBX 21 16 -2 -2
BITMAP
008000
004FC0
004840
001080
001780
041480
042900
047FC0
024040
02BC80
04A480
08A480
097900
114900
210100
420600
ENDCHAR
STARTCHAR 3133
ENCODING 12595
SWIDTH 960 0
DWIDTH 16 0
BBX 21 16 -2 -2
BITMAP
000100
0001F0
03C100
04BFF0
04A420
04A7C0
097800
094840
094FC0
128A00
1ECA80
134B00
025600
041400
09FF80
000000
ENDCHAR
STARTCHAR 3134
ENCODING 12596
SWIDTH 960 0
DWIDTH 16 0
BBX 21 16 -2 -2
BITMAP
000000
0003F0
01F210
022420
022420
0227E0
044840
044840
044FC0
089080
089080
0F9080
113F00
001200
006100
038100
ENDCHAR
STARTCHAR 3135
ENCODING 12597
SWIDTH 960 0
DWIDTH 16 0
BBX 21 16 -2 -2
BITMAP
009240
03EDF8
009660
0399A0
056690
07FF80
048880
07FF80
07C100
04BFC0
078200
04A200
0F2400
0A0400
1D0400
611800
ENDCHAR
STARTCHAR 3136
ENCODING 12598
SWIDTH 960 0
DWIDTH 16 0
BBX 21 16 -2 -2
BITMAP
002100
002100
03FFF8
004200
000040
03F840
041080
07FFE0
040080
0BD100
080900
0FE900
158200
154200
294600
060400
ENDCHAR
STARTCHAR 3137
ENCODING 12599
SWIDTH 960 0
DWIDTH 16 0
BBX 21 16 -2 -2
BITMAP
004000
0073E0
00A220
0347C0
07F440
0297C0
052000
07FFC0
053540
0A7F80
0FC000
01FF00
192400
151800
247600
418100
ENDCHAR
STARTCHAR 3138
ENCODING 12600
SWIDTH 960 0
DWIDTH 16 0
BBX 21 16 -2 -2
BITMAP
004100
004120
004FE0
008280
07E280
012300
027FE0
024400
048800
08B100
1F5600
139800
052000
082100
302100
001E00
ENDCHAR
STARTCHAR 3139
ENCODING 12601
SWIDTH 960 0
DWIDTH 16 0
BBX 21 16 -2 -2
BITMAP
000000
00FFF8
008000
017BE0
014A80
014A80
02F500
029500
029FE0
05E200
050600
094600
0A4C00
12D480
276480
188300
ENDCHAR
STARTCHAR 313a
ENCODING 12602
SWIDTH 960 0
DWIDTH 16 0
BBX 21 16 -2 -2
BITMAP
008120
004110
007FF8
000200
040200
043FE0
044440
004440
027FC0
028880
048880
08FF80
091100
111100
211300
422200
ENDCHAR
STARTCHAR 313b
ENCODING 12603
SWIDTH 960 0
DWIDTH 16 0
BBX 21 16 -2 -2
BITMAP
000040
000380
00FC00
010100
011100
011100
022200
022200
022200
044200
045200
085200
089400
10FA00
270A00
401200
ENDCHAR
STARTCHAR 313c
ENCODING 12604
SWIDTH 960 0
DWIDTH 16 0
BBX 21 16 -2 -2
BITMAP
000000
03F3F0
021210
07E7E0
042420
07E7E0
080040
09FE40
082040
104080
11F880
104080
208100
2FFD00
200300
400200
ENDCHAR
STARTCHAR 313d
ENCODING 12605
SWIDTH 960 0
DWIDTH 16 0
BBX 21 16 -2 -2
BITMAP
000840
000480
03FFF8
048A00
04BFC0
04BA40
096380
097F80
094080
12FF00
1E0400
13FFC0
010800
008800
008800
003000
ENDCHAR
STARTCHAR 313e
ENCODING 12606
SWIDTH 960 0
DWIDTH 16 0
BBX 21 16 -2 -2
BITMAP
000000
000000
00FFC0
000000
000000
000000
0FFFC0
002000
004000
004800
008400
030400
047E00
3F8200
000200
000400
ENDCHAR
STARTCHAR 313f
ENCODING 12607
SWIDTH 960 0
DWIDTH 16 0
BBX 21 16 -2 -2
BITMAP
000000
011FF8
012110
014200
003FE0
000200
007F80
0F4480
017F80
028900
02FF00
020800
07FF00
091000
30C000
403F00
ENDCHAR
STARTCHAR 3140
ENCODING 12608
SWIDTH 960 0
DWIDTH 16 0
BBX 21 16 -2 -2
BITMAP
000000
01FFE0
000400
03FFE0
020820
07EBC0
081000
03D780
000000
07FE00
000000
1FFF80
012000
021800
1FE400
000400
ENDCHAR
STARTCHAR 3141
ENCODING 12609
SWIDTH 960 0
DWIDTH 16 0
BBX 21 16 -2 -2
BITMAP
001100
001100
03FFF8
002200
002200
0040C0
008300
013E00
010200
060400
0AFFC0
120400
040800
040800
04FF00
080000
ENDCHAR
STARTCHAR 3142
ENCODING 12610
SWIDTH 960 0
DWIDTH 16 0
BBX 21 16 -2 -2
BITMAP
004000
004FF8
00A220
012440
029440
07E7C0
044880
07C880
044F80
089100
0F9100
0911C0
113E00
136200
1D8200
610400
ENDCHAR
STARTCHAR 3143
ENCODING 12611
SWIDTH 960 0
DWIDTH 16 0
BBX 21 16 -2 -2
BITMAP
004000
007BE0
004020
07FA40
040A40
03F240
00A480
059480
094500
07E500
0C5200
17C600
088A00
0F9200
08E100
1F0100
ENDCHAR
STARTCHAR 3144
ENCODING 12612
SWIDTH 960 0
DWIDTH 16 0
BBX 21 16 -2 -2
BITMAP
009040
004840
004980
03FEE0
020040
04FF00
010200
010200
01FE00
004000
008000
07FE00
080400
080400
0FFC00
100800
ENDCHAR
STARTCHAR 3145
ENCODING 12613
SWIDTH 960 0
DWIDTH 16 0
BBX 21 16 -2 -2
BITMAP
000000
01F3E0
011220
03E7C0
022440
03E7C0
044880
07CF80
064480
085080
1FFFC0
018800
021000
07E000
03B000
3C0800
ENDCHAR
STARTCHAR 3146
ENCODING 12614
SWIDTH 960 0
DWIDTH 16 0
BBX 21 16 -2 -2
BITMAP
000020
00FC20
008440
01F880
010920
01FA40
008040
0FF880
000340
07E440
042080
07E100
020100
124200
222C00
0C1000
ENDCHAR
STARTCHAR 3147
ENCODING 12615
SWIDTH 960 0
DWIDTH 16 0
BBX 21 16 -2 -2
BITMAP
000100
000100
03C100
049FC0
049240
049240
0F2480
092480
09FFE0
120800
121400
1E2400
244400
008200
030100
0C0100
ENDCHAR
STARTCHAR 3148
ENCODING 12616
SWIDTH 960 0
DWIDTH 16 0
BBX 21 16 -2 -2
BITMAP
000800
000800
00FFC0
011080
011080
01FF80
022100
022100
03FF80
044200
004400
003800
00C100
072100
381900
000600
ENDCHAR
STARTCHAR 3149
ENCODING 12617
SWIDTH 960 0
DWIDTH 16 0
BBX 21 16 -2 -2
BITMAP
011040
008840
008480
008B00
03FFE0
040040
082000
002000
0FFFC0
00E000
015000
064800
088400
308300
008000
010000
ENDCHAR
STARTCHAR 314a
ENCODING 12618
SWIDTH 960 0
DWIDTH 16 0
BBX 21 16 -2 -2
BITMAP
001800
000400
000600
007800
000840
000880
07D900
005A00
009C00
00A800
012400
062200
084200
304180
01C000
008000
ENDCHAR
STARTCHAR 314b
ENCODING 12619
SWIDTH 960 0
DWIDTH 16 0
BBX 21 16 -2 -2
BITMAP
008600
004100
004080
000000
041E20
040240
040440
00F680
002700
002C00
044A00
088A00
091200
121100
247080
402000
ENDCHAR
STARTCHAR 314c
ENCODING 12620
SWIDTH 960 0
DWIDTH 16 0
BBX 21 16 -2 -2
BITMAP
008200
004200
005FE0
00A440
042440
043FC0
044880
044880
027FC0
021100
041200
081C00
081000
106880
278480
400300
ENDCHAR
STARTCHAR 314d
ENCODING 12621
SWIDTH 960 0
DWIDTH 16 0
BBX 21 16 -2 -2
BITMAP
000440
000440
03FFF8
010880
010A80
010200
023F80
0FA480
022480
044900
05FFC0
041C00
0E2400
384200
018100
0E0100
ENDCHAR
STARTCHAR 314e
ENCODING 12622
SWIDTH 960 0
DWIDTH 16 0
BBX 21 16 -2 -2
BITMAP
000000
01FFC0
002040
004080
007EE0
00A420
012840
021040
0C6B80
138C00
07FF00
048900
091200
091200
3FFF80
000000
ENDCHAR
STARTCHAR 314f
ENCODING 12623
SWIDTH 960 0
DWIDTH 16 0
BBX 21 16 -2 -2
BITMAP
010000
0117F8
01E180
020200
0217E0
01F420
000840
006FC0
078840
011F80
1FF080
079080
0ABF00
125200
226100
058100
ENDCHAR
STARTCHAR 3150
ENCODING 12624
SWIDTH 960 0
DWIDTH 16 0
BBX 21 16 -2 -2
BITMAP
010000
0117F8
01E180
020200
0217E0
01F420
000840
03CFC0
000840
1FFF80
011080
059080
0ABF00
129200
226100
0D8100
ENDCHAR
STARTCHAR 3151
ENCODING 12625
SWIDTH 960 0
DWIDTH 16 0
BBX 21 16 -2 -2
BITMAP
002080
002080
03FFF8
004100
004900
000800
03FF80
021080
021080
042100
1FFFC0
00D000
011000
020800
0C0600
700100
ENDCHAR
STARTCHAR 3152
ENCODING 12626
SWIDTH 960 0
DWIDTH 16 0
BBX 21 16 -2 -2
BITMAP
004800
005F70
008900
011200
027F00
044000
00FFE0
014480
027C80
0C1100
15FD00
045100
08A200
0BFA00
082600
104400
ENDCHAR
STARTCHAR 3153
ENCODING 12627
SWIDTH 960 0
DWIDTH 16 0
BBX 21 16 -2 -2
BITMAP
000200
01E100
000080
07E020
000E20
03C240
000640
007E80
078D00
001900
0F2900
094900
129100
131080
1E3000
242000
ENDCHAR
STARTCHAR 3154
ENCODING 12628
SWIDTH 960 0
DWIDTH 16 0
BBX 21 16 -2 -2
BITMAP
004220
004120
00A1C0
012360
021420
07E420
010840
010840
0FEFC0
020A00
128A00
131200
161400
05A480
1E4480
610300
ENDCHAR
STARTCHAR 3155
ENCODING 12629
SWIDTH 960 0
DWIDTH 16 0
BBX 21 16 -2 -2
BITMAP
008100
004100
007FF8
000900
040900
0413C0
042480
006680
02AF80
025500
046200
084600
088A00
109200
20E100
418100
ENDCHAR
STARTCHAR 3156
ENCODING 12630
SWIDTH 960 0
DWIDTH 16 0
BBX 21 16 -2 -2
BITMAP
000200
000200
007FF8
048000
029F00
029120
012140
0120C0
07C000
0B7E00
122400
042800
083000
102800
20C400
0F0200
ENDCHAR
STARTCHAR 3157
ENCODING 12631
SWIDTH 960 0
DWIDTH 16 0
BBX 21 16 -2 -2
BITMAP
004080
002080
002100
002600
07FFF0
004100
008100
010100
060080
0BFE80
125200
025200
04A400
04A400
3FFF00
000000
ENDCHAR
STARTCHAR 3158
ENCODING 12632
SWIDTH 960 0
DWIDTH 16 0
BBX 21 16 -2 -2
BITMAP
000000
01FDF0
012110
024220
03F220
024220
07E7C0
048640
048600
0FEA00
052A00
0F3200
155200
146200
21C100
068100
ENDCHAR
STARTCHAR 3159
ENCODING 12633
SWIDTH 960 0
DWIDTH 16 0
BBX 21 16 -2 -2
BITMAP
004420
004220
0042C0
008740
02C840
02C840
055080
051080
091F80
021400
021400
022400
042800
044900
058900
0A0600
ENDCHAR
STARTCHAR 315a
ENCODING 12634
SWIDTH 960 0
DWIDTH 16 0
BBX 21 16 -2 -2
BITMAP
000000
01E7E0
000420
07FFC0
000840
03E840
001F80
000800
07CFC0
003280
0FB480
08D880
112500
111D00
1F0200
220C00
ENDCHAR
STARTCHAR 315b
ENCODING 12635
SWIDTH 960 0
DWIDTH 16 0
BBX 21 16 -2 -2
BITMAP
0020A0
002090
002080
01F7F0
004500
004520
07FA40
008A40
028A80
05D300
051A40
096D40
0E1180
126080
218000
407F00
ENDCHAR
STARTCHAR 315c
ENCODING 12636
SWIDTH 960 0
DWIDTH 16 0
BBX 21 16 -2 -2
BITMAP
000000
03F3F0
021210
07E7E0
042420
07E7E0
088840
085040
09FC40
120880
120880
13F880
214100
214900
223900
4C0600
ENDCHAR
STARTCHAR 315d
ENCODING 12637
SWIDTH 960 0
DWIDTH 16 0
BBX 21 16 -2 -2
BITMAP
004000
005FF8
004100
07EFC0
008840
008FC0
039080
035F80
035080
067F00
0A0800
121F00
04E400
041800
04E600
0B0100
ENDCHAR
STARTCHAR 315e
ENCODING 12638
SWIDTH 960 0
DWIDTH 16 0
BBX 21 16 -2 -2
BITMAP
000000
01FFF8
010000
02F8A0
028890
02F880
051FE0
05F100
040100
0BE300
0A2500
0BE500
144900
17D100
246100
498100
ENDCHAR
STARTCHAR 315f
ENCODING 12639
SWIDTH 960 0
DWIDTH 16 0
BBX 21 16 -2 -2
BITMAP
000000
01FFE0
010820
021040
021040
021040
042080
07FF80
040080
080100
080100
080100
100200
100200
100600
200400
ENDCHAR
STARTCHAR 3160
ENCODING 12640
SWIDTH 960 0
DWIDTH 16 0
BBX 21 16 -2 -2
BITMAP
000000
01FFF0
010410
027F20
020820
03FFE0
040040
04FE40
048240
09FC80
08D280
0B4C80
1C8F00
108100
1FFF00
200200
ENDCHAR
STARTCHAR 3161
ENCODING 12641
SWIDTH 960 0
DWIDTH 16 0
BBX 21 16 -2 -2
BITMAP
008000
009FF8
009000
012FC0
012840
07EFC0
025080
025F80
024400
04FFC0
059200
0EBC00
311400
016200
01FF80
020000
ENDCHAR
STARTCHAR 3162
ENCODING 12642
SWIDTH 960 0
DWIDTH 16 0
BBX 21 16 -2 -2
BITMAP
000400
000400
03FFF8
001400
002200
004900
03FF80
0D1260
011200
03FC00
022400
022400
07F800
044900
004100
003E00
ENDCHAR
STARTCHAR 3163
ENCODING 12643
SWIDTH 960 0
DWIDTH 16 0
BBX 21 16 -2 -2
BITMAP
000800
000800
01FFF0
020040
02FF00
048100
01FE00
010200
01FE00
004000
1FFF80
018800
021000
07E000
039000
3C0800
ENDCHAR
STARTCHAR 3164
ENCODING 12644
SWIDTH 960 0
DWIDTH 16 0
BBX 21 16 -2 -2
BITMAP
000020
03E0C0
002F80
004100
008100
030900
0593C0
009200
049200
052400
052400
062400
07FF80
090000
30C000
403F00
ENDCHAR
STARTCHAR 3165
ENCODING 12645
SWIDTH 960 0
DWIDTH 16 0
BBX 21 16 -2 -2
BITMAP
004000
007BF0
009210
009420
0324C0
04C400
008420
010420
0603E0
184000
012000
052100
0A2100
120480
210480
00F800
ENDCHAR
STARTCHAR 3166
ENCODING 12646
SWIDTH 960 0
DWIDTH 16 0
BBX 21 16 -2 -2
BITMAP
008100
008100
00BFF8
010500
07CA80
011240
027FC0
02A4A0
022480
077F00
1C4900
044900
08FE00
081080
081080
300F00
ENDCHAR
STARTCHAR 3167
ENCODING 12647
SWIDTH 960 0
DWIDTH 16 0
BBX 21 16 -2 -2
BITMAP
008060
009F80
008E20
07CA40
010A80
013FE0
020800
027FE0
038800
1C3F00
046200
05B400
081800
082800
08C600
370100
ENDCHAR
STARTCHAR 3168
ENCODING 12648
SWIDTH 960 0
DWIDTH 16 0
BBX 21 16 -2 -2
BITMAP
0083C0
004040
004440
000840
040840
041040
042040
044020
02FF80
024100
044100
084100
088200
108200
20FE00
410400
ENDCHAR
STARTCHAR 3169
ENCODING 12649
SWIDTH 960 0
DWIDTH 16 0
BBX 21 16 -2 -2
BITMAP
008100
004100
005FF8
002020
047FE0
040200
047FC0
004440
004440
04FF80
048880
088880
11FF00
104600
218100
460100
ENDCHAR
STARTCHAR 316a
ENCODING 12650
SWIDTH 960 0
DWIDTH 16 0
BBX 21 16 -2 -2
BITMAP
000800
004880
008980
011200
022800
00C400
030200
0C2180
002200
024400
024800
04A000
192000
021000
0C0C00
700200
ENDCHAR
STARTCHAR 316b
ENCODING 12651
SWIDTH 960 0
DWIDTH 16 0
BBX 21 16 -2 -2
BITMAP
004100
004100
0041E0
00A240
02A480
02C980
058200
0527C0
092440
034880
054880
09CF80
099100
109100
209F00
412200
ENDCHAR
STARTCHAR 316c
ENCODING 12652
SWIDTH 960 0
DWIDTH 16 0
BBX 21 16 -2 -2
BITMAP
004000
005FF0
004280
00A500
02BFC0
02F540
05AA80
052A80
093F80
020800
030800
053F00
091000
091000
11FF80
600000
ENDCHAR
STARTCHAR 316d
ENCODING 12653
SWIDTH 960 0
DWIDTH 16 0
BBX 21 16 -2 -2
BITMAP
001100
001100
03FFF8
002200
00BE80
0080A0
0F7D40
014580
014500
068A40
1AFA40
0289C0
000000
091200
310900
411100
ENDCHAR
STARTCHAR 316e
ENCODING 12654
SWIDTH 960 0
DWIDTH 16 0
BBX 21 16 -2 -2
BITMAP
004100
024100
018FE0
008200
017FF0
078000
093F80
012080
032300
067D80
0A2880
12E900
074A00
044400
38F200
130100
ENDCHAR
STARTCHAR 316f
ENCODING 12655
SWIDTH 960 0
DWIDTH 16 0
BBX 21 16 -2 -2
BITMAP
004000
0047C0
009040
06AF80
014080
019FF0
012400
024A40
0FF380
024E00
0B1600
0B3D00
152900
15C880
241000
086000
ENDCHAR
STARTCHAR 3170
ENCODING 12656
SWIDTH 960 0
DWIDTH 16 0
BBX 21 16 -2 -2
BITMAP
005080
01FCF0
015520
03FA40
02AC80
03FFE0
000940
0FF940
000940
0FDF80
085080
0FD000
092000
062080
3FD080
000F00
ENDCHAR
STARTCHAR 3171
ENCODING 12657
SWIDTH 960 0
DWIDTH 16 0
BBX 21 16 -2 -2
BITMAP
001080
001080
03FFF8
002100
002100
008000
01F7C0
011440
022440
062880
094880
118B00
011000
021080
0C0880
300700
ENDCHAR
STARTCHAR 3172
ENCODING 12658
SWIDTH 960 0
DWIDTH 16 0
BBX 21 16 -2 -2
BITMAP
002080
03FFF8
002080
03FFE0
020820
027F20
041040
07FFC0
048440
09F880
08E480
0B5880
1C9900
108700
1FFF00
200200
ENDCHAR
STARTCHAR 3173
ENCODING 12659
SWIDTH 960 0
DWIDTH 16 0
BBX 21 16 -2 -2
BITMAP
000200
010200
011FE0
010400
007FE0
000000
007F80
0F4080
017F80
023100
025A00
039400
062200
0A2180
318000
407F00
ENDCHAR
STARTCHAR 3174
ENCODING 12660
SWIDTH 960 0
DWIDTH 16 0
BBX 21 16 -2 -2
BITMAP
0041E0
004020
00A220
012240
022440
07F840
011040
012020
0FCF80
021100
129100
131100
14A200
072200
1C3E00
604400
ENDCHAR
STARTCHAR 3175
ENCODING 12661
SWIDTH 960 0
DWIDTH 16 0
BBX 21 16 -2 -2
BITMAP
004000
007FE0
011A40
00A580
00D420
0623E0
01FE00
010200
01FE00
020400
03FFC0
020000
07FF00
149100
224B00
400400
ENDCHAR
STARTCHAR 3176
ENCODING 12662
SWIDTH 960 0
DWIDTH 16 0
BBX 21 16 -2 -2
BITMAP
000800
008800
009FF0
012000
013F80
07E080
02A100
023F00
020000
04FF00
05A500
0EA500
314A00
014A00
07FF80
000000
ENDCHAR
STARTCHAR 3177
ENCODING 12663
SWIDTH 960 0
DWIDTH 16 0
BBX 21 16 -2 -2
BITMAP
008080
008080
008080
07F180
010280
010480
03CC80
025440
026420
048400
049000
088800
090800
110800
220800
0C0800
ENDCHAR
STARTCHAR 3178
ENCODING 12664
SWIDTH 960 0
DWIDTH 16 0
BBX 21 16 -2 -2
BITMAP
008000
005FE0
004200
000400
000400
04FFF0
041000
041000
021000
023F00
044100
080100
080200
100200
200C00
403000
ENDCHAR
STARTCHAR 3179
ENCODING 12665
SWIDTH 960 0
DWIDTH 16 0
BBX 21 16 -2 -2
BITMAP
004000
004FE0
014920
029240
03FFC0
049240
092480
013F80
07C400
02FF80
020880
021080
072100
384100
018200
060C00
ENDCHAR
STARTCHAR 317a
ENCODING 12666
SWIDTH 960 0
DWIDTH 16 0
BBX 21 16 -2 -2
BITMAP
000000
01F1F0
011110
022220
022220
022220
044440
044440
047C40
080080
080080
080080
100100
1FFF00
100100
000000
ENDCHAR
STARTCHAR 317b
ENCODING 12667
SWIDTH 960 0
DWIDTH 16 0
BBX 21 16 -2 -2
BITMAP
000400
000400
000400
01FFC0
010840
010840
021080
021080
0FFFE0
002000
005000
009000
011000
020800
0C0600
700100
ENDCHAR
STARTCHAR 317c
ENCODING 12668
SWIDTH 960 0
DWIDTH 16 0
BBX 21 16 -2 -2
BITMAP
000800
001000
00FFE0
010840
014940
012A40
03FF80
023880
02D480
052300
062100
044100
3FFF80
00A000
031800
7C0600
ENDCHAR
STARTCHAR 317d
ENCODING 12669
SWIDTH 960 0
DWIDTH 16 0
BBX 21 16 -2 -2
BITMAP
004200
004100
008100
013FE0
024200
048200
008400
010400
023F80
0C0800
140800
040800
081000
081000
09FF80
100000
ENDCHAR
STARTCHAR 317e
ENCODING 12670
SWIDTH 960 0
DWIDTH 16 0
BBX 21 16 -2 -2
BITMAP
000200
000200
00FFF8
010800
010400
010200
021200
021200
029080
052080
052040
0A2040
124080
144200
282200
001C00
ENDCHAR
STARTCHAR 3221
ENCODING 12833
SWIDTH 960 0
DWIDTH 16 0
BBX 21 16 -2 -2
BITMAP
008000
008FF0
008910
011220
07D220
011FE0
022440
022440
022440
077F80
1C0800
040800
081000
081000
181000
102000
ENDCHAR
STARTCHAR 3222
ENCODING 12834
SWIDTH 960 0
DWIDTH 16 0
BBX 21 16 -2 -2
BITMAP
000000
03EFF0
022100
044200
044200
044200
0F8400
08BFC0
088400
110800
110800
110800
3E1000
221000
03FF80
000000
ENDCHAR
STARTCHAR 3223
ENCODING 12835
SWIDTH 960 0
DWIDTH 16 0
BBX 21 16 -2 -2
BITMAP
004440
004440
005FF0
07E880
008880
00FFF0
038400
037F80
032480
067F00
0A4900
124900
04FE00
044800
058400
0E0200
ENDCHAR
STARTCHAR 3224
ENCODING 12836
SWIDTH 960 0
DWIDTH 16 0
BBX 21 16 -2 -2
BITMAP
000100
01FD00
010900
0213F0
031520
02A940
04D280
044200
04C200
094400
0A4A00
0C5200
181200
1FE200
10C100
210100
ENDCHAR
STARTCHAR 3225
ENCODING 12837
SWIDTH 960 0
DWIDTH 16 0
BBX 21 16 -2 -2
BITMAP
000000
01FDE0
011120
021240
032250
02A450
04D860
045F80
04C900
094900
0A4A00
0C4E00
180800
1FD400
10E200
230100
ENDCHAR
STARTCHAR 3226
ENCODING 12838
SWIDTH 960 0
DWIDTH 16 0
BBX 21 16 -2 -2
BITMAP
000000
01FFF0
000400
000800
000800
000800
001000
03FF80
001000
002000
002000
002000
004000
004000
3FFF80
000000
ENDCHAR
STARTCHAR 3227
ENCODING 12839
SWIDTH 960 0
DWIDTH 16 0
BBX 21 16 -2 -2
BITMAP
002F80
002080
004440
018440
061230
006300
07BC80
000000
07FF80
044900
024500
01C300
069A00
18E200
008200
030C00
ENDCHAR
STARTCHAR 3228
ENCODING 12840
SWIDTH 960 0
DWIDTH 16 0
BBX 21 16 -2 -2
BITMAP
008100
008200
008FE0
07D240
005AC0
009740
013F80
02A480
033E80
0E6B00
154900
04FFC0
081000
082800
08C400
170200
ENDCHAR
STARTCHAR 3229
ENCODING 12841
SWIDTH 960 0
DWIDTH 16 0
BBX 21 16 -2 -2
BITMAP
008840
004480
01FFF0
022040
04FF00
008100
01FE00
010200
01FE00
020000
03FF80
020000
07FE00
149200
225600
401800
ENDCHAR
STARTCHAR 322a
ENCODING 12842
SWIDTH 960 0
DWIDTH 16 0
BBX 21 16 -2 -2
BITMAP
000100
03FA00
021FE0
042840
062FC0
054840
099F80
089000
099FE0
12A000
14BF80
188E80
30CB00
3FA900
212200
420C00
ENDCHAR
STARTCHAR 322b
ENCODING 12843
SWIDTH 960 0
DWIDTH 16 0
BBX 21 16 -2 -2
BITMAP
001100
001100
00FFE0
002200
002200
07FFF0
001000
01FF00
011100
022200
03FE00
022200
044400
07FC00
060C00
380200
ENDCHAR
STARTCHAR 322c
ENCODING 12844
SWIDTH 960 0
DWIDTH 16 0
BBX 21 16 -2 -2
BITMAP
000000
01FFF0
010110
024220
022220
022420
07FFC0
041040
049240
092480
092480
092480
13F900
120900
100100
200600
ENDCHAR
STARTCHAR 322d
ENCODING 12845
SWIDTH 960 0
DWIDTH 16 0
BBX 21 16 -2 -2
BITMAP
008100
004100
004100
003FE0
042220
042220
044440
004440
027FC0
028880
040800
080800
081000
101000
201000
402000
ENDCHAR
STARTCHAR 322e
ENCODING 12846
SWIDTH 960 0
DWIDTH 16 0
BBX 21 16 -2 -2
BITMAP
001080
001080
03FFF8
002100
004000
028100
028240
011240
071280
092400
034400
0D0C00
121400
022200
03C100
1E0100
ENDCHAR
STARTCHAR 322f
ENCODING 12847
SWIDTH 960 0
DWIDTH 16 0
BBX 21 16 -2 -2
BITMAP
002100
002100
003FF0
005040
008880
017FF0
020000
063F80
0A2080
047F00
044100
047F00
08D100
094880
0A4280
103C00
ENDCHAR
STARTCHAR 3230
ENCODING 12848
SWIDTH 960 0
DWIDTH 16 0
BBX 21 16 -2 -2
BITMAP
000000
00FFE0
008020
010040
01FFC0
010000
03FFC0
021600
026180
07FE80
041000
09FF00
082000
102000
2FFF80
000000
ENDCHAR
STARTCHAR 3231
ENCODING 12849
SWIDTH 960 0
DWIDTH 16 0
BBX 21 16 -2 -2
BITMAP
008200
008200
00BFE0
011080
030900
03FFF0
070000
0ABF80
0A2080
047F00
044100
047F00
08D000
094900
0A4480
103800
ENDCHAR
STARTCHAR 3232
ENCODING 12850
SWIDTH 960 0
DWIDTH 16 0
BBX 21 16 -2 -2
BITMAP
000100
01E100
013FF0
024840
024480
03FFF0
048000
049F80
049080
0F3F00
092100
093F00
125000
12AB00
272280
441C00
ENDCHAR
STARTCHAR 3233
ENCODING 12851
SWIDTH 960 0
DWIDTH 16 0
BBX 21 16 -2 -2
BITMAP
004000
004FE0
0040C0
07E500
008200
009FE0
03A440
036440
053FC0
0A4880
124880
027F80
049100
049100
049100
090600
ENDCHAR
STARTCHAR 3234
ENCODING 12852
SWIDTH 960 0
DWIDTH 16 0
BBX 21 16 -2 -2
BITMAP
002080
00A080
00A080
014100
01F100
024FE0
048200
088200
008200
01C400
0F0400
010400
020800
020800
02FF80
040000
ENDCHAR
STARTCHAR 3235
ENCODING 12853
SWIDTH 960 0
DWIDTH 16 0
BBX 21 16 -2 -2
BITMAP
000000
00FFC0
000180
000600
000800
003000
004000
008000
010000
020000
040000
080100
100200
100200
0FFE00
000000
ENDCHAR
STARTCHAR 3236
ENCODING 12854
SWIDTH 960 0
DWIDTH 16 0
BBX 21 16 -2 -2
BITMAP
002200
002200
003FF8
004A00
008D00
011480
027F80
06C940
0B4920
04FE00
049200
049200
09FC00
092500
082100
101E00
ENDCHAR
STARTCHAR 3237
ENCODING 12855
SWIDTH 960 0
DWIDTH 16 0
BBX 21 16 -2 -2
BITMAP
008000
0081F0
00FD10
014220
024220
044220
0FFC40
008440
048440
09E880
090880
090900
13DE00
1E1000
301000
002000
ENDCHAR
STARTCHAR 3238
ENCODING 12856
SWIDTH 960 0
DWIDTH 16 0
BBX 21 16 -2 -2
BITMAP
000000
00FFE0
008420
010840
01FFC0
013440
024280
038180
03FF80
002000
049000
049100
091100
110480
208480
007800
ENDCHAR
STARTCHAR 3239
ENCODING 12857
SWIDTH 960 0
DWIDTH 16 0
BBX 21 16 -2 -2
BITMAP
008000
004FE0
004820
001FC0
041040
041040
043F80
000000
020000
02FF80
049480
089480
092900
112900
27FF80
400000
ENDCHAR
STARTCHAR 323a
ENCODING 12858
SWIDTH 960 0
DWIDTH 16 0
BBX 21 16 -2 -2
BITMAP
002020
0041C0
03DC20
009220
008A40
00BFC0
0FC080
011F80
038080
06BF00
068800
0A9500
14A900
24AA80
052280
081C00
ENDCHAR
STARTCHAR 323b
ENCODING 12859
SWIDTH 960 0
DWIDTH 16 0
BBX 21 16 -2 -2
BITMAP
000400
000400
01FFF0
004100
002100
002600
0FFBE0
000000
00FE00
010400
010400
01FC00
020800
020800
03F800
041000
ENDCHAR
STARTCHAR 323c
ENCODING 12860
SWIDTH 960 0
DWIDTH 16 0
BBX 21 16 -2 -2
BITMAP
000000
03FFF8
000400
000800
000800
000C00
001400
001200
001200
002200
002000
002000
004000
004000
004000
008000
ENDCHAR
STARTCHAR 323d
ENCODING 12861
SWIDTH 960 0
DWIDTH 16 0
BBX 21 16 -2 -2
BITMAP
001200
001200
002220
002420
004440
008480
010900
030A00
0D0C00
121000
021000
021000
042080
042080
041080
080F00
ENDCHAR
STARTCHAR 323e
ENCODING 12862
SWIDTH 960 0
DWIDTH 16 0
BBX 21 16 -2 -2
BITMAP
002000
002FF8
004800
005000
009000
011FC0
023080
062880
0A4900
044A00
048C00
050C00
091400
0A2200
0DC100
120100
ENDCHAR
STARTCHAR 323f
ENCODING 12863
SWIDTH 960 0
DWIDTH 16 0
BBX 21 16 -2 -2
BITMAP
002000
002000
003FF8
004040
008040
013E40
024480
064480
0A4480
048900
04F900
048900
080200
080200
080E00
100400
ENDCHAR
STARTCHAR 3240
ENCODING 12864
SWIDTH 960 0
DWIDTH 16 0
BBX 21 16 -2 -2
BITMAP
005000
005000
0090F0
012120
01FD20
012520
064A40
064A40
0A4A40
049480
049480
051480
092F00
0A2900
0CC000
100000
ENDCHAR
STARTCHAR 3241
ENCODING 12865
SWIDTH 960 0
DWIDTH 16 0
BBX 21 16 -2 -2
BITMAP
002000
002000
003FF8
004500
008500
010500
027FC0
064A40
0A4A40
049480
049480
049480
092900
09FF00
090100
100000
ENDCHAR
STARTCHAR 3242
ENCODING 12866
SWIDTH 960 0
DWIDTH 16 0
BBX 21 16 -2 -2
BITMAP
002100
002100
004FE0
004200
008200
018200
037FC0
050400
090400
020800
027F00
020800
041000
041000
05FF00
080000
ENDCHAR
STARTCHAR 3243
ENCODING 12867
SWIDTH 960 0
DWIDTH 16 0
BBX 21 16 -2 -2
BITMAP
004000
004000
0041F0
008220
07FA20
008A20
011440
011440
011440
022880
022880
042880
045100
085F00
309100
430000
ENDCHAR
STARTCHAR 3244
ENCODING 12868
SWIDTH 960 0
DWIDTH 16 0
BBX 21 16 -2 -2
BITMAP
000000
000000
03FFF8
000080
000080
00FC80
010900
010900
010900
021200
03F200
021200
000400
000400
001C00
000800
ENDCHAR
STARTCHAR 3245
ENCODING 12869
SWIDTH 960 0
DWIDTH 16 0
BBX 21 16 -2 -2
BITMAP
000400
000400
03FFF8
000800
01FFC0
000000
01FF00
010100
01FF00
008800
1FFFC0
020000
1FBE00
04A200
193E00
664400
ENDCHAR
STARTCHAR 3246
ENCODING 12870
SWIDTH 960 0
DWIDTH 16 0
BBX 21 16 -2 -2
BITMAP
000000
01FFF0
000400
00FF80
008080
00FF80
010100
01FF00
010100
03FE00
008000
03FE00
051000
18E000
073800
780600
ENDCHAR
STARTCHAR 3247
ENCODING 12871
SWIDTH 960 0
DWIDTH 16 0
BBX 21 16 -2 -2
BITMAP
004100
004100
004FF0
009040
07E000
013FC0
024800
025440
04AD80
091680
1E2500
025D00
0A2900
104880
219000
006000
ENDCHAR
STARTCHAR 3248
ENCODING 12872
SWIDTH 960 0
DWIDTH 16 0
BBX 21 16 -2 -2
BITMAP
000800
000800
01FFF0
020040
040000
01FF00
004080
01A880
067B00
00AC00
032800
0CE400
014400
064200
388100
030000
ENDCHAR
STARTCHAR 3249
ENCODING 12873
SWIDTH 960 0
DWIDTH 16 0
BBX 21 16 -2 -2
BITMAP
000800
000800
01FFF0
020040
05FF80
001000
01FE00
010200
01FE00
020400
1FFF80
010400
0FFE00
308980
031000
1C6000
ENDCHAR
STARTCHAR 324a
ENCODING 12874
SWIDTH 960 0
DWIDTH 16 0
BBX 21 16 -2 -2
BITMAP
000820
003220
01E120
004140
004140
005840
0FE880
008480
01C480
0341C0
052F00
097100
120200
220200
020200
040400
ENDCHAR
STARTCHAR 324b
ENCODING 12875
SWIDTH 960 0
DWIDTH 16 0
BBX 21 16 -2 -2
BITMAP
000000
001EF0
03D210
04A420
04A420
04BDE0
094000
0F47C0
097C40
128480
128500
128600
3DE400
250A00
013100
024100
ENDCHAR
STARTCHAR 324c
ENCODING 12876
SWIDTH 960 0
DWIDTH 16 0
BBX 21 16 -2 -2
BITMAP
000000
00FFC0
008840
011080
01FF80
011080
022100
03FF00
002000
1FFF80
00E000
015000
069000
088C00
308300
010000
ENDCHAR
STARTCHAR 324d
ENCODING 12877
SWIDTH 960 0
DWIDTH 16 0
BBX 21 16 -2 -2
BITMAP
004000
0043E0
03FA20
009440
009440
011440
022F80
048880
084000
004000
1FFF80
01D000
029000
0C8C00
308300
010000
ENDCHAR
STARTCHAR 324e
ENCODING 12878
SWIDTH 960 0
DWIDTH 16 0
BBX 21 16 -2 -2
BITMAP
000200
03FE00
001200
03A7F0
02A520
03A940
04CA00
00D200
0FE200
008400
0E8A00
0A9200
1D1200
152200
01C100
070100
ENDCHAR
STARTCHAR 324f
ENCODING 12879
SWIDTH 960 0
DWIDTH 16 0
BBX 21 16 -2 -2
BITMAP
008000
005FF8
004020
000040
043E40
042240
044480
004480
024480
02F900
048900
080100
080200
100200
200E00
400400
ENDCHAR
STARTCHAR 3250
ENCODING 12880
SWIDTH 960 0
DWIDTH 16 0
BBX 21 16 -2 -2
BITMAP
000400
000400
000420
000840
008840
008880
011100
011200
021000
0C3000
005000
008800
010800
020400
0C0200
700100
ENDCHAR
STARTCHAR 3251
ENCODING 12881
SWIDTH 960 0
DWIDTH 16 0
BBX 21 16 -2 -2
BITMAP
000000
03FFF8
008020
010040
011E40
011240
0FA480
022480
022480
044900
047900
044900
0E0200
380200
000600
000400
ENDCHAR
STARTCHAR 3252
ENCODING 12882
SWIDTH 960 0
DWIDTH 16 0
BBX 21 16 -2 -2
BITMAP
004000
0047E0
004420
07EBC0
002A40
004A40
009480
013FC0
07A040
0ADE80
125280
025280
04BD00
04A500
048300
090200
ENDCHAR
STARTCHAR 3253
ENCODING 12883
SWIDTH 960 0
DWIDTH 16 0
BBX 21 16 -2 -2
BITMAP
000040
000380
00FC00
000800
000800
000800
0FFFE0
001000
003800
00E800
012400
062300
384080
004000
004000
008000
ENDCHAR
STARTCHAR 3254
ENCODING 12884
SWIDTH 960 0
DWIDTH 16 0
BBX 21 16 -2 -2
BITMAP
001100
006100
03CFF0
009040
00A000
07FFE0
010880
010C80
03BD00
06D600
0A2500
12DD00
242900
04C880
041000
086000
ENDCHAR
STARTCHAR 3255
ENCODING 12885
SWIDTH 960 0
DWIDTH 16 0
BBX 21 16 -2 -2
BITMAP
008100
008100
01FFF8
024500
042880
07FF80
042080
042080
07FF80
084100
09F900
090900
13F200
100200
1FFE00
200400
ENDCHAR
STARTCHAR 3256
ENCODING 12886
SWIDTH 960 0
DWIDTH 16 0
BBX 21 16 -2 -2
BITMAP
002100
002100
03FFF0
004200
006200
002400
004880
008880
010900
061600
0A1800
121000
042000
042080
042080
081F00
ENDCHAR
STARTCHAR 3257
ENCODING 12887
SWIDTH 960 0
DWIDTH 16 0
BBX 21 16 -2 -2
BITMAP
001080
001080
03FFF8
002100
002100
000000
0FFFC0
000100
01F900
021200
021200
021200
07E400
042400
000C00
000800
ENDCHAR
STARTCHAR 3258
ENCODING 12888
SWIDTH 960 0
DWIDTH 16 0
BBX 21 16 -2 -2
BITMAP
002100
002100
03FFF0
004200
004200
008000
010F80
0FE880
012880
025100
025100
045100
04A200
08BE00
312200
460000
ENDCHAR
STARTCHAR 3259
ENCODING 12889
SWIDTH 960 0
DWIDTH 16 0
BBX 21 16 -2 -2
BITMAP
001080
001080
03FFF8
002100
002100
004000
00FFE0
010080
013C80
064900
0A4900
124900
04F200
040200
040200
080C00
ENDCHAR
STARTCHAR 325a
ENCODING 12890
SWIDTH 960 0
DWIDTH 16 0
BBX 21 16 -2 -2
BITMAP
002080
002080
03FFF8
004100
01FFC0
008900
011100
0FFFE0
011100
022200
07FF00
002000
004000
1FFF00
004000
008000
ENDCHAR
STARTCHAR 325b
ENCODING 12891
SWIDTH 960 0
DWIDTH 16 0
BBX 21 16 -2 -2
BITMAP
001100
001100
03FFF8
002200
00FF80
008880
01FF00
011100
01FF00
002000
1FFFC0
01A800
024800
0C4600
304180
008000
ENDCHAR
STARTCHAR 325c
ENCODING 12892
SWIDTH 960 0
DWIDTH 16 0
BBX 21 16 -2 -2
BITMAP
004000
004770
004510
008A20
03EA20
02AEE0
055000
0553C0
07DD40
022280
022280
033B00
054200
074500
395900
01A100
ENDCHAR
STARTCHAR 325d
ENCODING 12893
SWIDTH 960 0
DWIDTH 16 0
BBX 21 16 -2 -2
BITMAP
000000
01F7F0
000490
07F920
000FE0
03E920
001240
001FC0
078200
007FC0
0F8E00
089600
112A00
114900
1F8880
221000
ENDCHAR
STARTCHAR 325e
ENCODING 12894
SWIDTH 960 0
DWIDTH 16 0
BBX 21 16 -2 -2
BITMAP
000440
000440
03FFF8
048880
04BFE0
049280
092480
09FFE0
092480
124900
12FF80
1E0800
221000
01FF80
001000
002000
ENDCHAR
STARTCHAR 325f
ENCODING 12895
SWIDTH 960 0
DWIDTH 16 0
BBX 21 16 -2 -2
BITMAP
001200
002220
00E3C0
014400
064420
0043E0
00FF00
010100
01FF00
020200
03FE00
020200
040400
07FC00
0E0C00
300400
ENDCHAR
STARTCHAR 3260
ENCODING 12896
SWIDTH 960 0
DWIDTH 16 0
BBX 21 16 -2 -2
BITMAP
000800
010800
0108F0
017D20
001520
001520
002A40
0F2A40
014A40
025480
029480
032780
06C900
090000
30C000
403F00
ENDCHAR
STARTCHAR 3261
ENCODING 12897
SWIDTH 960 0
DWIDTH 16 0
BBX 21 16 -2 -2
BITMAP
000000
010FE0
010820
0113C0
001240
001240
003FC0
0F4040
015F40
02A280
02A280
02BE80
074300
090100
30C000
403F00
ENDCHAR
STARTCHAR 3262
ENCODING 12898
SWIDTH 960 0
DWIDTH 16 0
BBX 21 16 -2 -2
BITMAP
000000
01FFE0
000400
03FFE0
020820
07EF40
09F780
001000
07DF80
088100
0FBF00
080000
1F7C00
102400
1F3000
20CE00
ENDCHAR
STARTCHAR 3263
ENCODING 12899
SWIDTH 960 0
DWIDTH 16 0
BBX 21 16 -2 -2
BITMAP
004080
004080
004080
03FFF0
029440
029440
052880
052880
07E900
020A00
030400
030C00
051400
06A400
38C200
010200
ENDCHAR
STARTCHAR 3264
ENCODING 12900
SWIDTH 960 0
DWIDTH 16 0
BBX 21 16 -2 -2
BITMAP
002280
0024A0
0038A0
005120
009100
01FFF0
022200
062240
0A3A80
046300
05C200
044E80
089300
08A300
08C300
130200
ENDCHAR
STARTCHAR 3265
ENCODING 12901
SWIDTH 960 0
DWIDTH 16 0
BBX 21 16 -2 -2
BITMAP
008280
0084A0
009CA0
052920
054900
057FF0
0A9200
0A9240
0A9A80
156300
15A200
1F2E80
225300
206300
008300
030200
ENDCHAR
STARTCHAR 3266
ENCODING 12902
SWIDTH 960 0
DWIDTH 16 0
BBX 21 16 -2 -2
BITMAP
000A00
001280
00E240
034440
004400
004400
0FFFE0
008480
008500
01C500
030600
1D0C00
021480
022280
02C180
0C0100
ENDCHAR
STARTCHAR 3267
ENCODING 12903
SWIDTH 960 0
DWIDTH 16 0
BBX 21 16 -2 -2
BITMAP
000000
003FE0
002080
004100
004100
004100
008200
0FFFE0
001A00
002400
004400
018400
020800
0C0800
303800
001000
ENDCHAR
STARTCHAR 3268
ENCODING 12904
SWIDTH 960 0
DWIDTH 16 0
BBX 21 16 -2 -2
BITMAP
000000
03FFF8
000400
000800
027F20
024920
049240
049240
04FE40
092480
092480
092480
13F900
100100
1FFF00
200200
ENDCHAR
STARTCHAR 3269
ENCODING 12905
SWIDTH 960 0
DWIDTH 16 0
BBX 21 16 -2 -2
BITMAP
000080
01FC80
012080
024100
024100
03F100
042200
042500
042500
0FCA00
090A00
091200
122200
1FC200
118100
020100
ENDCHAR
STARTCHAR 326a
ENCODING 12906
SWIDTH 960 0
DWIDTH 16 0
BBX 21 16 -2 -2
BITMAP
001100
001100
03FFF8
002200
000000
01FFC0
008400
008400
008400
1FFFC0
001800
006800
019000
061000
387000
002000
ENDCHAR
STARTCHAR 326b
ENCODING 12907
SWIDTH 960 0
DWIDTH 16 0
BBX 21 16 -2 -2
BITMAP
004140
004240
005E60
03E4A0
02A4A0
02BFF0
054900
054940
07C980
021880
037100
039300
052580
0FA980
30B180
00C100
ENDCHAR
STARTCHAR 326c
ENCODING 12908
SWIDTH 960 0
DWIDTH 16 0
BBX 21 16 -2 -2
BITMAP
004000
0043F0
03FA10
009420
009420
0127E0
06C840
09FF00
010100
03FE00
020200
03FE00
040400
07FC00
070C00
380200
ENDCHAR
STARTCHAR 326d
ENCODING 12909
SWIDTH 960 0
DWIDTH 16 0
BBX 21 16 -2 -2
BITMAP
000120
01F920
009240
0127F0
012C80
012480
0FF900
014FC0
014900
029200
029F80
049200
092400
112400
213F80
064000
ENDCHAR
STARTCHAR 326e
ENCODING 12910
SWIDTH 960 0
DWIDTH 16 0
BBX 21 16 -2 -2
BITMAP
004140
004260
00EE60
01B4A0
028480
07FFF0
044900
07C940
044D80
089280
0FB100
0A5100
122280
162580
1A3980
62E100
ENDCHAR
STARTCHAR 326f
ENCODING 12911
SWIDTH 960 0
DWIDTH 16 0
BBX 21 16 -2 -2
BITMAP
004000
03FBF0
004A10
009420
0117E0
066420
08FF00
011000
01FE00
022000
03FC00
022000
07FF00
149100
224B00
400400
ENDCHAR
STARTCHAR 3270
ENCODING 12912
SWIDTH 960 0
DWIDTH 16 0
BBX 21 16 -2 -2
BITMAP
000400
000400
000A00
003200
004100
0300C0
0C8120
008200
008200
010400
010400
020400
020800
040800
180800
201000
ENDCHAR
STARTCHAR 3271
ENCODING 12913
SWIDTH 960 0
DWIDTH 16 0
BBX 21 16 -2 -2
BITMAP
000400
000400
000A00
003200
004100
038080
0C7E60
000000
000000
0FFF80
004000
008800
010800
023400
1FC400
000400
ENDCHAR
STARTCHAR 3272
ENCODING 12914
SWIDTH 960 0
DWIDTH 16 0
BBX 21 16 -2 -2
BITMAP
004000
0073F0
00A090
034120
07F220
029CC0
053100
07EA00
053FC0
0A6400
0FC400
087FC0
108800
108800
218800
411000
ENDCHAR
STARTCHAR 3273
ENCODING 12915
SWIDTH 960 0
DWIDTH 16 0
BBX 21 16 -2 -2
BITMAP
000000
01FFF0
010010
020020
020020
023E20
044440
044440
044440
088880
08F880
080080
100100
100100
1FFF00
200200
ENDCHAR
STARTCHAR 3274
ENCODING 12916
SWIDTH 960 0
DWIDTH 16 0
BBX 21 16 -2 -2
BITMAP
000100
008200
008FE0
011240
011240
07FFC0
022480
022480
023F80
041500
059500
0E2680
304F80
008800
030880
1C0700
ENDCHAR
STARTCHAR 3275
ENCODING 12917
SWIDTH 960 0
DWIDTH 16 0
BBX 21 16 -2 -2
BITMAP
000100
008100
009FF0
010200
011FC0
07F640
022A80
023F80
020400
04FFC0
051100
0E2E00
30C800
034400
007200
038100
ENDCHAR
STARTCHAR 3276
ENCODING 12918
SWIDTH 960 0
DWIDTH 16 0
BBX 21 16 -2 -2
BITMAP
000000
01EFF0
002810
005020
0097A0
0314A0
05A940
00A940
00AF40
095280
054080
067F80
068100
098000
307000
400F00
ENDCHAR
STARTCHAR 3277
ENCODING 12919
SWIDTH 960 0
DWIDTH 16 0
BBX 21 16 -2 -2
BITMAP
004100
004100
004100
009FC0
02C240
02C240
054480
050480
097FE0
020800
021400
022400
042400
044400
058200
0A0200
ENDCHAR
STARTCHAR 3278
ENCODING 12920
SWIDTH 960 0
DWIDTH 16 0
BBX 21 16 -2 -2
BITMAP
004000
005FE0
004440
008480
008500
02C600
054A00
055180
096460
120800
027F00
020800
041000
041000
05FF00
080000
ENDCHAR
STARTCHAR 3279
ENCODING 12921
SWIDTH 960 0
DWIDTH 16 0
BBX 21 16 -2 -2
BITMAP
004800
004800
0057F0
009000
02A000
02CFC0
055480
059480
097FE0
024900
024900
024900
04FF80
050200
040C00
083000
ENDCHAR
STARTCHAR 327a
ENCODING 12922
SWIDTH 960 0
DWIDTH 16 0
BBX 21 16 -2 -2
BITMAP
004000
004FF8
004800
009100
02D120
02B540
052A40
052A80
093200
026400
024600
028A00
049200
052200
07C100
0E0100
ENDCHAR
STARTCHAR 327b
ENCODING 12923
SWIDTH 960 0
DWIDTH 16 0
BBX 21 16 -2 -2
BITMAP
004100
004100
005FF8
008200
029FC0
02D640
056A80
053F80
090400
02FFC0
021100
022A00
04CA00
054400
047200
098100
ENDCHAR
STARTCHAR 327c
ENCODING 12924
SWIDTH 960 0
DWIDTH 16 0
BBX 21 16 -2 -2
BITMAP
000240
000220
000220
07FFF0
000400
009480
012480
012500
0FFE00
024A00
024400
044C00
089500
10A500
20C300
010200
ENDCHAR
STARTCHAR 327d
ENCODING 12925
SWIDTH 960 0
DWIDTH 16 0
BBX 21 16 -2 -2
BITMAP
004000
0047E0
004420
008840
07E840
008FC0
011080
010000
017FC0
038880
1E0880
021080
041100
042100
0CC200
090C00
ENDCHAR
STARTCHAR 327e
ENCODING 12926
SWIDTH 960 0
DWIDTH 16 0
BBX 21 16 -2 -2
BITMAP
000200
000200
03F200
0027F0
002440
002440
0FCC80
085480
082500
100600
100400
108C00
111400
0F2200
00C100
030100
ENDCHAR
STARTCHAR 3321
ENCODING 13089
SWIDTH 960 0
DWIDTH 16 0
BBX 21 16 -2 -2
BITMAP
004020
008220
01F920
025140
025940
03F440
04A480
04A480
07E0E0
033F00
032100
03D100
076200
0A0300
310100
40FE00
ENDCHAR
STARTCHAR 3322
ENCODING 13090
SWIDTH 960 0
DWIDTH 16 0
BBX 21 16 -2 -2
BITMAP
000400
000400
03C7F8
048800
049000
04F7C0
099480
0F1480
09FFE0
124900
124900
124900
3CFF80
250200
000C00
003000
ENDCHAR
STARTCHAR 3323
ENCODING 13091
SWIDTH 960 0
DWIDTH 16 0
BBX 21 16 -2 -2
BITMAP
004080
0040A0
004090
07FFF0
008100
009520
032A40
03AA40
037E80
065300
0A5300
129200
049B00
051300
066300
088200
ENDCHAR
STARTCHAR 3324
ENCODING 13092
SWIDTH 960 0
DWIDTH 16 0
BBX 21 16 -2 -2
BITMAP
008400
004400
0047F0
000800
041000
047FC0
049480
001480
02FFE0
024900
044900
084900
08FF80
110200
200C00
403000
ENDCHAR
STARTCHAR 3325
ENCODING 13093
SWIDTH 960 0
DWIDTH 16 0
BBX 21 16 -2 -2
BITMAP
000000
00FFF0
008000
010400
010440
012440
024880
024900
028A00
051000
042800
084800
088800
110400
2E0200
100300
ENDCHAR
STARTCHAR 3326
ENCODING 13094
SWIDTH 960 0
DWIDTH 16 0
BBX 21 16 -2 -2
BITMAP
000000
00FFE0
008420
010840
01FFC0
010840
021080
03FF80
006800
018400
068700
1904C0
010800
020800
0C0800
101000
ENDCHAR
STARTCHAR 3327
ENCODING 13095
SWIDTH 960 0
DWIDTH 16 0
BBX 21 16 -2 -2
BITMAP
008100
008130
00FDC0
010200
010210
016210
0391E0
0C2000
01FF00
020200
020200
03FE00
040400
040400
07FC00
080800
ENDCHAR
STARTCHAR 3328
ENCODING 13096
SWIDTH 960 0
DWIDTH 16 0
BBX 21 16 -2 -2
BITMAP
004080
004080
009180
06A280
014440
019820
01A7A0
024000
0FC000
023F80
0B0800
0B1200
151200
152E00
24F200
080200
ENDCHAR
STARTCHAR 3329
ENCODING 13097
SWIDTH 960 0
DWIDTH 16 0
BBX 21 16 -2 -2
BITMAP
002080
002080
03FFF8
004100
004900
001800
002800
004400
018400
068700
1884C0
010400
010800
020800
040800
081000
ENDCHAR
STARTCHAR 332a
ENCODING 13098
SWIDTH 960 0
DWIDTH 16 0
BBX 21 16 -2 -2
BITMAP
008000
00F7F0
012310
07F460
029A80
03F7E0
052900
07FFE0
082200
10C200
07FC00
044400
0FF800
008400
01FE00
7E0200
ENDCHAR
STARTCHAR 332b
ENCODING 13099
SWIDTH 960 0
DWIDTH 16 0
BBX 21 16 -2 -2
BITMAP
000000
03F3F0
021210
07E7E0
042420
042420
0FCFC0
080040
09FE40
109080
109080
1FFE80
212100
222100
242300
400200
ENDCHAR
STARTCHAR 332c
ENCODING 13100
SWIDTH 960 0
DWIDTH 16 0
BBX 21 16 -2 -2
BITMAP
000880
01E890
012FE0
025100
029100
031110
0538E0
04E400
04BFC0
092080
092080
0A3F80
1C4100
104100
107F00
208200
ENDCHAR
STARTCHAR 332d
ENCODING 13101
SWIDTH 960 0
DWIDTH 16 0
BBX 21 16 -2 -2
BITMAP
000000
007FC0
004040
008080
008080
00FF80
010100
010100
010100
03FE00
020200
020200
07FC00
011800
060400
380400
ENDCHAR
STARTCHAR 332e
ENCODING 13102
SWIDTH 960 0
DWIDTH 16 0
BBX 21 16 -2 -2
BITMAP
004000
0149E0
014920
03F240
000240
07FA40
000480
07E480
042480
084900
0FC900
089100
089200
0AE280
0F4280
708300
ENDCHAR
STARTCHAR 332f
ENCODING 13103
SWIDTH 960 0
DWIDTH 16 0
BBX 21 16 -2 -2
BITMAP
002080
002080
002080
07FFE0
008120
01C120
0E4240
029240
03A440
022480
044880
098880
029100
046100
188100
610C00
ENDCHAR
STARTCHAR 3330
ENCODING 13104
SWIDTH 960 0
DWIDTH 16 0
BBX 21 16 -2 -2
BITMAP
002100
002100
003D00
004A00
008A00
011200
031600
04A580
08E440
008840
008800
010800
021000
041000
181000
202000
ENDCHAR
STARTCHAR 3331
ENCODING 13105
SWIDTH 960 0
DWIDTH 16 0
BBX 21 16 -2 -2
BITMAP
000100
000100
03E100
047FF0
044400
044880
088900
08F200
089C80
111100
112200
1FCC00
221400
002200
00C200
070200
ENDCHAR
STARTCHAR 3332
ENCODING 13106
SWIDTH 960 0
DWIDTH 16 0
BBX 21 16 -2 -2
BITMAP
000800
000800
01FFF0
021040
041000
03FFC0
002000
03FF00
002000
1FFF80
000000
07FE00
080400
080400
0FFC00
100800
ENDCHAR
STARTCHAR 3333
ENCODING 13107
SWIDTH 960 0
DWIDTH 16 0
BBX 21 16 -2 -2
BITMAP
008420
008420
00FFE0
000000
01FFF0
010400
02FF80
020800
020800
07FF80
041000
09FF00
082000
102000
2FFF80
000000
ENDCHAR
STARTCHAR 3334
ENCODING 13108
SWIDTH 960 0
DWIDTH 16 0
BBX 21 16 -2 -2
BITMAP
008000
009FF8
009220
012540
033D40
03A540
06CA80
067FE0
0A6080
04A300
04A300
049300
096600
09AA80
0E3280
104300
ENDCHAR
STARTCHAR 3335
ENCODING 13109
SWIDTH 960 0
DWIDTH 16 0
BBX 21 16 -2 -2
BITMAP
008000
009FF8
009220
012540
07FD40
012540
024A80
077FE0
06E080
0CA300
14A300
049300
096600
09AA80
0E3280
104300
ENDCHAR
STARTCHAR 3336
ENCODING 13110
SWIDTH 960 0
DWIDTH 16 0
BBX 21 16 -2 -2
BITMAP
008000
005FF0
005080
002100
042FE0
042100
044200
007FE0
024200
028400
04BF80
088400
090800
120800
25FF80
400000
ENDCHAR
STARTCHAR 3337
ENCODING 13111
SWIDTH 960 0
DWIDTH 16 0
BBX 21 16 -2 -2
BITMAP
000000
03FBE0
004220
0087C0
008440
010440
03CF80
064000
0E7FC0
148100
04FFC0
04A100
0F2200
092200
080600
000400
ENDCHAR
STARTCHAR 3338
ENCODING 13112
SWIDTH 960 0
DWIDTH 16 0
BBX 21 16 -2 -2
BITMAP
002080
002080
03FFF8
004900
01FFC0
000800
0FFFE0
004400
018300
0EFD00
000080
07FE00
092400
092400
3FFF80
000000
ENDCHAR
STARTCHAR 3339
ENCODING 13113
SWIDTH 960 0
DWIDTH 16 0
BBX 21 16 -2 -2
BITMAP
004800
0048F0
00BF00
011000
021000
051000
01FFE0
022080
022080
0DF900
144100
044100
08B200
09C200
0E0600
100400
ENDCHAR
STARTCHAR 333a
ENCODING 13114
SWIDTH 960 0
DWIDTH 16 0
BBX 21 16 -2 -2
BITMAP
000080
01F080
000080
07FFF0
000100
03E380
001C80
000500
07C780
000480
0F8900
08B200
114400
110A00
1F3200
23C200
ENDCHAR
STARTCHAR 333b
ENCODING 13115
SWIDTH 960 0
DWIDTH 16 0
BBX 21 16 -2 -2
BITMAP
004080
004490
00A490
012FE0
021000
07EFF0
010000
010F80
0FE880
021100
129F00
131100
141200
071400
1CFF80
600000
ENDCHAR
STARTCHAR 333c
ENCODING 13116
SWIDTH 960 0
DWIDTH 16 0
BBX 21 16 -2 -2
BITMAP
000080
01F080
011080
02EFF0
02A100
02A240
07EA80
082500
0FE680
188480
0F8900
08B200
1F0400
110A00
113200
26C200
ENDCHAR
STARTCHAR 333d
ENCODING 13117
SWIDTH 960 0
DWIDTH 16 0
BBX 21 16 -2 -2
BITMAP
008000
005FE0
005120
002240
043FC0
042240
044480
004480
027F80
020800
040800
09FF80
081000
101000
27FF80
400000
ENDCHAR
STARTCHAR 333e
ENCODING 13118
SWIDTH 960 0
DWIDTH 16 0
BBX 21 16 -2 -2
BITMAP
0021E0
01F928
002638
07FBC0
025240
03F300
040C80
09F060
001000
1FFFC0
00A800
01F800
0E0E00
33F980
020800
07F000
ENDCHAR
STARTCHAR 333f
ENCODING 13119
SWIDTH 960 0
DWIDTH 16 0
BBX 21 16 -2 -2
BITMAP
004080
004080
0043F0
03F100
029100
029100
053FE0
052000
07E200
020400
033F80
028400
070800
0C8800
30FF80
000000
ENDCHAR
STARTCHAR 3340
ENCODING 13120
SWIDTH 960 0
DWIDTH 16 0
BBX 21 16 -2 -2
BITMAP
004000
004FF0
004000
008000
07EFC0
008840
011080
011F80
011080
022100
03A100
0E3F00
304200
000000
03FF80
000000
ENDCHAR
STARTCHAR 3341
ENCODING 13121
SWIDTH 960 0
DWIDTH 16 0
BBX 21 16 -2 -2
BITMAP
004100
004100
004100
07FFF0
008200
008200
033FC0
03A440
036440
064880
0A4880
124900
049600
049000
041000
082000
ENDCHAR
STARTCHAR 3342
ENCODING 13122
SWIDTH 960 0
DWIDTH 16 0
BBX 21 16 -2 -2
BITMAP
004000
0047F8
004400
03E800
02AFF0
02A900
055200
0553C0
07D240
022480
032480
02C480
074900
0C9100
332200
048C00
ENDCHAR
STARTCHAR 3343
ENCODING 13123
SWIDTH 960 0
DWIDTH 16 0
BBX 21 16 -2 -2
BITMAP
004100
004100
00A100
0123E0
021420
07EC20
011440
012440
0FEE40
021280
129E80
133280
140100
058100
1E0600
601800
ENDCHAR
STARTCHAR 3344
ENCODING 13124
SWIDTH 960 0
DWIDTH 16 0
BBX 21 16 -2 -2
BITMAP
002010
01FC90
002490
07FF20
004920
03F920
008240
03E240
0FFA40
092480
0FE480
092480
1FC100
000100
3FE100
000600
ENDCHAR
STARTCHAR 3345
ENCODING 13125
SWIDTH 960 0
DWIDTH 16 0
BBX 21 16 -2 -2
BITMAP
000840
000840
03BFF0
051080
051080
051080
0BFFE0
0A5280
0A5280
16B580
1EAD40
172D40
094A00
025200
047200
09CC00
ENDCHAR
STARTCHAR 3346
ENCODING 13126
SWIDTH 960 0
DWIDTH 16 0
BBX 21 16 -2 -2
BITMAP
001000
001000
003FC0
004100
00A200
031400
041800
006400
018200
060300
1BFEC0
020200
040400
040400
07FC00
080800
ENDCHAR
STARTCHAR 3347
ENCODING 13127
SWIDTH 960 0
DWIDTH 16 0
BBX 21 16 -2 -2
BITMAP
000400
000400
00FFF8
011000
01FFE0
010140
02F280
029300
02F280
040480
05E480
084480
08E900
178E00
208800
031000
ENDCHAR
STARTCHAR 3348
ENCODING 13128
SWIDTH 960 0
DWIDTH 16 0
BBX 21 16 -2 -2
BITMAP
008080
008080
008080
011FF0
07D000
011100
022200
022200
022400
074400
1C4900
049100
091100
092F00
0AF100
3C0100
ENDCHAR
STARTCHAR 3349
ENCODING 13129
SWIDTH 960 0
DWIDTH 16 0
BBX 21 16 -2 -2
BITMAP
009220
008920
0089C0
017F60
07C020
015FA0
022100
023F00
03A100
1C7E00
044200
047E00
082800
084880
098880
3E0700
ENDCHAR
STARTCHAR 334a
ENCODING 13130
SWIDTH 960 0
DWIDTH 16 0
BBX 21 16 -2 -2
BITMAP
004200
004200
0047E0
07F840
008C80
009580
03A600
034500
034880
063080
0A7F40
12A100
044200
044200
047E00
088400
ENDCHAR
STARTCHAR 334b
ENCODING 13131
SWIDTH 960 0
DWIDTH 16 0
BBX 21 16 -2 -2
BITMAP
004100
004100
004100
07FFF0
008200
008480
033500
038A40
034C80
060900
0A1200
126C00
041400
042200
04C200
0B0200
ENDCHAR
STARTCHAR 334c
ENCODING 13132
SWIDTH 960 0
DWIDTH 16 0
BBX 21 16 -2 -2
BITMAP
004000
0041E0
03F920
008240
008250
03E450
001860
0FFF80
081080
17A900
048900
048600
094400
098A00
117100
608100
ENDCHAR
STARTCHAR 334d
ENCODING 13133
SWIDTH 960 0
DWIDTH 16 0
BBX 21 16 -2 -2
BITMAP
002240
023FF8
014640
018900
011FE0
031100
0D7F80
032200
053F80
094400
11FF80
022600
022800
041000
186C00
138200
ENDCHAR
STARTCHAR 334e
ENCODING 13134
SWIDTH 960 0
DWIDTH 16 0
BBX 21 16 -2 -2
BITMAP
000100
03F900
004FF8
008A20
009240
008480
01CFE0
025900
066900
0C9F80
149200
049F80
0F2400
092400
083F80
004000
ENDCHAR
STARTCHAR 334f
ENCODING 13135
SWIDTH 960 0
DWIDTH 16 0
BBX 21 16 -2 -2
BITMAP
001220
002FF8
03C240
0087E0
008900
00BFE0
0FD200
011FC0
039200
06BF80
0A8000
127F80
242400
041800
046600
0B8100
ENDCHAR
STARTCHAR 3350
ENCODING 13136
SWIDTH 960 0
DWIDTH 16 0
BBX 21 16 -2 -2
BITMAP
008840
004440
004580
03FEE0
020040
04FF00
010200
01FE00
010200
03FC00
020400
03FC00
012000
022080
0C2080
701F00
ENDCHAR
STARTCHAR 3351
ENCODING 13137
SWIDTH 960 0
DWIDTH 16 0
BBX 21 16 -2 -2
BITMAP
001000
001F80
006600
018800
07FFC0
010840
021080
03FF80
021080
042100
07FF00
080100
080200
100200
200600
400400
ENDCHAR
STARTCHAR 3352
ENCODING 13138
SWIDTH 960 0
DWIDTH 16 0
BBX 21 16 -2 -2
BITMAP
002080
002080
01FBF0
004100
004100
004100
0FFFE0
014500
016580
0AAB00
0ABA80
1C9A80
255500
092400
116400
269800
ENDCHAR
STARTCHAR 3353
ENCODING 13139
SWIDTH 960 0
DWIDTH 16 0
BBX 21 16 -2 -2
BITMAP
004080
004080
03F880
009FF0
03E440
02A840
055040
07E8A0
054900
0A8900
0F8A00
020C00
3F9400
042200
04C100
090100
ENDCHAR
STARTCHAR 3354
ENCODING 13140
SWIDTH 960 0
DWIDTH 16 0
BBX 21 16 -2 -2
BITMAP
002000
0021F0
03FF20
000220
01FA40
010A80
03F500
000480
07F480
004880
008840
00EC40
3F1480
011300
011000
062000
ENDCHAR
STARTCHAR 3355
ENCODING 13141
SWIDTH 960 0
DWIDTH 16 0
BBX 21 16 -2 -2
BITMAP
000000
03F3F0
021210
07E7E0
042420
07E7E0
082040
087C40
09D840
106080
119880
140E80
23F100
221100
23F100
400600
ENDCHAR
STARTCHAR 3356
ENCODING 13142
SWIDTH 960 0
DWIDTH 16 0
BBX 21 16 -2 -2
BITMAP
000000
01EFF0
012000
024FC0
028840
030FC0
050000
04BFC0
04A540
094A80
095380
0A6080
1CFF00
108900
108900
211600
ENDCHAR
STARTCHAR 3357
ENCODING 13143
SWIDTH 960 0
DWIDTH 16 0
BBX 21 16 -2 -2
BITMAP
001100
001100
01FFF0
002200
002200
003E00
001000
01FF00
011100
022200
03FE00
002000
3FFF80
004000
004000
008000
ENDCHAR
STARTCHAR 3358
ENCODING 13144
SWIDTH 960 0
DWIDTH 16 0
BBX 21 16 -2 -2
BITMAP
008840
004440
004580
03FEE0
020040
060000
09FE00
000400
003800
004000
1FFF80
004000
008000
008000
038000
010000
ENDCHAR
STARTCHAR 3359
ENCODING 13145
SWIDTH 960 0
DWIDTH 16 0
BBX 21 16 -2 -2
BITMAP
000080
000300
003C00
004000
007FC0
004100
008200
008200
0FFFE0
002000
042100
042100
084200
084200
0FFE00
100400
ENDCHAR
STARTCHAR 335a
ENCODING 13146
SWIDTH 960 0
DWIDTH 16 0
BBX 21 16 -2 -2
BITMAP
000200
010410
009F20
00A240
00A280
003E00
004500
01C4C0
067C20
002000
1FFFC0
00F000
015000
064C00
384380
008000
ENDCHAR
STARTCHAR 335b
ENCODING 13147
SWIDTH 960 0
DWIDTH 16 0
BBX 21 16 -2 -2
BITMAP
004000
0047F8
01F980
022200
0487E0
03E420
044840
0A8FC0
038840
029F80
045080
1FB080
293F00
091200
0FE100
130100
ENDCHAR
STARTCHAR 335c
ENCODING 13148
SWIDTH 960 0
DWIDTH 16 0
BBX 21 16 -2 -2
BITMAP
000000
03BFF8
02A980
055200
0777E0
000420
07CFC0
000840
0FE840
041F80
041080
0F9080
113F00
011200
023100
0CC100
ENDCHAR
STARTCHAR 335d
ENCODING 13149
SWIDTH 960 0
DWIDTH 16 0
BBX 21 16 -2 -2
BITMAP
008420
008420
009F20
010840
07C840
010840
02FEC0
0210A0
0390A0
1C7900
042100
042100
085A00
08E200
0B0200
300400
ENDCHAR
STARTCHAR 335e
ENCODING 13150
SWIDTH 960 0
DWIDTH 16 0
BBX 21 16 -2 -2
BITMAP
004080
004080
01FDF8
024280
042440
002840
001000
07FFC0
000200
020200
010400
010800
011000
002000
3FFF80
000000
ENDCHAR
STARTCHAR 335f
ENCODING 13151
SWIDTH 960 0
DWIDTH 16 0
BBX 21 16 -2 -2
BITMAP
008000
009E00
0095F0
07E920
013D20
0125C0
037900
06D280
065C40
0CF040
140800
047F00
081000
081000
0BFF80
100000
ENDCHAR
STARTCHAR 3360
ENCODING 13152
SWIDTH 960 0
DWIDTH 16 0
BBX 21 16 -2 -2
BITMAP
004000
005FF8
004000
07FFC0
009240
019FC0
03A480
037FE0
054000
0A7F00
124900
027F00
049200
04FE00
040000
0BFF00
ENDCHAR
STARTCHAR 3361
ENCODING 13153
SWIDTH 960 0
DWIDTH 16 0
BBX 21 16 -2 -2
BITMAP
004000
004FF0
004810
07F020
009FE0
0090C0
03A300
037C00
032400
067F80
0A4800
127FC0
049000
051080
061080
080F00
ENDCHAR
STARTCHAR 3362
ENCODING 13154
SWIDTH 960 0
DWIDTH 16 0
BBX 21 16 -2 -2
BITMAP
004140
007240
00BC40
0348A0
07E9A0
02BFC0
055380
07D500
055900
0AF200
0FAB00
012D00
1A4900
155100
256100
408100
ENDCHAR
STARTCHAR 3363
ENCODING 13155
SWIDTH 960 0
DWIDTH 16 0
BBX 21 16 -2 -2
BITMAP
008200
004400
0059C0
002080
043B80
042080
044100
007F00
021000
023F80
044080
098480
09A500
115100
224200
4C0C00
ENDCHAR
STARTCHAR 3364
ENCODING 13156
SWIDTH 960 0
DWIDTH 16 0
BBX 21 16 -2 -2
BITMAP
002010
01FE90
020490
044120
03F920
004120
07F240
008240
0FFA40
000480
07E480
042480
084100
084100
0FC100
108600
ENDCHAR
STARTCHAR 3365
ENCODING 13157
SWIDTH 960 0
DWIDTH 16 0
BBX 21 16 -2 -2
BITMAP
000000
000FC0
03C840
049080
049F80
049080
092100
093F00
090800
123F80
1E4480
12F880
038100
008900
007A00
000C00
ENDCHAR
STARTCHAR 3366
ENCODING 13158
SWIDTH 960 0
DWIDTH 16 0
BBX 21 16 -2 -2
BITMAP
004100
004100
004300
008500
00C880
02B040
052040
055FA0
098000
020000
023F00
022100
044200
044200
047E00
088400
ENDCHAR
STARTCHAR 3367
ENCODING 13159
SWIDTH 960 0
DWIDTH 16 0
BBX 21 16 -2 -2
BITMAP
008020
0080C0
008F00
010200
07C200
010200
027FE0
020400
038400
1C0800
047F00
044100
088200
088200
08FE00
310400
ENDCHAR
STARTCHAR 3368
ENCODING 13160
SWIDTH 960 0
DWIDTH 16 0
BBX 21 16 -2 -2
BITMAP
008020
0040C0
004F00
000200
000200
040200
04FFE0
040400
020400
020800
047F00
084100
088200
108200
20FE00
410400
ENDCHAR
STARTCHAR 3369
ENCODING 13161
SWIDTH 960 0
DWIDTH 16 0
BBX 21 16 -2 -2
BITMAP
008000
004FC0
004840
001F80
041080
041080
043F00
000800
021FC0
022480
04C880
097080
088500
107D00
200600
401800
ENDCHAR
STARTCHAR 336a
ENCODING 13162
SWIDTH 960 0
DWIDTH 16 0
BBX 21 16 -2 -2
BITMAP
008000
004FC0
004840
001380
001280
047FF0
048040
04BF00
012100
007E00
044200
087E00
088400
108400
208C00
410800
ENDCHAR
STARTCHAR 336b
ENCODING 13163
SWIDTH 960 0
DWIDTH 16 0
BBX 21 16 -2 -2
BITMAP
002100
002100
03FFF0
004200
00FF00
008100
01FE00
010200
01FE00
008000
01FF80
0F1880
33C100
020900
01FA00
000C00
ENDCHAR
STARTCHAR 336c
ENCODING 13164
SWIDTH 960 0
DWIDTH 16 0
BBX 21 16 -2 -2
BITMAP
004000
0047E0
004420
07EFC0
002840
004840
009F80
014400
078FC0
0B1280
12B480
02D880
042500
041D00
040200
080C00
ENDCHAR
STARTCHAR 336d
ENCODING 13165
SWIDTH 960 0
DWIDTH 16 0
BBX 21 16 -2 -2
BITMAP
004080
004080
03FFF8
008820
03F100
02AFE0
054200
07CF80
054200
0ABFC0
0F8000
021F00
3FA200
042200
043E00
084400
ENDCHAR
STARTCHAR 336e
ENCODING 13166
SWIDTH 960 0
DWIDTH 16 0
BBX 21 16 -2 -2
BITMAP
000000
007F80
004080
008100
008100
00FF00
010200
010200
010200
03FC00
020400
020400
040800
040800
3FFF00
000000
ENDCHAR
STARTCHAR 336f
ENCODING 13167
SWIDTH 960 0
DWIDTH 16 0
BBX 21 16 -2 -2
BITMAP
004000
007780
00A5F0
034AA0
07EFA0
02A9C0
055E80
07D4C0
055740
0ABC40
0F8400
01DF00
196800
150800
24FF80
400000
ENDCHAR
STARTCHAR 3370
ENCODING 13168
SWIDTH 960 0
DWIDTH 16 0
BBX 21 16 -2 -2
BITMAP
000080
000080
01F080
022100
022100
022100
047FE0
044200
044200
088400
088400
0F8400
110800
100800
000800
001000
ENDCHAR
STARTCHAR 3371
ENCODING 13169
SWIDTH 960 0
DWIDTH 16 0
BBX 21 16 -2 -2
BITMAP
004440
004440
005FF8
07E880
008880
008900
038A00
035240
031380
066600
0AA400
122400
044800
044880
044880
088700
ENDCHAR
STARTCHAR 3372
ENCODING 13170
SWIDTH 960 0
DWIDTH 16 0
BBX 21 16 -2 -2
BITMAP
004240
004240
007FF8
07C480
00BFE0
008C40
039480
037FE0
031480
062900
0AFF80
120800
05FF80
041000
041000
082000
ENDCHAR
STARTCHAR 3373
ENCODING 13171
SWIDTH 960 0
DWIDTH 16 0
BBX 21 16 -2 -2
BITMAP
009100
009100
03F900
0123E0
012420
01EFA0
011140
07E140
052F40
0A5080
0FD080
021300
3FE000
042080
042080
081F00
ENDCHAR
STARTCHAR 3374
ENCODING 13172
SWIDTH 960 0
DWIDTH 16 0
BBX 21 16 -2 -2
BITMAP
004080
004480
004480
07E900
009FE0
009100
03A200
034200
037FE0
060C00
0A1600
122600
044A00
048900
050880
081000
ENDCHAR
STARTCHAR 3375
ENCODING 13173
SWIDTH 960 0
DWIDTH 16 0
BBX 21 16 -2 -2
BITMAP
002400
004800
019EE0
022440
022440
023C40
044880
044880
077B80
080100
009000
009000
012100
022100
0C2100
701E00
ENDCHAR
STARTCHAR 3376
ENCODING 13174
SWIDTH 960 0
DWIDTH 16 0
BBX 21 16 -2 -2
BITMAP
000800
01FFF0
026920
04BCE0
011000
07FFE0
012200
01FE00
012200
03FE00
044200
07FE00
088400
0FFD00
008100
007E00
ENDCHAR
STARTCHAR 3377
ENCODING 13175
SWIDTH 960 0
DWIDTH 16 0
BBX 21 16 -2 -2
BITMAP
001100
001100
03FFF8
002280
018240
007FE0
000400
0C3F80
022480
007F00
024900
047F00
049200
089200
309200
412C00
ENDCHAR
STARTCHAR 3378
ENCODING 13176
SWIDTH 960 0
DWIDTH 16 0
BBX 21 16 -2 -2
BITMAP
001100
0020C0
00D120
031420
000800
003400
01C300
0EFEE0
001000
002000
1FFFC0
022200
024400
024800
1FFF00
000000
ENDCHAR
STARTCHAR 3379
ENCODING 13177
SWIDTH 960 0
DWIDTH 16 0
BBX 21 16 -2 -2
BITMAP
004440
004280
00BFF8
012500
021FC0
07E540
010A80
013FE0
0FCA80
023F00
121600
133500
146900
07A880
1D2800
605000
ENDCHAR
STARTCHAR 337a
ENCODING 13178
SWIDTH 960 0
DWIDTH 16 0
BBX 21 16 -2 -2
BITMAP
000100
000900
03C9F0
049200
049200
04FFF0
094440
095540
094E40
12FF80
128880
1EBC80
255500
019100
01FF00
020200
ENDCHAR
STARTCHAR 337b
ENCODING 13179
SWIDTH 960 0
DWIDTH 16 0
BBX 21 16 -2 -2
BITMAP
000100
03F200
0257E0
04A840
04AFC0
07E840
095F80
095000
095FE0
1FA000
023F80
020E80
04CB00
04A900
052200
0E0C00
ENDCHAR
STARTCHAR 337c
ENCODING 13180
SWIDTH 960 0
DWIDTH 16 0
BBX 21 16 -2 -2
BITMAP
004000
005FF8
004100
07E200
008400
008FC0
039080
035080
035080
063F00
0A2100
122100
044200
044200
047E00
088400
ENDCHAR
STARTCHAR 337d
ENCODING 13181
SWIDTH 960 0
DWIDTH 16 0
BBX 21 16 -2 -2
BITMAP
001080
001080
03FFF8
002100
00FF80
000300
006400
001800
0FFFC0
003100
005200
019000
022000
0C2000
30E000
004000
ENDCHAR
STARTCHAR 337e
ENCODING 13182
SWIDTH 960 0
DWIDTH 16 0
BBX 21 16 -2 -2
BITMAP
004100
004100
03FFF0
008200
001000
03FFE0
040080
0BFF00
000000
03FC00
020400
03FC00
040800
07F800
000000
7FFE00
ENDCHAR
STARTCHAR 3421
ENCODING 13345
SWIDTH 960 0
DWIDTH 16 0
BBX 21 16 -2 -2
BITMAP
000000
03C4F0
006510
00AA20
00AC20
0388E0
047F00
041100
0739C0
027080
02A880
032880
064900
044100
184200
601C00
ENDCHAR
STARTCHAR 3422
ENCODING 13346
SWIDTH 960 0
DWIDTH 16 0
BBX 21 16 -2 -2
BITMAP
000810
000910
000910
001220
021220
012220
012440
00C440
004440
00C880
014880
024080
044100
084100
300700
400200
ENDCHAR
STARTCHAR 3423
ENCODING 13347
SWIDTH 960 0
DWIDTH 16 0
BBX 21 16 -2 -2
BITMAP
001080
001080
03FFF8
002100
002120
002020
062440
012440
00C440
008880
014880
024880
044100
084100
304700
400200
ENDCHAR
STARTCHAR 3424
ENCODING 13348
SWIDTH 960 0
DWIDTH 16 0
BBX 21 16 -2 -2
BITMAP
000000
01FFF0
001000
002000
002000
003F00
004200
004200
00A200
00A400
012400
010400
020800
02E900
0F0900
700600
ENDCHAR
STARTCHAR 3425
ENCODING 13349
SWIDTH 960 0
DWIDTH 16 0
BBX 21 16 -2 -2
BITMAP
004200
004200
03FA00
0087F0
03E400
022800
045F80
07E100
044200
088400
0F8800
021000
3FD100
042100
042100
081E00
ENDCHAR
STARTCHAR 3426
ENCODING 13350
SWIDTH 960 0
DWIDTH 16 0
BBX 21 16 -2 -2
BITMAP
002000
002FE0
004820
005040
009040
011FC0
020000
062480
0A2480
044900
044900
048900
089200
091280
0A1280
140300
ENDCHAR
STARTCHAR 3427
ENCODING 13351
SWIDTH 960 0
DWIDTH 16 0
BBX 21 16 -2 -2
BITMAP
000000
01FFF0
020020
040000
03F080
000080
001FC0
0FE100
025100
049200
049200
088200
090400
110D00
208100
407E00
ENDCHAR
STARTCHAR 3428
ENCODING 13352
SWIDTH 960 0
DWIDTH 16 0
BBX 21 16 -2 -2
BITMAP
000800
000800
03FFF0
040020
044420
01FF80
008800
03FF00
008800
1FFF80
010800
064600
382100
078000
006000
001000
ENDCHAR
STARTCHAR 3429
ENCODING 13353
SWIDTH 960 0
DWIDTH 16 0
BBX 21 16 -2 -2
BITMAP
000010
01FD10
002110
004220
004220
004220
0FFC40
008440
008440
010880
010880
010080
020100
020100
020700
040200
ENDCHAR
STARTCHAR 342a
ENCODING 13354
SWIDTH 960 0
DWIDTH 16 0
BBX 21 16 -2 -2
BITMAP
008880
008880
03FC80
011100
01F7E0
011120
03E240
022240
0FF240
0A8480
0A8480
0CA880
18D100
101100
1F2200
20CC00
ENDCHAR
STARTCHAR 342b
ENCODING 13355
SWIDTH 960 0
DWIDTH 16 0
BBX 21 16 -2 -2
BITMAP
008080
008080
00FC80
014100
0247E0
05F920
012240
024240
0FF440
148480
07C880
049080
0F9100
092100
0FE200
108C00
ENDCHAR
STARTCHAR 342c
ENCODING 13356
SWIDTH 960 0
DWIDTH 16 0
BBX 21 16 -2 -2
BITMAP
004440
002440
002580
01FEE0
000800
001400
0FFFE0
004400
01FC00
060700
1804C0
01FC00
020000
020400
020400
01F800
ENDCHAR
STARTCHAR 342d
ENCODING 13357
SWIDTH 960 0
DWIDTH 16 0
BBX 21 16 -2 -2
BITMAP
000400
0007C0
03C980
04B200
04FFC0
04AA40
095480
095580
096380
12C100
1E8900
13FFC0
001000
002800
00C600
0F0100
ENDCHAR
STARTCHAR 342e
ENCODING 13358
SWIDTH 960 0
DWIDTH 16 0
BBX 21 16 -2 -2
BITMAP
000420
008420
009FF8
010840
010FC0
07C840
021F80
021080
021080
05FFC0
049400
07A480
0D4300
318000
01FF80
020000
ENDCHAR
STARTCHAR 342f
ENCODING 13359
SWIDTH 960 0
DWIDTH 16 0
BBX 21 16 -2 -2
BITMAP
000800
000800
01FFE0
002200
004400
00F800
004600
078100
008200
1FFFC0
024900
024900
1EFA00
030C00
0D9600
704200
ENDCHAR
STARTCHAR 3430
ENCODING 13360
SWIDTH 960 0
DWIDTH 16 0
BBX 21 16 -2 -2
BITMAP
000800
000800
01FFF0
020040
040000
01FF80
000000
000000
0FFFC0
009000
009000
011000
022100
042100
181100
600E00
ENDCHAR
STARTCHAR 3431
ENCODING 13361
SWIDTH 960 0
DWIDTH 16 0
BBX 21 16 -2 -2
BITMAP
000800
000800
01FFF0
020040
04FF00
008100
010200
01FE00
010200
020000
03FE00
020200
040400
040400
07FC00
080800
ENDCHAR
STARTCHAR 3432
ENCODING 13362
SWIDTH 960 0
DWIDTH 16 0
BBX 21 16 -2 -2
BITMAP
000800
000800
01FFF0
024240
03FF80
044200
00FE00
010200
01FE00
020400
03FC00
020400
07F900
012100
062100
781E00
ENDCHAR
STARTCHAR 3433
ENCODING 13363
SWIDTH 960 0
DWIDTH 16 0
BBX 21 16 -2 -2
BITMAP
000000
00FFE0
000400
000800
000800
000800
001040
0FFFE0
001000
002000
002000
002000
004000
004000
004000
008000
ENDCHAR
STARTCHAR 3434
ENCODING 13364
SWIDTH 960 0
DWIDTH 16 0
BBX 21 16 -2 -2
BITMAP
004080
004080
03F980
008280
03E440
023820
0467A0
07C200
044200
088400
0FFFC0
020400
3F8800
040800
040800
081000
ENDCHAR
STARTCHAR 3435
ENCODING 13365
SWIDTH 960 0
DWIDTH 16 0
BBX 21 16 -2 -2
BITMAP
000800
000800
01FFC0
021080
03FF80
001000
07FF00
042100
07FF00
084200
004000
054200
0A4200
120900
210900
00F000
ENDCHAR
STARTCHAR 3436
ENCODING 13366
SWIDTH 960 0
DWIDTH 16 0
BBX 21 16 -2 -2
BITMAP
000240
000220
00FFF8
010400
01FA40
010280
02F300
029200
04F540
081980
102080
04A100
092100
110480
208480
007800
ENDCHAR
STARTCHAR 3437
ENCODING 13367
SWIDTH 960 0
DWIDTH 16 0
BBX 21 16 -2 -2
BITMAP
004000
0047F0
004490
00BFF0
009240
02FFC0
054000
057F80
094080
027F00
024100
027F00
048200
04FE00
046600
0B8100
ENDCHAR
STARTCHAR 3438
ENCODING 13368
SWIDTH 960 0
DWIDTH 16 0
BBX 21 16 -2 -2
BITMAP
0040A0
004090
004FF8
009100
029F20
02D140
057D40
053480
095FA0
02A4C0
030840
025800
04A900
052280
062280
081C00
ENDCHAR
STARTCHAR 3439
ENCODING 13369
SWIDTH 960 0
DWIDTH 16 0
BBX 21 16 -2 -2
BITMAP
008200
0083E0
0084C0
07D900
013FE0
016520
024A40
024A40
03D1C0
1CE880
048880
05FFC0
083000
084800
098600
360100
ENDCHAR
STARTCHAR 343a
ENCODING 13370
SWIDTH 960 0
DWIDTH 16 0
BBX 21 16 -2 -2
BITMAP
000100
01FD00
002100
0043F0
07FA40
011C40
022C80
03F480
022500
07C500
044600
046600
0F8A00
389200
00E100
018100
ENDCHAR
STARTCHAR 343b
ENCODING 13371
SWIDTH 960 0
DWIDTH 16 0
BBX 21 16 -2 -2
BITMAP
004220
004220
004220
07F440
009FF0
008440
038880
034880
034880
065F00
0A1100
121100
042200
042200
043E00
084400
ENDCHAR
STARTCHAR 343c
ENCODING 13372
SWIDTH 960 0
DWIDTH 16 0
BBX 21 16 -2 -2
BITMAP
004000
004FF0
004000
07E000
008FC0
008840
039080
035F80
035080
062100
0A2100
123F00
044200
040000
05FF80
080000
ENDCHAR
STARTCHAR 343d
ENCODING 13373
SWIDTH 960 0
DWIDTH 16 0
BBX 21 16 -2 -2
BITMAP
004100
004100
004FF8
07D020
009000
00F780
039100
035100
035F00
062000
0A2000
123F00
044200
044200
047E00
088400
ENDCHAR
STARTCHAR 343e
ENCODING 13374
SWIDTH 960 0
DWIDTH 16 0
BBX 21 16 -2 -2
BITMAP
004100
004100
03FA00
0083F0
008420
03F940
001200
07E200
000200
1FE400
020A00
0A8A00
149200
24A200
04C100
190100
ENDCHAR
STARTCHAR 343f
ENCODING 13375
SWIDTH 960 0
DWIDTH 16 0
BBX 21 16 -2 -2
BITMAP
008100
008100
01FD00
0243F0
044220
07FEC0
012B00
025200
03F200
0C8400
17CA00
048A00
0F9200
092200
0FC100
110100
ENDCHAR
STARTCHAR 3440
ENCODING 13376
SWIDTH 960 0
DWIDTH 16 0
BBX 21 16 -2 -2
BITMAP
008000
005FF0
004100
000200
040200
040200
040400
00FFE0
010400
020800
040800
080800
081000
101000
201000
402000
ENDCHAR
STARTCHAR 3441
ENCODING 13377
SWIDTH 960 0
DWIDTH 16 0
BBX 21 16 -2 -2
BITMAP
008440
004440
007FF8
000880
040000
043FE0
044440
004440
027FC0
020800
04FF00
080800
0BFF80
102800
20C600
470100
ENDCHAR
STARTCHAR 3442
ENCODING 13378
SWIDTH 960 0
DWIDTH 16 0
BBX 21 16 -2 -2
BITMAP
008000
005EF0
005290
003DE0
042520
042520
047BC0
004040
025F40
02A280
04BE80
08A280
094500
117D00
214500
420600
ENDCHAR
STARTCHAR 3443
ENCODING 13379
SWIDTH 960 0
DWIDTH 16 0
BBX 21 16 -2 -2
BITMAP
010800
008800
008FF0
001400
042400
047FF0
049100
002200
00FFC0
034400
047F00
084400
08FE00
108800
20FF80
410000
ENDCHAR
STARTCHAR 3444
ENCODING 13380
SWIDTH 960 0
DWIDTH 16 0
BBX 21 16 -2 -2
BITMAP
000000
000FE0
03FAA0
011540
011FC0
010000
02FFE0
0F8000
023F80
044100
047F00
073880
0CA900
3B2600
002180
004000
ENDCHAR
STARTCHAR 3445
ENCODING 13381
SWIDTH 960 0
DWIDTH 16 0
BBX 21 16 -2 -2
BITMAP
002080
002080
002080
004100
07FFF0
004100
008200
008200
008200
01FC00
010400
010400
020800
020800
03F800
041000
ENDCHAR
STARTCHAR 3446
ENCODING 13382
SWIDTH 960 0
DWIDTH 16 0
BBX 21 16 -2 -2
BITMAP
000100
01F900
012200
0243F0
03F400
021C00
07F3C0
048000
07E000
000000
07FF00
048900
091200
091200
3FFF80
000000
ENDCHAR
STARTCHAR 3447
ENCODING 13383
SWIDTH 960 0
DWIDTH 16 0
BBX 21 16 -2 -2
BITMAP
000040
000380
007C00
000800
01FFC0
001000
0FFFE0
004000
01FF00
028200
04FE00
088200
01FC00
010400
01FC00
020800
ENDCHAR
STARTCHAR 3448
ENCODING 13384
SWIDTH 960 0
DWIDTH 16 0
BBX 21 16 -2 -2
BITMAP
004100
004100
01FFF8
024480
042840
000000
03FF80
001000
001000
002000
1FFFC0
002000
004000
004000
004000
008000
ENDCHAR
STARTCHAR 3449
ENCODING 13385
SWIDTH 960 0
DWIDTH 16 0
BBX 21 16 -2 -2
BITMAP
008100
008100
01FBF8
024500
042880
07FFE0
040080
09FE00
010200
03FC00
020000
03FE00
040400
040400
07FC00
080800
ENDCHAR
STARTCHAR 344a
ENCODING 13386
SWIDTH 960 0
DWIDTH 16 0
BBX 21 16 -2 -2
BITMAP
008100
00FDF8
012680
062880
03F7E0
021420
07EFC0
042840
07EFC0
080080
09F880
090880
13F100
121100
13F100
200600
ENDCHAR
STARTCHAR 344b
ENCODING 13387
SWIDTH 960 0
DWIDTH 16 0
BBX 21 16 -2 -2
BITMAP
004020
0040D0
009F10
06A220
014940
018580
01BFC0
024800
0FBFE0
021000
0B1F00
0B2A00
154C00
158800
247600
098100
ENDCHAR
STARTCHAR 344c
ENCODING 13388
SWIDTH 960 0
DWIDTH 16 0
BBX 21 16 -2 -2
BITMAP
004000
004000
008000
00FFC0
010800
020800
041000
081000
0FFFE0
002000
042100
042100
084200
084200
0FFE00
100400
ENDCHAR
STARTCHAR 344d
ENCODING 13389
SWIDTH 960 0
DWIDTH 16 0
BBX 21 16 -2 -2
BITMAP
004080
004080
03F940
008640
03E820
023FF0
044440
07E640
046540
08AA80
0F8880
023980
3FD500
049900
041100
086600
ENDCHAR
STARTCHAR 344e
ENCODING 13390
SWIDTH 960 0
DWIDTH 16 0
BBX 21 16 -2 -2
BITMAP
000000
01F7F0
011080
022100
022100
03E100
044200
047FE0
044200
0F8400
088400
088400
110800
110800
230800
421000
ENDCHAR
STARTCHAR 344f
ENCODING 13391
SWIDTH 960 0
DWIDTH 16 0
BBX 21 16 -2 -2
BITMAP
002020
0047A0
01F520
022A70
032F80
032900
055D00
0FF5E0
045E00
0C8000
0ABF80
0AAA80
155500
115500
23FF80
420000
ENDCHAR
STARTCHAR 3450
ENCODING 13392
SWIDTH 960 0
DWIDTH 16 0
BBX 21 16 -2 -2
BITMAP
002080
002080
03FFF8
004100
000800
03FFE0
040080
05FE00
080000
000000
1FFF80
009000
012000
022100
0C2100
701E00
ENDCHAR
STARTCHAR 3451
ENCODING 13393
SWIDTH 960 0
DWIDTH 16 0
BBX 21 16 -2 -2
BITMAP
008000
0083F0
01FA10
028420
0487E0
07FC20
024840
028FC0
07E840
191080
0FDF80
091200
1F9400
122480
1FC480
210300
ENDCHAR
STARTCHAR 3452
ENCODING 13394
SWIDTH 960 0
DWIDTH 16 0
BBX 21 16 -2 -2
BITMAP
000080
01E080
000FF8
07F100
000FC0
03E940
001280
001F80
07D280
002500
0FBF00
089E00
112A00
114900
1F8880
221000
ENDCHAR
STARTCHAR 3453
ENCODING 13395
SWIDTH 960 0
DWIDTH 16 0
BBX 21 16 -2 -2
BITMAP
000000
007FC0
004440
07FFF0
011100
01FF00
000000
01FF00
010100
03FE00
020200
03FE00
040400
07FC00
060C00
380200
ENDCHAR
STARTCHAR 3454
ENCODING 13396
SWIDTH 960 0
DWIDTH 16 0
BBX 21 16 -2 -2
BITMAP
000000
011FE0
0114A0
013FC0
000000
00FFF0
000000
0F3F00
012100
027E00
023080
02D900
072400
092380
30E000
407F00
ENDCHAR
STARTCHAR 3455
ENCODING 13397
SWIDTH 960 0
DWIDTH 16 0
BBX 21 16 -2 -2
BITMAP
004020
0047A0
00A520
012A70
020F80
07E900
011D00
0115E0
0FFE00
020000
12BF80
132A80
14D500
075500
1CFF80
600000
ENDCHAR
STARTCHAR 3456
ENCODING 13398
SWIDTH 960 0
DWIDTH 16 0
BBX 21 16 -2 -2
BITMAP
000000
03F3F0
021210
07E7E0
042420
042420
0FCFC0
080040
08FC40
110880
11F880
110880
23F100
221100
200300
400200
ENDCHAR
STARTCHAR 3457
ENCODING 13399
SWIDTH 960 0
DWIDTH 16 0
BBX 21 16 -2 -2
BITMAP
000000
03F3F0
021210
07E7E0
042420
07E7E0
082040
082040
0BFE40
104080
10E080
135080
249100
288900
208300
400200
ENDCHAR
STARTCHAR 3458
ENCODING 13400
SWIDTH 960 0
DWIDTH 16 0
BBX 21 16 -2 -2
BITMAP
000000
03F3F0
021210
07E7E0
042420
07E7E0
088440
084840
09FE40
104080
104080
17FE80
20A100
211100
260B00
480200
ENDCHAR
STARTCHAR 3459
ENCODING 13401
SWIDTH 960 0
DWIDTH 16 0
BBX 21 16 -2 -2
BITMAP
000100
01E100
0121E0
024240
028480
030900
050200
0527C0
052440
094880
094F80
0A4880
1C9100
109100
109F00
212200
ENDCHAR
STARTCHAR 345a
ENCODING 13402
SWIDTH 960 0
DWIDTH 16 0
BBX 21 16 -2 -2
BITMAP
004080
0047E0
03F920
008240
03FFF0
022000
045F80
07D080
045FC0
088200
0F9F80
021200
3FA400
04FF80
040400
080800
ENDCHAR
STARTCHAR 345b
ENCODING 13403
SWIDTH 960 0
DWIDTH 16 0
BBX 21 16 -2 -2
BITMAP
004080
004080
00A7F8
012820
029000
07E7C0
044880
07C880
044F80
089000
0F9000
091F80
112100
132100
1CBF00
604200
ENDCHAR
STARTCHAR 345c
ENCODING 13404
SWIDTH 960 0
DWIDTH 16 0
BBX 21 16 -2 -2
BITMAP
004080
004080
00A7F8
012820
021000
05E7C0
010880
010880
0FEF80
021000
0F9000
089F80
112100
112100
1F3F00
224200
ENDCHAR
STARTCHAR 345d
ENCODING 13405
SWIDTH 960 0
DWIDTH 16 0
BBX 21 16 -2 -2
BITMAP
001000
001000
001000
002000
07FF00
002100
004200
014200
00C200
008400
014400
024400
044900
080900
300900
400600
ENDCHAR
STARTCHAR 345e
ENCODING 13406
SWIDTH 960 0
DWIDTH 16 0
BBX 21 16 -2 -2
BITMAP
000400
000400
000A00
003200
007F00
0380C0
0C0020
01FE00
000400
000800
001000
03FE00
040400
040400
07FC00
080800
ENDCHAR
STARTCHAR 345f
ENCODING 13407
SWIDTH 960 0
DWIDTH 16 0
BBX 21 16 -2 -2
BITMAP
000400
008420
008420
01FFC0
000000
01FFF0
020000
02FF80
020800
041000
07FFC0
081000
082000
102000
202000
004000
ENDCHAR
STARTCHAR 3460
ENCODING 13408
SWIDTH 960 0
DWIDTH 16 0
BBX 21 16 -2 -2
BITMAP
008210
008210
00FFF0
005080
01FFF0
017900
024200
03FBE0
029C80
05E900
053500
09E600
0A4400
13CA00
267100
40C100
ENDCHAR
STARTCHAR 3461
ENCODING 13409
SWIDTH 960 0
DWIDTH 16 0
BBX 21 16 -2 -2
BITMAP
000000
0007E0
03F000
010000
010000
010000
027FE0
0F8900
020900
041200
041200
07A200
0C2400
304480
018380
020000
ENDCHAR
STARTCHAR 3462
ENCODING 13410
SWIDTH 960 0
DWIDTH 16 0
BBX 21 16 -2 -2
BITMAP
000200
000200
007FF0
008000
049F80
049080
053F00
010000
07F3C0
0B2480
13F780
041100
0A2200
122200
23FE00
040400
ENDCHAR
STARTCHAR 3463
ENCODING 13411
SWIDTH 960 0
DWIDTH 16 0
BBX 21 16 -2 -2
BITMAP
000000
01E7E0
012420
024840
024FC0
03C840
049080
049FC0
079240
092480
092500
092600
1E4400
125A00
006100
038100
ENDCHAR
STARTCHAR 3464
ENCODING 13412
SWIDTH 960 0
DWIDTH 16 0
BBX 21 16 -2 -2
BITMAP
000400
008420
008420
010840
01FFC0
000000
000000
0FFFE0
00C000
010000
03FE00
0D0200
320400
020400
03FC00
040800
ENDCHAR
STARTCHAR 3465
ENCODING 13413
SWIDTH 960 0
DWIDTH 16 0
BBX 21 16 -2 -2
BITMAP
000000
03FDF0
004400
04C800
02A800
039800
0DDFE0
033280
010280
0FC500
084500
0FC900
108A00
109280
1FA280
214300
ENDCHAR
STARTCHAR 3466
ENCODING 13414
SWIDTH 960 0
DWIDTH 16 0
BBX 21 16 -2 -2
BITMAP
000000
00FFF0
009240
011FE0
015900
01EFC0
029200
02FFE0
028100
04FE00
048200
08FE00
090400
11FC00
238C00
1C0200
ENDCHAR
STARTCHAR 3467
ENCODING 13415
SWIDTH 960 0
DWIDTH 16 0
BBX 21 16 -2 -2
BITMAP
000000
00FFF8
008900
011240
011480
0127E0
025900
02E900
034FC0
049200
049200
089F80
092400
112400
213F80
024000
ENDCHAR
STARTCHAR 3468
ENCODING 13416
SWIDTH 960 0
DWIDTH 16 0
BBX 21 16 -2 -2
BITMAP
000000
000FF8
01F180
000200
000FE0
000820
0FF040
029FC0
029040
053F80
052080
09E080
0B7F00
121200
206100
038100
ENDCHAR
STARTCHAR 3469
ENCODING 13417
SWIDTH 960 0
DWIDTH 16 0
BBX 21 16 -2 -2
BITMAP
004000
0047F8
03F980
022200
0147E0
03F420
044840
048FC0
056840
089F80
091080
0A7080
10BF00
211200
066100
388100
ENDCHAR
STARTCHAR 346a
ENCODING 13418
SWIDTH 960 0
DWIDTH 16 0
BBX 21 16 -2 -2
BITMAP
000000
01FFF8
013040
024100
02FBE0
028A20
05F440
0517C0
051440
0BEF80
088880
12C880
155F00
252A00
293100
06C100
ENDCHAR
STARTCHAR 346b
ENCODING 13419
SWIDTH 960 0
DWIDTH 16 0
BBX 21 16 -2 -2
BITMAP
000400
000400
000A00
003200
004100
0188C0
0E1020
001000
011F80
022000
022000
022000
044000
044000
3FFF80
000000
ENDCHAR
STARTCHAR 346c
ENCODING 13420
SWIDTH 960 0
DWIDTH 16 0
BBX 21 16 -2 -2
BITMAP
002100
002100
002100
007FF0
008200
018200
030400
057F80
091080
021100
021200
021400
041800
042400
04C200
0B0100
ENDCHAR
STARTCHAR 346d
ENCODING 13421
SWIDTH 960 0
DWIDTH 16 0
BBX 21 16 -2 -2
BITMAP
002000
003F80
004300
018400
03FFE0
050000
020000
027F00
024100
048200
048200
088C00
090100
110100
208100
007E00
ENDCHAR
STARTCHAR 346e
ENCODING 13422
SWIDTH 960 0
DWIDTH 16 0
BBX 21 16 -2 -2
BITMAP
000800
03FFF0
000800
03FFC0
000000
01FF80
020100
03FF00
010600
010800
3FFFC0
000000
0FFC00
080400
0FFC00
100800
ENDCHAR
STARTCHAR 346f
ENCODING 13423
SWIDTH 960 0
DWIDTH 16 0
BBX 21 16 -2 -2
BITMAP
000000
00FBE0
008A20
011440
01F7C0
011840
001000
0FFFE0
006800
018400
060300
1FDFC0
08A200
08A200
0FBE00
114400
ENDCHAR
STARTCHAR 3470
ENCODING 13424
SWIDTH 960 0
DWIDTH 16 0
BBX 21 16 -2 -2
BITMAP
002080
002080
01FFF0
004100
007F00
004100
00FE00
008200
0FFFE0
012400
022200
0DFD00
304080
004000
1FFF00
000000
ENDCHAR
STARTCHAR 3471
ENCODING 13425
SWIDTH 960 0
DWIDTH 16 0
BBX 21 16 -2 -2
BITMAP
000400
000400
01FFF0
001400
002200
00C180
000000
0FFFE0
000100
03F200
021200
021200
07E400
042400
000400
001800
ENDCHAR
STARTCHAR 3472
ENCODING 13426
SWIDTH 960 0
DWIDTH 16 0
BBX 21 16 -2 -2
BITMAP
004080
004FF8
004080
008FE0
07E000
012FE0
025040
025FC0
048980
088A00
1F7FC0
038000
057F00
084100
307F00
008200
ENDCHAR
STARTCHAR 3473
ENCODING 13427
SWIDTH 960 0
DWIDTH 16 0
BBX 21 16 -2 -2
BITMAP
000800
000800
01FFF0
021040
05FF80
003800
004800
018600
0FFFC0
000400
07E400
042400
084800
0FC800
084800
003000
ENDCHAR
STARTCHAR 3474
ENCODING 13428
SWIDTH 960 0
DWIDTH 16 0
BBX 21 16 -2 -2
BITMAP
008100
008100
009FF8
052200
054200
054200
0AFF80
0A9080
0A9100
151200
151400
1F1C00
221800
202400
00C200
070100
ENDCHAR
STARTCHAR 3475
ENCODING 13429
SWIDTH 960 0
DWIDTH 16 0
BBX 21 16 -2 -2
BITMAP
003020
000CC0
000700
003B00
03C880
001000
0FFFE0
004800
008800
03FF80
051080
191080
222100
022100
022600
004000
ENDCHAR
STARTCHAR 3476
ENCODING 13430
SWIDTH 960 0
DWIDTH 16 0
BBX 21 16 -2 -2
BITMAP
004480
004480
011720
00A940
004880
00A940
01B380
061E40
001100
1FFFC0
011000
019300
029400
041900
186500
230600
ENDCHAR
STARTCHAR 3477
ENCODING 13431
SWIDTH 960 0
DWIDTH 16 0
BBX 21 16 -2 -2
BITMAP
000000
00FF80
000080
000100
01FF00
010000
020100
020100
01FF00
002000
049100
049080
091080
110480
208400
007800
ENDCHAR
STARTCHAR 3478
ENCODING 13432
SWIDTH 960 0
DWIDTH 16 0
BBX 21 16 -2 -2
BITMAP
008000
008FF0
009120
012200
07DFE0
010200
023F80
022480
03BF80
1C4900
044900
047F00
081000
0BFF80
081000
302000
ENDCHAR
STARTCHAR 3479
ENCODING 13433
SWIDTH 960 0
DWIDTH 16 0
BBX 21 16 -2 -2
BITMAP
004000
0043C0
004240
07F480
008480
008480
038900
034900
035100
061200
0A2200
124200
044400
048480
070480
0C0300
ENDCHAR
STARTCHAR 347a
ENCODING 13434
SWIDTH 960 0
DWIDTH 16 0
BBX 21 16 -2 -2
BITMAP
004200
004200
0047F8
07E800
011440
013FF0
020880
03CF80
024880
049F00
049100
08FFC0
090400
111200
236200
0C8200
ENDCHAR
STARTCHAR 347b
ENCODING 13435
SWIDTH 960 0
DWIDTH 16 0
BBX 21 16 -2 -2
BITMAP
000000
01F7F0
011240
022480
03E480
022480
044900
07FFE0
040300
090600
088600
098A00
169400
18A480
30C480
030300
ENDCHAR
STARTCHAR 347c
ENCODING 13436
SWIDTH 960 0
DWIDTH 16 0
BBX 21 16 -2 -2
BITMAP
008800
0089F0
03FF10
011220
011220
01F3E0
022440
022440
03E440
044F80
044880
1FF880
091100
08A100
10C300
608200
ENDCHAR
STARTCHAR 347d
ENCODING 13437
SWIDTH 960 0
DWIDTH 16 0
BBX 21 16 -2 -2
BITMAP
004220
004220
004FF8
07F440
008440
0087C0
038880
034880
032F80
061100
0A1100
12FFC0
040400
042200
04C200
0B0200
ENDCHAR
STARTCHAR 347e
ENCODING 13438
SWIDTH 960 0
DWIDTH 16 0
BBX 21 16 -2 -2
BITMAP
000400
03FFF8
001980
0020C0
01FFA0
008880
0FFFE0
011100
01FF00
002000
1FFFC0
01A800
024800
0C4600
304180
008000
ENDCHAR
STARTCHAR 3521
ENCODING 13601
SWIDTH 960 0
DWIDTH 16 0
BBX 21 16 -2 -2
BITMAP
004520
004520
0073C0
07CA40
008AA0
00B7D0
035C80
038440
037FE0
062500
0A2500
123600
045480
048A80
071180
0C4100
ENDCHAR
STARTCHAR 3522
ENCODING 13602
SWIDTH 960 0
DWIDTH 16 0
BBX 21 16 -2 -2
BITMAP
004000
004FE0
004020
028FC0
028040
029FC0
050000
057FE0
094420
124840
027F00
044900
049200
089200
109600
202000
ENDCHAR
STARTCHAR 3523
ENCODING 13603
SWIDTH 960 0
DWIDTH 16 0
BBX 21 16 -2 -2
BITMAP
002000
0021E0
01FD20
011240
00A250
07FC50
010860
029000
05AF80
02C900
04C900
0BA600
052400
090A00
133100
0CC100
ENDCHAR
STARTCHAR 3524
ENCODING 13604
SWIDTH 960 0
DWIDTH 16 0
BBX 21 16 -2 -2
BITMAP
004000
004000
007FF0
008000
017F80
060000
080000
03FF00
001100
031200
00A200
00E200
012280
021280
0C0180
700100
ENDCHAR
STARTCHAR 3525
ENCODING 13605
SWIDTH 960 0
DWIDTH 16 0
BBX 21 16 -2 -2
BITMAP
008800
004800
004FF0
001000
002F80
044000
040000
04FF00
000100
020200
040200
080200
080280
100280
200180
400100
ENDCHAR
STARTCHAR 3526
ENCODING 13606
SWIDTH 960 0
DWIDTH 16 0
BBX 21 16 -2 -2
BITMAP
004480
0054A0
012740
00A980
004880
01A940
06D7C0
002A40
0FFFE0
07D200
055200
07CC00
0A8900
0A9500
0FE300
018200
ENDCHAR
STARTCHAR 3527
ENCODING 13607
SWIDTH 960 0
DWIDTH 16 0
BBX 21 16 -2 -2
BITMAP
004020
0040C0
004700
07E800
002800
004FF0
009100
011100
079100
0AA200
126200
022200
044400
048400
050400
080800
ENDCHAR
STARTCHAR 3528
ENCODING 13608
SWIDTH 960 0
DWIDTH 16 0
BBX 21 16 -2 -2
BITMAP
000040
000180
00FE00
000800
07FFF0
003C00
005400
019300
0E10E0
01FC00
001000
002000
3FFF80
004000
004000
018000
ENDCHAR
STARTCHAR 3529
ENCODING 13609
SWIDTH 960 0
DWIDTH 16 0
BBX 21 16 -2 -2
BITMAP
001020
006320
03C180
009E40
008200
07FFF0
010A00
038A00
035FC0
063480
0A5480
129480
242900
042E00
042800
081000
ENDCHAR
STARTCHAR 352a
ENCODING 13610
SWIDTH 960 0
DWIDTH 16 0
BBX 21 16 -2 -2
BITMAP
004000
0043F0
009010
06A020
014020
018020
018FC0
024800
0FC800
025000
0A1000
0A9000
149080
149080
240F80
080000
ENDCHAR
STARTCHAR 352b
ENCODING 13611
SWIDTH 960 0
DWIDTH 16 0
BBX 21 16 -2 -2
BITMAP
004880
006A80
00AB00
017DF0
021240
04B640
00DA80
025280
022B00
0DF500
144A00
056200
0AA600
0A8A00
0CB100
114100
ENDCHAR
STARTCHAR 352c
ENCODING 13612
SWIDTH 960 0
DWIDTH 16 0
BBX 21 16 -2 -2
BITMAP
004000
0047E0
004420
03F840
008FC0
008840
011080
0FFF80
011080
032100
053F00
092400
092800
104880
218480
460300
ENDCHAR
STARTCHAR 352d
ENCODING 13613
SWIDTH 960 0
DWIDTH 16 0
BBX 21 16 -2 -2
BITMAP
000000
01F3F0
000010
07F820
000020
03F020
000FC0
07E800
000800
001000
0FD000
085000
109080
109080
1F8F80
210000
ENDCHAR
ENDFONT
